<svg width="42" height="42" viewBox="0 0 42 42" fill="none" xmlns="http://www.w3.org/2000/svg">
<path fill-rule="evenodd" clip-rule="evenodd" d="M25.2595 37.064C25.4126 37.4173 25.0146 37.7551 24.6917 37.5446L7.69972 26.4508C6.40412 25.7058 6.70006 24.2875 7.69972 23.855L17.2117 20.3422C17.5845 20.2045 17.9975 20.3823 18.1563 20.7453L25.2601 37.064H25.2595Z" fill="#FFC712"/>
<path fill-rule="evenodd" clip-rule="evenodd" d="M40.8973 34.9611L30.4625 39.4782C29.7972 39.7667 29.0023 39.4065 28.6845 38.6741L15.2444 7.63296C14.9261 6.89885 15.2095 6.06951 15.8759 5.78045L26.3101 1.26333C26.9754 0.975419 27.7715 1.33502 28.0886 2.06742L41.5299 33.1091C41.8476 33.8433 41.5643 34.6726 40.8978 34.9616" fill="#00ADEE"/>
<path fill-rule="evenodd" clip-rule="evenodd" d="M13.6484 10.1959C14.3819 11.8592 16.0647 15.7615 16.7225 17.2894C16.7576 17.3705 16.7757 17.458 16.776 17.5464C16.7762 17.6347 16.7584 17.7223 16.7238 17.8036C16.6891 17.8849 16.6383 17.9583 16.5744 18.0194C16.5105 18.0805 16.4348 18.1279 16.352 18.1588L9.08023 20.8871C9.00882 20.9137 8.93122 20.9187 8.85695 20.9016C8.78274 20.8844 8.71523 20.8458 8.66275 20.7905C8.61028 20.7353 8.57518 20.6659 8.56181 20.5909C8.54845 20.5159 8.5574 20.4386 8.58756 20.3686L12.9653 10.2C12.994 10.1334 13.0414 10.0766 13.1019 10.0366C13.1623 9.99658 13.233 9.97502 13.3055 9.97462C13.378 9.97416 13.4491 9.99486 13.5099 10.0342C13.5709 10.0735 13.619 10.1298 13.6484 10.1959ZM14.0321 33.3184L6.04626 27.988C5.97193 27.9385 5.88768 27.906 5.79943 27.8926C5.71117 27.8792 5.62105 27.8853 5.5354 27.9104C5.44974 27.9356 5.37063 27.9791 5.30362 28.0381C5.23662 28.0971 5.18335 28.1701 5.14754 28.2518L0.573067 38.6935C0.341361 39.2234 0.877036 39.7625 1.40756 39.5337L13.9615 34.1006C14.0351 34.0686 14.0988 34.0174 14.1457 33.9523C14.1927 33.8872 14.2213 33.8107 14.2285 33.7307C14.2357 33.6508 14.2213 33.5704 14.1867 33.4979C14.1522 33.4255 14.0988 33.3637 14.0321 33.3189" fill="#EC1848"/>
<path fill-rule="evenodd" clip-rule="evenodd" d="M14.032 33.3182L6.04617 27.9878C5.97184 27.9384 5.88759 27.9058 5.79934 27.8924C5.71109 27.879 5.62097 27.8851 5.53531 27.9102C5.44966 27.9354 5.37055 27.979 5.30354 28.038C5.23653 28.097 5.18326 28.1699 5.14746 28.2517L10.5398 35.5814L13.9614 34.1005C14.035 34.0685 14.0987 34.0172 14.1456 33.9521C14.1926 33.887 14.2212 33.8105 14.2284 33.7306C14.2357 33.6506 14.2212 33.5702 14.1866 33.4978C14.1521 33.4253 14.0987 33.3635 14.032 33.3188" fill="#C22035"/>
</svg>
