<svg xmlns="http://www.w3.org/2000/svg" width="69" height="58" viewBox="0 0 69 58" fill="none">
  <path d="M22.2123 56.9999C24.1028 54.2451 25.048 51.383 25.048 48.4136C25.048 45.4441 24.1028 42.4031 22.2123 39.2905" stroke="#1A1A1A" stroke-width="2" stroke-linejoin="round"/>
  <path d="M13.2329 45.0341L14.6507 39.2905" stroke="#1A1A1A" stroke-width="2" stroke-linejoin="round"/>
  <path d="M17.0137 45.0341L18.4315 39.2905" stroke="#1A1A1A" stroke-width="2" stroke-linejoin="round"/>
  <path d="M9.45209 56.9999C7.56168 54.2451 6.61647 51.383 6.61647 48.4136C6.61647 45.4441 7.56168 42.4031 9.45209 39.2905" stroke="#1A1A1A" stroke-width="2" stroke-linejoin="round"/>
  <path d="M59.548 56.9999C61.4384 54.2451 62.3836 51.383 62.3836 48.4136C62.3836 45.4441 61.4384 42.4031 59.548 39.2905" stroke="#1A1A1A" stroke-width="2" stroke-linejoin="round"/>
  <path d="M50.5685 45.0341L51.9864 39.2905" stroke="#1A1A1A" stroke-width="2" stroke-linejoin="round"/>
  <path d="M54.3494 45.0341L55.7672 39.2905" stroke="#1A1A1A" stroke-width="2" stroke-linejoin="round"/>
  <path d="M46.7877 56.9999C44.8973 54.2451 43.9521 51.383 43.9521 48.4136C43.9521 45.4441 44.8973 42.4031 46.7877 39.2905" stroke="#1A1A1A" stroke-width="2" stroke-linejoin="round"/>
  <path d="M42.0616 56.0425H26.9384V57.9997H42.0616V56.0425Z" fill="#1A1A1A"/>
  <path d="M58.1301 28.2822H69" stroke="#1A1A1A" stroke-width="2" stroke-linejoin="round"/>
  <path d="M58.1301 24.4531H69" stroke="#1A1A1A" stroke-width="2" stroke-linejoin="round"/>
  <path d="M0 28.2822H10.8699" stroke="#1A1A1A" stroke-width="2" stroke-linejoin="round"/>
  <path d="M0 24.4531H10.8699" stroke="#1A1A1A" stroke-width="2" stroke-linejoin="round"/>
  <path d="M50.5685 34.5043C52.4589 31.7495 53.4041 28.8874 53.4041 25.9179C53.4041 22.9485 52.4589 19.9075 50.5685 16.7949" stroke="#1A1A1A" stroke-width="2" stroke-linejoin="round"/>
  <path d="M17.4863 34.5043C15.5959 31.7495 14.6507 28.8874 14.6507 25.9179C14.6507 22.9485 15.5959 19.9075 17.4863 16.7949" stroke="#1A1A1A" stroke-width="2" stroke-linejoin="round"/>
  <path d="M38.2808 28.7609L42.0616 20.1455L45.8425 28.7609" stroke="#1A1A1A" stroke-width="2" stroke-linejoin="bevel"/>
  <path d="M22.2123 28.7609L25.9932 20.1455L29.774 28.7609" stroke="#1A1A1A" stroke-width="2" stroke-linejoin="bevel"/>
  <path d="M34.5 34C35.3284 34 36 33.3284 36 32.5C36 31.6716 35.3284 31 34.5 31C33.6716 31 33 31.6716 33 32.5C33 33.3284 33.6716 34 34.5 34Z" fill="#1A1A1A"/>
  <path d="M19.8493 12.0085L25.0479 1L30.2466 12.0085" stroke="#1A1A1A" stroke-width="2" stroke-linejoin="bevel"/>
  <path d="M38.7534 12.0085L43.952 1L49.1507 12.0085" stroke="#1A1A1A" stroke-width="2" stroke-linejoin="bevel"/>
  <path d="M39 11H30V13H39V11Z" fill="#1A1A1A"/>
</svg>
