<svg width="226" height="218" viewBox="0 0 226 218" fill="none" xmlns="http://www.w3.org/2000/svg">
<path d="M152.714 46.857L36.3704 136.924C35.1715 137.058 33.3898 136.758 31.0253 136.025C28.0613 135.093 25.2472 133.711 22.583 131.879C14.99 126.684 10.3942 119.224 8.79567 109.5C7.23044 100.175 8.66245 90.1672 13.0917 79.4771C14.557 75.947 16.3554 72.3003 18.4868 68.5371L22.3832 61.9931C25.547 56.3649 28.1612 50.8034 30.226 45.3084C33.6562 36.1168 34.5887 29.3231 33.0234 24.9271L34.622 25.1269C35.8209 25.36 36.7867 25.793 37.5193 26.4257C37.4194 25.36 37.1363 24.1112 36.6701 22.6792C35.7043 19.7485 34.3222 17.2841 32.5239 15.2859L37.9189 14.5366C42.4814 14.5699 47.1105 15.8687 51.8062 18.4331L51.4565 15.6856C51.3233 13.8206 51.5065 12.7882 52.006 12.5884C52.772 12.2887 53.871 13.0214 55.303 14.7864C55.3363 13.3211 55.6527 11.6559 56.2521 9.79099C57.4177 6.12768 59.3826 3.36355 62.1467 1.4986L64.8942 6.54397C67.4585 10.174 70.589 12.6883 74.2856 14.087C77.516 15.3526 84.8426 16.3183 96.2654 16.9844C107.322 17.6504 115.115 19.0159 119.644 21.0806L124.44 21.4803C128.336 21.9798 131.933 22.8956 135.23 24.2277C145.853 28.5238 151.681 36.0669 152.714 46.857Z" fill="#68AE28"/>
<path d="M12.2425 119.291C4.71603 105.104 6.51438 88.8019 17.6375 70.3854C12.0093 85.2718 13.9076 97.1775 23.3323 106.103C27.4285 109.966 32.5905 112.797 38.8181 114.595C44.9125 116.327 51.3732 116.893 58.2003 116.293L34.9216 137.324C31.5248 137.024 27.7449 135.376 23.5821 132.379C18.8198 128.882 15.0399 124.519 12.2425 119.291Z" fill="#56931F"/>
<path d="M198.372 40.263C201.336 41.5618 203.917 45.9745 206.115 53.5009C208.079 60.328 208.746 65.1569 208.113 67.9876C212.042 72.5501 215.872 81.4586 219.602 94.7131C223.832 109.566 224.548 120.373 221.75 127.133C220.851 129.298 218.22 132.245 213.857 135.975C209.328 139.905 204.849 142.936 200.42 145.067L202.668 148.714C204.466 151.911 206.081 155.357 207.513 159.054C212.076 170.976 213.974 183.332 213.208 196.12C212.975 200.183 209.611 203.513 203.117 206.111C196.757 208.609 189.979 209.441 182.786 208.609C180.355 208.276 177.141 205.428 173.145 200.066C168.582 193.839 165.868 187.378 165.002 180.684C158.908 184.214 153.763 186.595 149.566 187.828L148.268 190.026C147.135 191.824 145.803 193.489 144.271 195.021C139.442 199.95 133.731 202.697 127.137 203.263C120.576 203.83 115.481 203.313 111.851 201.715C110.719 201.215 109.786 200.633 109.054 199.967L108.354 199.117L68.4409 200.466L64.3446 204.063C60.6813 206.494 56.4519 207.776 51.6563 207.909C45.0956 208.109 39.9337 207.51 36.1705 206.111C31.4415 204.313 28.0779 201.032 26.0797 196.27C23.1824 189.41 21.6505 181.55 21.484 172.692C21.2508 161.169 23.8318 151.744 29.2269 144.417C34.4221 137.357 41.1992 130.164 49.5582 122.837C51.8894 120.806 58.2336 115.644 68.5908 107.351C73.8859 103.155 78.5982 99.0924 82.7278 95.1627C86.9239 91.1663 89.4716 88.3023 90.3708 86.5705C91.3366 79.9433 92.6021 73.2161 94.1673 66.3891C97.3311 52.7349 100.395 45.4416 103.359 44.5091C106.323 43.61 110.685 44.5591 116.447 47.3565C119.311 48.7885 121.875 50.2872 124.14 51.8524L127.537 50.6535C130.534 49.7543 133.814 48.9884 137.378 48.3556C148.767 46.3907 160.856 46.2742 173.644 48.0059C175.576 45.9412 179.839 43.943 186.433 42.0114C192.793 40.1465 196.773 39.5637 198.372 40.263Z" fill="#7CBEB3"/>
<path d="M207.414 60.1448L208.413 67.9876L203.267 60.3446C203.8 58.1133 204.033 55.0994 203.967 51.3029L203.667 46.3075C205.199 49.6045 206.448 54.2169 207.414 60.1448Z" fill="#68A198"/>
<path d="M93.0185 68.9867C95.7161 56.5981 98.3636 49.438 100.961 47.5064C100.328 54.6998 100.112 61.81 100.312 68.8368C100.445 72.9664 100.878 79.2606 101.611 87.7195C102.044 92.7482 101.527 97.2108 100.062 101.107C98.7633 104.504 97.0648 106.819 94.9667 108.051C92.902 109.25 91.2035 108.983 89.8714 107.252C88.4394 105.353 87.9565 102.09 88.4227 97.4606C89.3552 88.2357 90.8872 78.7444 93.0185 68.9867Z" fill="#68A198"/>
<path d="M183.186 195.97C185.75 200.766 188.814 203.763 192.377 204.962L190.479 208.758C185.45 209.758 181.004 208.442 177.141 204.812C172.512 200.383 168.416 192.34 164.853 180.684C159.091 184.181 152.697 186.795 145.67 188.527C138.743 190.259 130.417 191.308 120.693 191.674C119.161 192.174 118.045 193.239 117.346 194.871C116.647 196.436 116.63 197.852 117.296 199.117L114.499 202.414L108.504 198.768C108.671 197.635 109.603 194.255 111.302 188.627C112.967 183.232 114.016 178.553 114.449 174.59C115.714 162.734 112.417 152.011 104.558 142.419C111.551 149.446 123.807 153.859 141.324 155.657C160.04 157.555 175.942 155.857 189.03 150.562C184.834 153.259 181.837 157.456 180.039 163.15C178.44 168.279 177.957 173.957 178.59 180.185C179.223 186.179 180.755 191.441 183.186 195.97Z" fill="#68A198"/>
<path d="M20.9845 167.297C22.4165 178.986 28.8107 186.496 40.1669 189.826C44.5296 191.091 49.1254 191.558 53.9543 191.225C58.3502 190.925 61.9636 190.059 64.7943 188.627L68.441 200.916C65.8434 203.447 62.3466 205.428 57.9506 206.86C49.1587 209.724 40.3168 208.475 31.4249 203.114C27.1289 200.516 24.0484 193.922 22.1834 183.332C21.584 179.768 21.1843 176.155 20.9845 172.492C20.818 169.428 20.818 167.696 20.9845 167.297Z" fill="#68A198"/>
<path d="M127.936 85.8712C129.235 85.6381 130.617 85.8545 132.083 86.5206C127.054 90.3837 124.423 96.3116 124.19 104.304C123.957 111.598 125.622 118.441 129.185 124.835C122.192 124.069 117.263 122.471 114.399 120.04C113.566 119.307 113.217 117.259 113.35 113.895C113.483 110.399 114.099 106.735 115.198 102.906C118.062 92.7149 122.308 87.0368 127.936 85.8712Z" fill="white"/>
<path d="M145.221 104.904C146.786 109.1 147.752 112.88 148.118 116.243C148.518 119.84 148.118 122.238 146.919 123.437C146.12 124.236 143.972 124.786 140.475 125.085C136.912 125.352 133.148 125.268 129.185 124.835C125.622 118.441 123.957 111.598 124.19 104.304C124.423 96.3117 127.054 90.3838 132.083 86.5206C137.045 88.8185 141.424 94.9462 145.221 104.904Z" fill="#D60040"/>
<path d="M203.717 83.3735C207.88 86.7704 210.361 91.849 211.16 98.6095C211.66 102.839 211.46 108.783 210.561 116.443C209.095 117.009 207.68 117.392 206.315 117.592C204.916 117.825 203.867 117.825 203.167 117.592C201.203 116.959 200.22 111.931 200.22 102.506C200.187 92.8814 201.352 86.5039 203.717 83.3735Z" fill="#D60040"/>
<path d="M203.717 83.3735C204.316 82.5409 204.949 82.0581 205.615 81.9248C208.845 81.2255 211.976 85.1719 215.006 93.764C217.97 102.289 218.553 108.384 216.755 112.047C215.922 113.779 213.857 115.244 210.561 116.443C211.46 108.784 211.66 102.839 211.16 98.6095C210.361 91.8491 207.88 86.7704 203.717 83.3735Z" fill="white"/>
<path d="M174.394 78.2782C173.428 78.6445 170.914 77.6288 166.851 75.231C162.588 72.7666 160.54 70.7518 160.706 69.1865C160.94 67.1218 164.386 64.2744 171.047 60.6444C177.807 56.9811 182.303 55.6323 184.535 56.5981C185.967 57.1975 185.217 60.7276 182.287 67.1884C179.323 73.6824 176.692 77.379 174.394 78.2782Z" fill="#006359"/>
<path d="M152.164 82.5742C152.064 82.1413 152.564 81.3253 153.663 80.1264C154.795 78.8942 155.811 78.1616 156.71 77.9285L157.809 79.477C158.741 81.0423 159.674 83.2403 160.606 86.071L159.957 87.6196C159.324 88.7519 158.542 89.5345 157.609 89.9674L155.211 87.6695C153.546 85.8379 152.53 84.1394 152.164 82.5742Z" fill="#006359"/>
<path d="M190.779 93.4643C191.811 99.3588 191.894 102.656 191.029 103.355C190.263 103.988 187.931 103.738 184.035 102.606C180.105 101.474 177.874 100.375 177.341 99.3089C177.508 96.8445 178.773 93.764 181.138 90.0674C183.569 86.3708 185.534 84.5225 187.032 84.5225C188.497 84.5225 189.746 87.5031 190.779 93.4643Z" fill="#006359"/>
<path d="M193.776 180.335C193.643 178.436 194.809 175.722 197.273 172.192C199.671 168.729 201.402 167.063 202.468 167.197C204.067 167.363 205.166 170.71 205.765 177.237C206.331 183.798 205.815 187.345 204.217 187.878C202.451 188.477 200.337 188.144 197.872 186.879C195.042 185.38 193.676 183.199 193.776 180.335Z" fill="#006359"/>
<path d="M35.4212 152.26L43.6637 152.61C47.3603 153.343 49.4917 154.159 50.0578 155.058C50.9903 156.556 50.3742 159.72 48.2095 164.549C46.0781 169.345 44.2798 171.809 42.8145 171.942C41.549 172.042 38.9846 170.777 35.1215 168.146C31.2251 165.515 29.2935 163.683 29.3268 162.651C29.3601 161.319 30.0095 159.42 31.2751 156.956C32.6738 154.192 34.0558 152.627 35.4212 152.26Z" fill="#006359"/>
<path d="M82.9277 109.45C83.7936 110.948 82.3949 115.111 78.7316 121.938C75.0683 128.765 72.2542 132.395 70.2893 132.828C68.491 133.261 65.5603 132.478 61.4974 130.48C57.6676 128.649 55.1199 126.967 53.8544 125.435C53.4548 124.935 53.7212 123.47 54.6537 121.039L56.1523 117.492L62.8461 112.197C67.3753 108.634 69.9063 106.785 70.4392 106.652L76.6835 107.202C80.3468 107.834 82.4282 108.584 82.9277 109.45Z" fill="#006359"/>
<path d="M133.631 91.566C134.697 91.566 135.629 92.615 136.429 94.7131C137.228 96.9444 137.611 99.7252 137.578 103.055C137.511 106.219 137.078 108.717 136.279 110.549C135.546 112.214 134.647 113.046 133.581 113.046C132.582 113.046 131.716 112.147 130.984 110.349C130.184 108.45 129.751 106.053 129.685 103.155C129.552 99.6586 129.918 96.8112 130.784 94.6132C131.55 92.5817 132.499 91.566 133.631 91.566Z" fill="white"/>
<path d="M201.369 92.665L202.368 88.1691C202.768 87.6363 203.151 87.3865 203.517 87.4198C204.117 87.4531 204.683 88.1025 205.216 89.368C205.982 91.0665 206.398 93.4643 206.464 96.5614C206.498 99.4921 206.231 101.773 205.665 103.405C205.132 104.87 204.466 105.603 203.667 105.603C203.167 105.603 202.668 105.237 202.168 104.504C201.636 103.705 201.269 102.656 201.069 101.357C200.67 99.0591 200.77 96.1618 201.369 92.665Z" fill="white"/>
<path d="M180.089 50.3039C170.964 48.5388 161.722 47.8561 152.364 48.2557C142.307 48.6554 133.065 50.2872 124.64 53.1512C124.34 53.2512 123.924 52.9181 123.391 52.1522C122.825 51.3862 122.691 50.9366 122.991 50.8034C132.549 47.573 142.906 45.8413 154.063 45.6082C163.854 45.375 172.795 46.2909 180.888 48.3556C185.018 49.4213 186.982 50.204 186.783 50.7035L180.089 50.3039Z" fill="#0D131A"/>
<path d="M207.064 64.2411C213.824 74.0321 218.753 85.3883 221.85 98.3098C224.548 109.566 225.214 118.275 223.848 124.436C222.35 131.263 214.89 138.256 201.469 145.417C188.148 152.543 175.276 156.49 162.854 157.256C149.567 158.055 137.061 156.956 125.339 153.959C113.616 150.962 106.056 146.915 102.66 141.82C101.561 140.155 101.211 139.139 101.611 138.773C102.043 138.406 103.026 139.056 104.558 140.721C109.054 145.65 117.063 149.413 128.586 152.011C139.542 154.475 150.982 155.341 162.904 154.608C175.36 153.842 187.931 149.929 200.62 142.869C212.809 136.075 219.569 129.648 220.901 123.587C222.3 117.292 221.717 108.8 219.153 98.11C216.289 86.1543 211.71 75.3975 205.415 65.8396C202.818 61.8766 201.802 59.6786 202.368 59.2457C202.901 58.8127 204.466 60.4779 207.064 64.2411Z" fill="#0D131A"/>
<path d="M91.3201 87.1201C89.1221 91.2496 84.6762 96.1618 77.9823 101.857C73.986 105.22 67.2588 110.549 57.8009 117.842C49.1754 124.702 42.5149 130.747 37.8192 135.975C31.3584 143.169 27.0624 150.245 24.931 157.206C22.3667 165.565 22.2335 174.956 24.5314 185.38C26.6628 195.204 29.6933 201.265 33.623 203.563C37.8525 206.028 43.5473 207.11 50.7074 206.81C58.1006 206.511 63.2126 204.779 66.0433 201.615C70.406 196.72 72.1044 188.793 71.1386 177.837C70.1395 166.647 66.7426 157.722 60.948 151.061C58.6834 148.43 57.7176 146.832 58.0506 146.266C58.3837 145.7 59.799 146.749 62.2967 149.413C69.59 157.239 73.653 166.814 74.4855 178.137C75.2515 188.893 73.0036 197.219 67.7417 203.114C64.578 206.677 58.8832 208.675 50.6574 209.108C42.698 209.541 36.3872 208.392 31.7248 205.661C26.9958 202.897 23.5323 196.37 21.3343 186.079C19.103 175.489 19.3195 165.698 21.9837 156.706C24.0152 149.912 28.0282 143.102 34.0227 136.275C38.3853 131.28 44.6962 125.435 52.9553 118.741L73.4365 102.156C80.8297 95.7954 86.3413 89.9508 89.9713 84.6224C90.1378 84.3892 90.4376 84.6723 90.8705 85.4716C91.3368 86.3041 91.4866 86.8536 91.3201 87.1201Z" fill="#0D131A"/>
<path d="M103.559 43.0105C105.623 42.3445 109.104 43.0105 113.999 45.0087C118.928 47.0401 122.974 49.5212 126.138 52.4519C128.636 54.783 129.601 56.0985 129.035 56.3982C128.502 56.7313 126.971 55.9153 124.44 53.9505C121.176 51.4861 117.396 49.4046 113.1 47.7062C108.904 46.0078 106.09 45.4083 104.658 45.9079C102.326 46.6738 99.629 52.5851 96.5651 63.6416C93.3347 75.3309 91.2367 87.5863 90.2709 100.408C90.0045 104.104 89.5382 105.803 88.8722 105.503C88.1728 105.203 87.8897 103.455 88.0229 100.258C88.4559 89.1682 90.121 77.5621 93.0184 65.4399C96.3153 51.7192 99.8288 44.2427 103.559 43.0105Z" fill="#0D131A"/>
<path d="M172.046 47.3066C174.943 45.1086 179.389 43.0105 185.384 41.0124C192.144 38.7478 196.84 38.2149 199.471 39.4138C202.068 40.5794 204.433 44.4925 206.564 51.1531C208.529 57.3474 209.628 63.575 209.861 69.8359C209.861 70.1356 209.445 69.8193 208.612 68.8868C207.747 67.9543 207.314 67.3216 207.314 66.9885C207.114 61.9265 205.948 56.5981 203.817 51.0032C201.785 45.6748 199.904 42.6109 198.172 41.8116C196.54 41.079 192.81 41.5452 186.982 43.2103C181.088 44.8755 176.892 46.6572 174.394 48.5554C174.161 48.7553 173.644 48.6553 172.845 48.2557C172.079 47.8228 171.813 47.5064 172.046 47.3066Z" fill="#0D131A"/>
<path d="M173.894 76.8795C175.526 76.8462 177.807 73.7324 180.738 67.538C183.635 61.4436 184.718 58.2133 183.985 57.8469C182.353 57.0144 178.307 58.2299 171.846 61.4936C165.352 64.7573 162.088 67.2716 162.055 69.0367C162.022 70.1357 163.454 71.6842 166.351 73.6824C169.315 75.6806 171.83 76.7463 173.894 76.8795ZM169.898 60.1448C176.991 56.315 182.054 54.6832 185.084 55.2493C186.116 55.4491 186.416 56.8146 185.983 59.3456C185.584 61.6768 184.684 64.4076 183.286 67.538C179.789 75.3309 176.658 79.1607 173.894 79.0275C171.696 78.8943 168.766 77.6288 165.102 75.231C161.273 72.7333 159.358 70.6186 159.358 68.8868C159.358 66.8553 162.871 63.9413 169.898 60.1448Z" fill="#0D131A"/>
<path d="M159.607 86.3707C159.707 86.1043 159.341 84.8721 158.508 82.6741C157.676 80.4428 157.076 79.3105 156.71 79.2772C156.41 79.2439 155.744 79.6935 154.712 80.626C153.679 81.5585 153.163 82.2578 153.163 82.7241C153.197 83.157 153.896 84.2893 155.261 86.121C156.627 87.886 157.426 88.7685 157.659 88.7685C157.859 88.7685 158.209 88.4355 158.708 87.7694L159.607 86.3707ZM159.707 81.1255C160.74 83.5899 161.272 85.2717 161.306 86.1709C161.339 86.9036 160.806 87.9027 159.707 89.1682C158.575 90.467 157.726 90.9832 157.16 90.7167C156.494 90.417 155.345 89.1848 153.713 87.0201C151.948 84.7222 151.132 83.1404 151.265 82.2745C151.398 81.3753 152.181 80.243 153.613 78.8776C155.045 77.5788 156.127 76.946 156.86 76.9793C157.626 77.0459 158.575 78.428 159.707 81.1255Z" fill="#0D131A"/>
<path d="M186.683 85.9711C185.65 85.9045 183.952 87.8527 181.587 91.8157C179.289 95.7455 178.274 98.0933 178.54 98.8593C178.806 99.5586 180.688 100.408 184.185 101.407C187.715 102.406 189.73 102.672 190.229 102.206C190.995 101.474 190.845 98.5928 189.78 93.5641C188.714 88.5687 187.682 86.0377 186.683 85.9711ZM179.889 90.1672C182.786 85.1718 185.067 82.7574 186.733 82.9239C188.831 83.1237 190.512 86.5872 191.778 93.3144C193.01 100.008 192.91 103.705 191.478 104.404C190.246 105.037 187.532 104.654 183.336 103.255C179.206 101.89 176.941 100.724 176.542 99.7584C175.909 98.3264 177.025 95.1294 179.889 90.1672Z" fill="#0D131A"/>
<path d="M116.397 95.912C120.293 88.0193 124.473 84.3226 128.935 84.8222C135.23 85.5549 140.641 90.8666 145.171 100.758C147.069 104.954 148.318 109.1 148.917 113.196C149.55 117.459 149.333 120.856 148.268 123.387C147.702 124.786 145.57 125.718 141.874 126.184C138.477 126.584 134.53 126.551 130.034 126.084C125.505 125.618 121.642 124.802 118.445 123.637C114.915 122.404 113 120.989 112.7 119.39C111.202 111.797 112.434 103.971 116.397 95.912ZM139.875 96.6114C136.379 90.6835 132.649 87.5031 128.686 87.0701C127.12 86.9036 125.422 87.7695 123.59 89.6677C120.826 92.5318 118.595 96.6613 116.896 102.056C115.098 107.918 114.565 113.529 115.298 118.891C115.564 120.956 120.543 122.521 130.234 123.587C139.925 124.686 145.187 124.269 146.02 122.338C146.886 120.24 146.736 116.576 145.57 111.348C144.338 105.886 142.44 100.974 139.875 96.6114Z" fill="#0D131A"/>
<path d="M213.458 92.615C210.96 86.4207 208.446 83.3235 205.915 83.3235C203.683 83.3235 202.318 88.602 201.819 99.159C201.319 109.649 201.952 115.411 203.717 116.443C204.882 117.109 207.08 116.743 210.311 115.344C213.541 113.945 215.29 112.63 215.556 111.398C216.855 105.503 216.155 99.2423 213.458 92.615ZM199.471 98.3098C200.037 86.787 202.185 81.0256 205.915 81.0256C209.145 81.0256 212.276 84.4725 215.306 91.3661C218.47 98.6262 219.352 105.403 217.954 111.697C217.454 113.829 214.99 115.727 210.561 117.392C206.264 119.024 203.534 119.34 202.368 118.341C201.269 117.442 200.453 114.978 199.92 110.948C199.387 107.085 199.238 102.872 199.471 98.3098Z" fill="#0D131A"/>
<path d="M69.8896 105.703L78.6316 106.253C82.0284 106.852 83.9767 107.635 84.4762 108.6C85.3754 110.432 83.7435 115.128 79.5807 122.687C75.4178 130.314 72.2374 134.127 70.0395 134.127C67.9414 134.127 64.5112 133.078 59.7489 130.98C54.7202 128.782 52.2058 126.983 52.2058 125.585C52.2058 124.785 52.5721 123.587 53.3048 121.988L55.7026 117.292C55.8691 117.026 56.3187 116.859 57.0514 116.793C57.8173 116.76 58.1171 116.876 57.9505 117.143C57.0514 118.808 56.3354 120.423 55.8025 121.988C55.3363 123.353 55.1032 124.336 55.1032 124.935C55.2364 125.835 57.3844 127.217 61.5472 129.082C65.6102 130.913 68.4243 131.846 69.9895 131.879C71.4548 131.413 73.8526 128.016 77.1829 121.688C80.5132 115.361 81.9452 111.498 81.479 110.099C81.2125 109.533 79.7805 109 77.1829 108.5L69.44 107.951C69.107 107.984 69.0237 107.618 69.1902 106.852C69.3567 106.119 69.5899 105.736 69.8896 105.703Z" fill="#0D131A"/>
<path d="M35.8709 153.159C34.8385 153.659 33.6562 155.041 32.3241 157.306C30.992 159.537 30.3759 161.086 30.4758 161.951C30.609 162.851 32.3741 164.499 35.771 166.897C39.1678 169.295 41.3658 170.427 42.3649 170.294C43.364 170.161 44.9126 167.863 47.0106 163.4C49.1087 158.938 49.8913 156.423 49.3585 155.857C48.759 155.258 46.5777 154.558 42.8145 153.759C38.9847 152.96 36.6701 152.76 35.8709 153.159ZM30.3259 156.007C31.8912 153.409 33.3732 151.744 34.7719 151.011L43.4139 151.411C48.2095 152.31 51.007 153.393 51.8062 154.658C52.5389 155.824 51.7063 159.087 49.3085 164.449C46.9107 169.778 44.9459 172.725 43.4139 173.291C42.2483 173.757 39.5009 172.475 35.1715 169.445C30.7755 166.381 28.461 163.983 28.2279 162.251C28.0614 160.753 28.7607 158.671 30.3259 156.007Z" fill="#0D131A"/>
<path d="M194.875 180.235V180.285C194.942 183.049 196.29 185.064 198.921 186.329C201.286 187.461 202.884 187.645 203.717 186.879C204.583 186.079 204.883 183.049 204.616 177.787C204.35 172.425 203.567 169.445 202.268 168.845C201.569 168.545 200.154 170.044 198.022 173.341C195.924 176.638 194.875 178.936 194.875 180.235ZM196.324 171.643C198.888 167.546 200.87 165.515 202.268 165.548C204.533 165.581 205.948 169.195 206.514 176.388C207.081 183.448 206.614 187.528 205.116 188.627C203.883 189.559 201.636 189.393 198.372 188.127C194.642 186.662 192.727 184.214 192.627 180.784C192.594 178.719 193.826 175.672 196.324 171.643Z" fill="#0D131A"/>
<path d="M218.254 122.088C218.22 123.387 218.037 124.452 217.704 125.285L216.705 126.934C215.073 128.865 211.177 131.296 205.016 134.227C198.655 137.257 193.143 139.239 188.481 140.171C179.989 141.903 166.951 142.053 149.367 140.621C131.783 139.222 120.677 137.124 116.047 134.327C115.281 133.827 114.582 133.011 113.949 131.879C113.383 130.913 112.967 129.848 112.7 128.682C112.201 126.584 112.168 125.402 112.601 125.135C113.034 124.869 113.716 125.835 114.649 128.033C115.215 129.331 115.814 130.33 116.447 131.03L118.445 132.528C122.175 134.56 132.149 136.358 148.368 137.923C165.918 139.622 179.14 139.572 188.031 137.774C192.028 136.941 196.773 135.326 202.268 132.928C207.364 130.697 211.177 128.665 213.708 126.834C214.64 126.134 215.323 125.418 215.756 124.686C216.222 123.92 216.522 122.987 216.655 121.888C216.888 119.89 217.221 118.958 217.654 119.091C218.087 119.257 218.287 120.256 218.254 122.088Z" fill="#0D131A"/>
<path d="M142.523 81.0756C143.689 82.1413 144.821 83.4401 145.92 84.972C147.086 86.5705 147.918 88.0192 148.418 89.318C149.15 91.183 149.184 92.232 148.518 92.4651C147.818 92.6649 147.036 91.9323 146.17 90.2671C144.738 87.4364 142.989 84.8721 140.925 82.5742C138.993 80.3429 138.227 79.0441 138.627 78.6778C139.06 78.3114 140.358 79.1107 142.523 81.0756Z" fill="#0D131A"/>
<path d="M198.821 81.4253C198.189 83.257 197.789 85.2218 197.623 87.3199C197.489 89.1516 197.073 90.0507 196.374 90.0174C195.674 90.0174 195.375 89.1183 195.475 87.3199C195.574 85.1219 196.141 82.9573 197.173 80.8259C198.105 78.9276 198.788 78.0284 199.221 78.1283C199.621 78.2616 199.488 79.3605 198.821 81.4253Z" fill="#0D131A"/>
<path d="M176.891 133.777C176.159 133.411 175.576 132.945 175.143 132.379C174.71 131.846 174.56 131.463 174.693 131.23L176.242 131.28C177.208 131.479 177.924 131.796 178.39 132.229C178.99 132.828 179.106 133.344 178.74 133.777C178.373 134.21 177.757 134.21 176.891 133.777Z" fill="#0D131A"/>
<path d="M193.926 131.28C193.226 132.145 192.594 132.445 192.028 132.179C191.461 131.912 191.428 131.363 191.928 130.53C192.294 129.931 192.877 129.398 193.676 128.932C194.409 128.465 194.875 128.316 195.075 128.482C195.208 128.615 195.175 128.965 194.975 129.531L193.926 131.28Z" fill="#0D131A"/>
<path d="M133.881 86.7704C134.181 86.8703 134.314 87.3532 134.281 88.2191C134.247 89.0849 134.097 89.4346 133.831 89.2681C132.133 88.2024 130.534 89.0183 129.035 91.7159C127.637 94.1803 126.671 97.5938 126.138 101.956C125.572 106.452 125.638 110.649 126.338 114.545C127.17 118.974 128.719 122.138 130.984 124.036C131.25 124.236 131.083 124.536 130.484 124.935C129.885 125.302 129.452 125.385 129.185 125.185C126.454 123.154 124.573 119.79 123.54 115.094C122.641 110.865 122.541 106.336 123.241 101.507C123.94 96.7446 125.222 92.9481 127.087 90.1173C129.119 87.0868 131.383 85.9711 133.881 86.7704Z" fill="#0D131A"/>
<path d="M202.868 83.7731C204.033 82.8739 205.382 83.2569 206.914 84.9221C208.446 86.5539 209.761 88.985 210.86 92.2154C213.591 100.308 213.708 108.267 211.21 116.093C211.11 116.393 210.727 116.61 210.061 116.743C209.395 116.843 209.095 116.743 209.162 116.443C211.193 110.116 211.26 102.939 209.362 94.9129C208.596 91.6825 207.647 89.1349 206.514 87.2699C205.382 85.3716 204.35 84.6723 203.417 85.1718C203.151 85.3383 202.934 85.1885 202.768 84.7222C202.601 84.2893 202.634 83.9729 202.868 83.7731Z" fill="#0D131A"/>
<path d="M199.171 145.816C199.005 145.55 199.354 145.15 200.22 144.617C201.053 144.051 201.536 143.901 201.669 144.168C211.127 159.454 215.34 177.287 214.307 197.669C214.207 199.567 212.759 201.532 209.961 203.563C207.297 205.495 204 207.11 200.07 208.409C190.546 211.539 183.386 211.423 178.59 208.059C175.426 205.828 172.146 201.565 168.749 195.271C165.485 189.243 163.82 184.664 163.754 181.533C163.754 181.234 164.22 180.901 165.152 180.534L166.501 180.385C166.568 183.482 168.116 187.861 171.147 193.522C174.377 199.55 177.624 203.713 180.888 206.011C185.051 208.908 191.328 208.992 199.721 206.261C203.118 205.162 205.982 203.796 208.313 202.165C210.744 200.499 211.993 198.967 212.059 197.569C213.025 178.52 208.729 161.269 199.171 145.816Z" fill="#0D131A"/>
<path d="M171.247 177.487C162.621 184.248 152.331 188.827 140.375 191.225C129.285 193.423 119.378 193.306 110.652 190.875C110.353 190.775 110.303 190.259 110.502 189.326C110.669 188.427 110.902 188.011 111.202 188.077C119.761 190.475 129.335 190.625 139.925 188.527C150.682 186.396 160.44 182.349 169.199 176.388C172.529 174.124 174.377 173.224 174.744 173.691C175.077 174.124 173.911 175.389 171.247 177.487Z" fill="#0D131A"/>
<path d="M147.918 187.578C148.084 187.311 148.85 187.078 150.216 186.879L152.014 187.028C149.417 191.291 146.203 195.004 142.373 198.168C137.977 201.798 133.664 203.88 129.435 204.412L114.449 203.963C110.519 202.997 108.204 201.532 107.505 199.567C107.405 199.267 107.655 198.768 108.254 198.068C108.821 197.336 109.154 197.119 109.253 197.419C109.92 199.284 111.968 200.683 115.398 201.615C119.128 202.647 123.707 202.831 129.135 202.165C132.299 201.765 135.646 200.183 139.176 197.419C142.673 194.688 145.587 191.408 147.918 187.578Z" fill="#0D131A"/>
<path d="M31.6747 23.978C31.9412 23.7782 32.5906 23.7782 33.6229 23.978C35.2215 24.2777 36.6202 24.9937 37.8191 26.126C38.0855 26.3258 38.1022 26.6422 37.869 27.0751C37.6692 27.4748 37.4361 27.5747 37.1697 27.3749C36.4703 26.7754 35.7876 26.3758 35.1216 26.176L34.1724 26.126L34.3723 27.7246L34.672 30.7218C34.7719 35.251 33.2899 41.1789 30.2261 48.5055C27.8283 54.3335 24.7478 60.3613 20.9845 66.5889C9.12875 86.2708 6.51448 103.255 13.1417 117.542C15.6394 122.937 19.2195 127.35 23.8819 130.78C28.0114 133.777 31.9745 135.409 35.771 135.676C36.0707 135.709 36.0207 136.092 35.6211 136.824C35.2548 137.59 34.9051 137.957 34.5721 137.923C30.1428 137.624 25.7135 135.875 21.2843 132.678C16.3555 129.082 12.6089 124.419 10.0446 118.691C3.38402 103.838 6.26471 86.1376 18.6866 65.5898C24.5479 55.8654 28.5276 47.8727 30.6257 41.6118C32.857 34.9846 33.2233 29.6062 31.7247 25.4766C31.425 24.7106 31.4083 24.2111 31.6747 23.978Z" fill="#0D131A"/>
<path d="M57.5511 22.2296C57.7842 22.4627 57.7842 22.829 57.5511 23.3286C57.318 23.8614 57.0848 24.0113 56.8517 23.7782C54.354 21.1805 51.107 19.0991 47.1107 17.5339C43.3474 16.1019 39.9672 15.4691 36.97 15.6356C35.5712 15.7355 34.8219 15.9187 34.722 16.1851C34.6221 16.4182 34.9551 17.1343 35.7211 18.3332C39.3511 24.0612 39.451 32.5201 36.0208 43.7099C34.1559 49.7044 31.2419 57.1642 27.2789 66.0893C21.4176 81.5085 20.9513 95.2626 25.8801 107.351C27.9116 112.347 30.7257 116.576 34.3224 120.04C37.6527 123.27 41.2494 125.452 45.1125 126.584C45.3789 126.65 45.1791 126.983 44.513 127.583C43.847 128.149 43.3641 128.399 43.0644 128.332C32.8404 125.335 25.8302 117.709 22.0337 105.453C18.0706 92.7649 19.0364 79.2439 24.931 64.8904L29.327 54.9496C31.4251 50.0874 33.0069 45.8412 34.0726 42.2112C37.3363 31.2879 36.9533 23.2453 32.9237 18.0834C31.5583 16.3183 30.9255 15.186 31.0254 14.6865C31.1253 14.1203 32.1244 13.7207 34.0227 13.4876C37.5861 13.0214 41.5824 13.5709 46.0117 15.1361C50.7074 16.8012 54.5538 19.1657 57.5511 22.2296Z" fill="#0D131A"/>
<path d="M54.0542 12.5885L55.9025 14.0871C56.1023 14.3202 56.0523 14.8031 55.7526 15.5358C55.4529 16.2351 55.2031 16.4682 55.0033 16.2351L53.9543 14.9863C53.3548 14.3868 52.9052 14.1537 52.6055 14.2869C52.3391 14.4201 52.2392 14.853 52.3058 15.5857L52.7554 18.4331C52.822 18.6995 52.5555 18.8327 51.9561 18.8327C51.3566 18.7994 51.0403 18.6329 51.007 18.3332L50.5074 15.236C50.3742 13.5376 50.6406 12.4219 51.3067 11.8891C51.8728 11.4562 52.7887 11.6893 54.0542 12.5885Z" fill="#0D131A"/>
<path d="M130.684 26.6755C137.844 32.4369 141.607 39.3972 141.974 47.5564C142.007 47.8894 141.574 48.1392 140.675 48.3057C139.776 48.5055 139.326 48.4389 139.326 48.1059C138.993 40.646 135.629 34.2019 129.235 28.7736C121.542 22.2462 110.786 18.7328 96.9649 18.2333C85.1425 17.8003 76.6835 16.4849 71.5882 14.2869C67.4587 12.5218 64.4781 9.54124 62.6464 5.34509C62.2468 4.44591 61.9138 3.96302 61.6473 3.89642C61.3476 3.79651 60.8647 4.12954 60.1987 4.8955C57.9674 7.35991 56.6519 10.3738 56.2523 13.9372C55.8527 17.6005 56.6186 20.4479 58.5502 22.4794C62.4466 26.4757 65.5271 31.188 67.7917 36.6164C69.1904 39.98 70.8889 45.5915 72.887 53.451C75.3181 63.0089 77.999 70.119 80.9297 74.7814C83.2942 78.5446 86.7576 81.9415 91.3201 84.972C91.5199 85.0719 91.3867 85.5548 90.9205 86.4207C90.4876 87.2533 90.1379 87.5863 89.8715 87.4198C84.0102 83.5567 79.7974 79.4604 77.233 75.1311C74.8685 71.1347 72.5873 64.6407 70.3893 55.6489C68.0248 45.8912 66.2598 39.547 65.0942 36.6164C63.2958 31.9873 60.5817 27.7912 56.9517 24.0279C54.354 21.3304 53.5215 17.3507 54.4539 12.0889C55.3531 7.12679 57.1681 3.58004 59.899 1.44866C61.1312 0.482881 61.997 0.0499445 62.4966 0.149853C62.9961 0.249761 63.479 0.94912 63.9452 2.24793C65.9434 7.44316 68.8074 10.8733 72.5374 12.5385C76.7335 14.3701 84.8927 15.5191 97.0149 15.9853C111.268 16.4849 122.492 20.0483 130.684 26.6755Z" fill="#0D131A"/>
<path d="M145.271 29.1732C151.631 34.6349 154.379 40.5461 153.513 46.9069C153.48 47.2067 152.98 47.3399 152.014 47.3066C151.049 47.2733 150.582 47.1068 150.616 46.807C151.348 41.3454 149.184 36.2167 144.122 31.4211C138.294 25.9262 130.184 22.7957 119.794 22.0298C119.461 21.9965 118.495 21.5968 116.897 20.8309C115.265 20.0316 114.599 19.632 114.898 19.632C127.753 19.632 137.877 22.8124 145.271 29.1732Z" fill="#0D131A"/>
<path d="M66.393 157.905C68.1913 150.878 70.7057 145.616 73.936 142.12L110.952 152.91C114.182 165.232 114.499 176.971 111.901 188.127C110.336 194.755 107.888 200.666 104.558 205.861C102.76 208.692 99.0963 210.557 93.568 211.456C87.74 212.422 82.1285 211.839 76.7335 209.708C72.8037 208.176 69.7232 204.429 67.4919 198.468C65.4272 193.04 64.3115 186.529 64.145 178.936C63.9785 171.509 64.7278 164.499 66.393 157.905Z" fill="#7CBEB3"/>
<path d="M74.3357 171.643C74.5355 169.611 76.9833 166.864 81.679 163.4C86.3747 159.937 89.3552 158.688 90.6208 159.654C91.9196 160.619 92.1693 165.881 91.3701 175.439C90.5708 184.997 89.3552 189.842 87.7234 189.976C86.7576 190.042 84.2599 187.378 80.2303 181.983C76.1673 176.521 74.2025 173.075 74.3357 171.643Z" fill="#006359"/>
<path d="M65.4438 160.003C65.6103 174.29 68.824 186.196 75.0849 195.72C81.0794 204.945 88.5725 210.024 97.5643 210.956C93.901 211.889 89.938 212.189 85.6752 211.856C77.1497 211.19 71.405 207.659 68.441 201.265C65.4771 194.904 64.095 186.113 64.2948 174.89L65.4438 160.003Z" fill="#68A198"/>
<path d="M71.7881 147.615C67.4587 155.041 65.4938 165.681 65.8935 179.535C66.3264 193.955 69.357 203.23 74.9851 207.36C78.8149 210.157 83.9436 211.273 90.371 210.707C96.5653 210.141 100.662 208.442 102.66 205.611C107.189 199.184 110.153 191.424 111.552 182.333C112.817 174.14 112.651 166.347 111.052 158.954C110.253 155.258 110.153 153.276 110.752 153.01C111.352 152.743 112.151 154.408 113.15 158.005C115.215 165.498 115.631 173.607 114.399 182.333C113.067 191.824 110.02 199.967 105.257 206.76C102.793 210.257 97.6976 212.305 89.9714 212.905C82.4116 213.471 76.7169 212.355 72.887 209.558C70.1229 207.526 67.8417 203.93 66.0433 198.768C64.3116 193.839 63.2625 188.177 62.8962 181.783C61.997 167.263 64.2949 155.524 69.7899 146.566C71.7215 143.402 73.0536 141.886 73.7862 142.02C74.5522 142.12 73.8861 143.985 71.7881 147.615Z" fill="#0D131A"/>
<path d="M75.5346 171.143C75.468 172.309 77.1831 175.572 80.6799 180.934C84.2433 186.396 86.5245 189.06 87.5236 188.927C88.6226 188.76 89.5218 184.248 90.2211 175.389C90.9205 166.497 90.754 161.685 89.7216 160.952C88.7558 160.286 86.1582 161.535 81.9287 164.699C77.7326 167.863 75.6012 170.011 75.5346 171.143ZM73.2367 170.643C73.3366 168.212 76.1174 165.148 81.579 161.452C86.9408 157.855 90.1545 156.556 91.2202 157.555C92.9853 159.254 93.4848 165.032 92.7188 174.89C91.9196 184.747 90.5042 190.259 88.4727 191.424C87.074 192.257 84.16 189.626 79.7307 183.532C75.3015 177.471 73.1368 173.174 73.2367 170.643Z" fill="#0D131A"/>
<path d="M35.5712 205.961C35.4047 205.461 36.0374 204.612 37.4694 203.413C38.9348 202.214 40.0338 201.665 40.7664 201.765C42.0985 201.931 43.0144 203.38 43.5139 206.111C43.9801 208.642 44.0134 210.091 43.6138 210.457C43.1476 210.89 41.8488 210.623 39.7174 209.658C37.4195 208.625 36.0374 207.393 35.5712 205.961Z" fill="white"/>
<path d="M50.4575 209.708C48.1263 208.642 46.9607 207.576 46.9607 206.511C46.9607 205.578 47.6434 204.446 49.0088 203.114C50.3409 201.782 51.3567 201.282 52.056 201.615C53.155 202.148 54.0542 203.713 54.7535 206.311C55.4196 208.808 55.4529 210.257 54.8535 210.657C54.2207 211.09 52.7554 210.773 50.4575 209.708Z" fill="white"/>
<path d="M58.3002 206.66C58.0671 204.929 58.6999 203.33 60.1985 201.865L62.5464 200.166C63.7786 200.699 64.7443 202.298 65.4437 204.962C66.0764 207.36 66.2263 208.758 65.8933 209.158L61.9469 209.058C59.6157 208.492 58.4002 207.693 58.3002 206.66Z" fill="white"/>
<path d="M77.9322 210.857C77.8656 209.991 78.1653 209.058 78.8313 208.059C79.6306 206.86 80.6464 206.277 81.8786 206.311C83.1108 206.344 84.0599 206.81 84.7259 207.709C85.2588 208.542 85.4919 209.558 85.4253 210.757C85.3587 211.856 84.9757 213.088 84.2764 214.453C83.6103 215.819 83.0775 216.501 82.6778 216.501C82.2449 216.501 81.379 215.785 80.0802 214.353C78.7148 212.855 77.9988 211.689 77.9322 210.857Z" fill="white"/>
<path d="M87.8732 211.956C87.7733 210.324 88.2229 208.975 89.222 207.909C90.0213 207.01 90.8205 206.56 91.6198 206.56C92.2193 206.56 92.9186 207.01 93.7179 207.909C94.5171 208.842 95.0167 209.774 95.2165 210.707C95.3497 211.306 95.1999 212.339 94.7669 213.804C94.334 215.369 93.8178 216.302 93.2183 216.601C92.6189 216.934 91.6198 216.568 90.2211 215.502C88.7225 214.403 87.9398 213.221 87.8732 211.956Z" fill="white"/>
<path d="M97.7141 211.656C96.7816 210.657 96.8648 209.141 97.9638 207.11C99.0628 205.079 100.145 204.213 101.211 204.512C102.21 204.845 103.176 206.244 104.108 208.709C104.974 211.073 105.191 212.588 104.758 213.254C104.358 213.854 103.326 213.987 101.66 213.654C99.962 213.288 98.6465 212.622 97.7141 211.656Z" fill="white"/>
<path d="M114.699 202.564C114.565 201.865 115.215 200.999 116.647 199.967C118.046 198.967 119.061 198.601 119.694 198.868C120.793 199.367 121.509 200.766 121.842 203.064C122.175 205.295 122.042 206.544 121.442 206.81C120.843 207.077 119.661 206.76 117.896 205.861C115.997 204.862 114.932 203.763 114.699 202.564Z" fill="white"/>
<path d="M128.236 205.961C126.205 205.262 125.023 204.462 124.69 203.563C124.39 202.797 124.906 201.698 126.238 200.266C127.57 198.868 128.536 198.301 129.135 198.568C130.301 199.067 131.117 200.35 131.583 202.414C131.983 204.213 132.016 205.445 131.683 206.111L128.236 205.961Z" fill="white"/>
<path d="M133.681 201.815C133.282 201.016 133.848 199.867 135.38 198.368C136.878 196.903 137.961 196.303 138.627 196.57C139.393 196.903 140.142 198.118 140.875 200.216C141.574 202.281 141.757 203.547 141.424 204.013L137.628 203.913C135.43 203.38 134.114 202.681 133.681 201.815Z" fill="white"/>
<path d="M190.329 209.508C189.863 209.042 190.229 207.843 191.428 205.911C192.627 203.946 193.643 202.98 194.475 203.014C195.574 203.08 196.807 204.279 198.172 206.61C199.471 208.808 199.97 210.107 199.671 210.507C199.304 210.973 197.889 211.123 195.424 210.956C192.86 210.79 191.162 210.307 190.329 209.508Z" fill="white"/>
<path d="M201.219 206.76C200.753 206.261 201.053 205.012 202.118 203.014C203.151 201.016 204.05 200.05 204.816 200.116C205.549 200.183 206.581 201.349 207.913 203.613C209.179 205.844 209.695 207.21 209.462 207.709C209.162 208.209 207.946 208.392 205.815 208.259C203.55 208.126 202.018 207.626 201.219 206.76Z" fill="white"/>
<path d="M209.562 202.165C209.029 201.498 209.195 200.233 210.061 198.368C210.894 196.57 211.56 195.704 212.059 195.77C212.925 195.87 213.991 196.969 215.256 199.067C216.489 201.132 216.955 202.431 216.655 202.964C216.422 203.53 215.373 203.746 213.508 203.613C211.543 203.48 210.228 202.997 209.562 202.165Z" fill="white"/>
<path d="M37.7191 203.114L39.9171 205.861C41.3824 207.893 42.1984 209.474 42.3649 210.607L38.8681 208.808C36.5702 207.51 35.4878 206.577 35.6211 206.011C35.7543 205.445 36.1539 204.795 36.82 204.063L37.7191 203.114Z" fill="#DBDCDC"/>
<path d="M48.9588 203.313L50.8571 205.661C52.1892 207.526 53.0717 209.208 53.5047 210.707C49.4084 209.275 47.3103 207.859 47.2104 206.461C47.1438 205.595 47.4102 204.812 48.0097 204.113L48.9588 203.313Z" fill="#DBDCDC"/>
<path d="M64.6445 209.508C62.5132 209.042 60.9812 208.575 60.0487 208.109C58.9831 207.61 58.3836 206.993 58.2504 206.261C58.1172 205.628 58.2504 204.895 58.65 204.063L59.2994 203.014C60.1986 203.447 61.2976 204.512 62.5964 206.211C63.6954 207.676 64.3781 208.775 64.6445 209.508Z" fill="#DBDCDC"/>
<path d="M79.9304 207.36L80.43 210.407C80.8629 212.705 81.3957 214.503 82.0285 215.802L80.1302 214.154C78.898 212.788 78.3152 211.389 78.3818 209.957C78.4484 208.958 78.6982 208.226 79.1311 207.759C79.4642 207.393 79.7306 207.26 79.9304 207.36Z" fill="#DBDCDC"/>
<path d="M88.9223 208.958L90.8206 212.055L93.3183 216.651C92.3858 216.351 91.4533 215.919 90.5208 215.352C88.6559 214.22 87.79 213.005 87.9232 211.706C88.0564 210.44 88.2563 209.608 88.5227 209.208L88.9223 208.958Z" fill="#DBDCDC"/>
<path d="M97.964 207.16L100.312 209.408C101.977 211.106 102.993 212.522 103.359 213.654L100.262 212.655C98.1971 211.856 97.198 211.073 97.2646 210.307L97.6642 208.059L97.964 207.16Z" fill="#DBDCDC"/>
<path d="M116.347 200.316C116.647 200.516 117.28 201.265 118.245 202.564C119.444 204.196 120.11 205.511 120.244 206.511L116.647 204.812C115.714 204.246 115.231 203.53 115.198 202.664C115.165 202.031 115.348 201.449 115.748 200.916L116.347 200.316Z" fill="#DBDCDC"/>
<path d="M125.689 200.616L127.337 201.765C128.603 202.931 129.702 204.462 130.634 206.361L127.936 205.611C126.105 204.945 125.089 204.179 124.889 203.313C124.689 202.448 124.756 201.748 125.089 201.215L125.689 200.616Z" fill="#DBDCDC"/>
<path d="M135.08 198.618L137.128 200.116C138.593 201.415 139.592 202.764 140.125 204.163L137.278 203.763C135.28 203.264 134.097 202.514 133.731 201.515C133.531 201.049 133.614 200.466 133.981 199.767C134.314 199.101 134.68 198.718 135.08 198.618Z" fill="#DBDCDC"/>
<path d="M191.628 205.661C194.426 206.993 196.673 208.659 198.372 210.657L194.625 210.707C192.128 210.573 190.829 210.074 190.729 209.208C190.629 208.342 190.746 207.493 191.079 206.66L191.628 205.661Z" fill="#DBDCDC"/>
<path d="M202.068 203.513C202.635 203.68 203.584 204.179 204.916 205.012C206.714 206.111 207.83 207.16 208.263 208.159L204.766 208.009C202.401 207.743 201.203 207.227 201.169 206.461C201.103 205.728 201.236 205.012 201.569 204.313L202.068 203.513Z" fill="#DBDCDC"/>
<path d="M209.961 198.618L212.159 199.967C213.791 201.099 214.923 202.298 215.556 203.563L212.958 203.363C211.16 203.097 210.044 202.647 209.612 202.015C209.179 201.382 209.112 200.616 209.412 199.717L209.961 198.618Z" fill="#DBDCDC"/>
<path d="M189.38 209.807C189.114 208.842 189.646 207.293 190.979 205.162C192.311 202.997 193.46 201.898 194.425 201.865C195.391 201.831 196.74 203.097 198.472 205.661C200.17 208.159 200.903 209.857 200.67 210.757C200.47 211.556 198.605 211.806 195.075 211.506C191.545 211.206 189.647 210.64 189.38 209.807ZM192.627 205.911C191.795 207.243 191.462 208.209 191.628 208.808C191.961 209.275 193.143 209.658 195.175 209.957C197.14 210.257 198.205 210.24 198.372 209.907C198.538 209.541 198.089 208.475 197.023 206.71C195.891 204.912 195.008 203.996 194.376 203.963C194.009 203.93 193.426 204.579 192.627 205.911Z" fill="#0D131A"/>
<path d="M208.413 207.31C208.612 207.01 208.18 205.944 207.114 204.113C206.081 202.281 205.299 201.315 204.766 201.215C204.366 201.182 203.8 201.881 203.068 203.313C202.302 204.745 201.985 205.745 202.118 206.311C202.218 206.81 203.267 207.177 205.266 207.41L208.413 207.31ZM205.016 198.967C206.081 199.101 207.347 200.583 208.812 203.413C210.211 206.111 210.761 207.776 210.461 208.409C210.161 209.075 208.579 209.275 205.715 209.008C202.784 208.709 201.019 208.142 200.42 207.31C199.887 206.577 200.237 204.995 201.469 202.564C202.701 200.033 203.883 198.834 205.016 198.967Z" fill="#0D131A"/>
<path d="M210.711 198.917C210.211 200.05 210.111 200.982 210.411 201.715C210.544 202.115 211.427 202.431 213.058 202.664L215.706 202.514C215.906 202.181 215.556 201.215 214.657 199.617C213.758 197.918 212.975 197.086 212.309 197.119C211.743 197.186 211.21 197.785 210.711 198.917ZM209.612 197.669C210.644 195.77 211.527 194.821 212.259 194.821C213.491 194.821 214.79 196.203 216.156 198.967C217.488 201.632 217.954 203.297 217.554 203.963L213.108 204.113C210.378 203.78 208.896 203.313 208.662 202.714C208.163 201.415 208.479 199.733 209.612 197.669Z" fill="#0D131A"/>
<path d="M93.2183 208.609C92.6521 207.943 92.1026 207.643 91.5698 207.709C90.8038 207.743 90.1211 208.226 89.5217 209.158C88.9222 210.057 88.6724 210.923 88.7724 211.756C88.8723 212.522 89.5217 213.388 90.7206 214.353C91.8862 215.253 92.6688 215.619 93.0684 215.452C93.3348 215.352 93.6179 214.87 93.9176 214.004C94.3173 213.005 94.4505 212.072 94.3173 211.206C94.2174 210.174 93.851 209.308 93.2183 208.609ZM88.023 207.959C89.1553 206.294 90.3875 205.511 91.7196 205.611C92.6854 205.678 93.5513 206.178 94.3173 207.11C95.0832 208.042 95.5661 209.191 95.7659 210.557C95.9991 211.889 95.8991 213.338 95.4662 214.903C95.0333 216.435 94.5004 217.317 93.8677 217.55C93.0684 217.85 91.7863 217.417 90.0212 216.252C88.123 214.953 87.0406 213.537 86.7742 212.006C86.5744 210.84 86.9907 209.491 88.023 207.959Z" fill="#0D131A"/>
<path d="M83.6771 208.509C83.2442 207.909 82.7613 207.576 82.2285 207.51C81.5957 207.443 80.9297 207.709 80.2303 208.309C79.4976 208.908 79.1313 209.558 79.1313 210.257C79.1646 211.123 79.6475 212.155 80.58 213.354C81.4125 214.487 82.0287 215.053 82.4283 215.053C82.7946 215.019 83.1943 214.537 83.6272 213.604C84.0934 212.672 84.3432 211.739 84.3765 210.807C84.4098 209.941 84.1767 209.175 83.6771 208.509ZM78.5319 206.86C79.7641 205.761 81.0462 205.295 82.3783 205.462C83.4773 205.595 84.4265 206.194 85.2257 207.26C85.9917 208.326 86.3414 209.508 86.2748 210.807C86.2415 211.872 85.8252 213.238 85.0259 214.903C84.16 216.635 83.4107 217.534 82.778 217.6C82.0453 217.7 80.8964 216.851 79.3311 215.053C77.666 213.188 76.8001 211.606 76.7335 210.307C76.6669 209.075 77.2664 207.926 78.5319 206.86Z" fill="#0D131A"/>
<path d="M102.909 207.51C102.144 206.444 101.444 205.911 100.811 205.911C100.179 205.844 99.5459 206.311 98.9131 207.31C98.2471 208.342 97.9973 209.308 98.1638 210.207C98.3303 211.006 99.2628 211.706 100.961 212.305C102.593 212.838 103.542 212.988 103.809 212.755C104.042 212.555 104.092 211.856 103.959 210.657C103.825 209.358 103.476 208.309 102.909 207.51ZM101.161 203.713C102.793 203.946 104.075 205.661 105.008 208.858C105.873 211.856 106.04 213.654 105.507 214.253L100.811 213.954C98.014 213.188 96.4987 212.189 96.2656 210.956C95.9991 209.591 96.3821 208.026 97.4145 206.261C98.5468 204.363 99.7957 203.513 101.161 203.713Z" fill="#0D131A"/>
<path d="M66.343 204.562C67.1756 207.759 67.2588 209.558 66.5928 209.957C65.7269 210.457 64.0284 210.357 61.4974 209.658C58.8665 208.925 57.4012 208.042 57.1015 207.01C56.7018 205.778 57.1681 204.196 58.5002 202.264C59.8656 200.266 61.231 199.317 62.5964 199.417C64.195 199.517 65.4438 201.232 66.343 204.562ZM59.1995 206.211C59.2995 206.91 60.2153 207.543 61.947 208.109C63.6122 208.642 64.6279 208.742 64.9942 208.409C65.2606 208.176 65.1108 207.06 64.5446 205.062C63.9452 202.93 63.2458 201.798 62.4466 201.665C61.7805 201.565 61.0478 202.015 60.2486 203.014C59.3494 204.079 58.9997 205.145 59.1995 206.211Z" fill="#0D131A"/>
<path d="M48.1597 206.511C48.1597 207.276 49.0755 208.076 50.9072 208.908C52.7055 209.708 53.7379 209.924 54.0043 209.558C54.304 209.191 54.2208 208.109 53.7545 206.311C53.255 204.379 52.6056 203.33 51.8063 203.164C51.0404 202.997 50.2411 203.347 49.4085 204.213C48.6426 205.012 48.2263 205.745 48.1597 206.411V206.511ZM48.1097 202.564C49.5417 201.232 50.8072 200.666 51.9062 200.866C53.5714 201.165 54.7703 202.914 55.5029 206.111C56.2023 209.141 56.2189 210.94 55.5529 211.506C54.9201 212.105 53.1551 211.772 50.2577 210.507C47.2272 209.241 45.7785 207.809 45.9117 206.211C46.0116 205.079 46.7443 203.863 48.1097 202.564Z" fill="#0D131A"/>
<path d="M134.68 201.115C134.78 201.782 135.746 202.414 137.577 203.014C139.343 203.58 140.342 203.713 140.575 203.413C140.808 203.114 140.658 202.081 140.125 200.316C139.559 198.451 138.943 197.485 138.277 197.419C137.711 197.352 136.945 197.785 135.979 198.718C135.013 199.683 134.58 200.483 134.68 201.115ZM134.73 197.769C136.462 196.103 137.827 195.437 138.826 195.77C140.092 196.237 141.124 197.819 141.923 200.516C142.689 203.08 142.823 204.596 142.323 205.062C141.824 205.495 140.192 205.345 137.428 204.612C134.597 203.846 133.015 202.997 132.682 202.065C132.282 200.899 132.965 199.467 134.73 197.769Z" fill="#0D131A"/>
<path d="M128.336 205.112C129.801 205.611 130.651 205.745 130.884 205.511C131.117 205.278 131.067 204.329 130.734 202.664C130.368 200.899 129.851 199.933 129.185 199.767C128.519 199.6 127.737 199.967 126.837 200.866C125.938 201.798 125.572 202.614 125.739 203.313C125.938 204.013 126.804 204.612 128.336 205.112ZM129.585 197.918C130.684 198.185 131.6 199.634 132.332 202.264C132.999 204.829 133.065 206.511 132.532 207.31C132.199 207.809 130.717 207.593 128.086 206.66C125.356 205.695 123.89 204.679 123.69 203.613C123.457 202.548 124.09 201.265 125.589 199.767C127.121 198.235 128.453 197.619 129.585 197.918Z" fill="#0D131A"/>
<path d="M118.245 205.012C119.711 205.811 120.593 206.111 120.893 205.911C121.159 205.745 121.193 204.779 120.993 203.014C120.76 201.149 120.293 200.1 119.594 199.867C118.928 199.634 118.129 199.867 117.196 200.566C116.297 201.232 115.864 201.898 115.897 202.564C115.931 203.363 116.713 204.179 118.245 205.012ZM120.144 198.018C121.542 198.318 122.375 199.967 122.641 202.964C122.874 205.795 122.708 207.41 122.142 207.809C121.509 208.209 119.944 207.743 117.446 206.411C114.915 205.012 113.6 203.796 113.5 202.764C113.4 201.798 114.116 200.699 115.648 199.467C117.28 198.202 118.778 197.719 120.144 198.018Z" fill="#0D131A"/>
<path d="M39.5176 208.159C41.2827 209.058 42.2984 209.341 42.5648 209.008C42.8645 208.675 42.8146 207.626 42.415 205.861C41.982 204.029 41.4658 203.03 40.8664 202.864C40.167 202.631 39.3178 202.897 38.3187 203.663C37.3196 204.429 36.8201 205.178 36.8201 205.911C36.8534 206.477 37.7526 207.227 39.5176 208.159ZM41.316 200.616C42.748 200.916 43.7637 202.664 44.3632 205.861C44.9293 208.925 44.9127 210.64 44.3132 211.006C43.2808 211.706 41.4159 211.339 38.7183 209.907C36.0541 208.509 34.6721 207.26 34.5721 206.161C34.4389 204.895 35.2216 203.58 36.92 202.214C38.5851 200.882 40.0505 200.349 41.316 200.616Z" fill="#0D131A"/>
</svg>
