<svg width="175" height="202" viewBox="0 0 175 202" fill="none" xmlns="http://www.w3.org/2000/svg">
<path d="M159.759 132.032C159.159 142.293 155.644 150.905 149.215 157.868C143.551 163.997 136.239 168.312 127.277 170.81C118.982 173.142 110.82 173.559 102.791 172.059C94.6957 170.56 88.6658 167.462 84.7014 162.765C85.401 161.132 86.1506 158.784 86.9501 155.719C88.1161 151.255 88.5992 147.74 88.3993 145.175C92.2971 149.406 97.1277 152.654 102.891 154.919C108.988 157.318 115.134 158.201 121.33 157.568C136.488 156.035 147.915 146.541 155.611 129.084L156.51 130.583C157.377 131.549 158.459 132.032 159.759 132.032Z" fill="#EF8200"/>
<path d="M84.7016 162.915C93.5299 170.843 104.307 174.192 117.033 172.959C128.66 171.826 139.304 167.296 148.965 159.367C139.137 170.794 126.644 176.673 111.486 177.007C105.456 177.107 99.7763 176.257 94.446 174.458C89.4489 172.726 85.7177 170.494 83.2524 167.762L84.7016 162.915Z" fill="#DDD583"/>
<path d="M86.2006 158.017C93.0633 165.313 102.791 168.878 115.384 168.711C127.277 168.545 138.271 165.23 148.365 158.767C140.036 167.096 129.576 171.793 116.983 172.859C103.99 173.958 93.2299 170.644 84.7014 162.915L86.2006 158.017Z" fill="#CF7100"/>
<path d="M71.0094 44.1325C70.6096 46.2646 69.4769 50.2957 67.6113 56.2256C65.9123 61.6558 65.0295 64.8373 64.9628 65.7701C64.8629 67.0694 65.196 70.1843 65.9623 75.1148C66.5619 79.1458 67.1449 82.5939 67.7113 85.4589C70.5763 100.484 73.7911 110.861 77.3557 116.591C81.5867 123.354 84.4517 128.601 85.9508 132.332C88.7159 139.228 89.4155 145.508 88.0496 151.171L84.2018 164.614C83.2024 167.878 82.6694 170.577 82.6027 172.709L85.5011 178.905C87.2334 183.303 87.6832 186.218 86.8503 187.65C85.6843 189.583 84.2685 191.165 82.6027 192.398C80.5706 193.897 78.3219 194.763 75.8566 194.996C72.9583 195.263 69.8933 194.796 66.6619 193.597C63.1639 192.331 61.3982 190.815 61.3649 189.05L61.5148 181.154C61.4815 177.356 61.0817 174.608 60.3155 172.909L57.1673 169.611C54.9685 167.012 53.636 164.797 53.1696 162.965L45.6239 161.615L43.2752 163.364C41.6428 164.73 40.7433 165.93 40.5768 166.962L42.2258 170.26C43.2586 172.659 43.5584 174.258 43.1253 175.058C42.5256 176.157 39.8272 177.573 35.0299 179.305C29.8329 181.171 25.4021 182.104 21.7375 182.104C17.7398 182.104 14.0086 180.938 10.5439 178.606C7.04592 176.274 6.44626 174.475 8.74495 173.209L14.9914 169.711C12.2929 167.945 10.4107 165.43 9.3446 162.165C7.27912 155.669 10.394 148.739 18.6893 141.377C17.0235 138.645 15.7909 134.031 14.9914 127.535C14.0253 120.072 14.1752 113.126 15.4411 106.697L12.3429 109.995C10.7771 111.527 9.59446 112.177 8.79492 111.944C8.22857 111.777 7.77883 110.911 7.44569 109.345L7.14586 106.997C3.64786 108.163 1.7656 108.296 1.49909 107.396C1.19926 106.364 1.1826 105.364 1.44911 104.398C1.91551 102.732 3.19811 100.783 5.29692 98.5514C6.59617 95.6197 8.4118 92.3383 10.7438 88.707C15.4078 81.5111 20.355 76.2308 25.5853 72.8661C23.3533 72.433 21.571 71.6501 20.2384 70.5174C17.8731 68.5519 14.9414 65.0705 11.4434 60.0734C6.57952 53.2107 4.19754 47.5306 4.29749 43.0331C4.3308 40.7678 5.31357 38.2359 7.2458 35.4375C8.97815 32.839 10.344 31.4731 11.3435 31.3398L16.6904 17.7976C16.4572 17.3645 16.3073 16.8481 16.2407 16.2484C16.0741 15.0824 16.3573 14.0997 17.0902 13.3001C20.1551 9.9687 23.1534 7.50344 26.085 5.90435C32.8812 2.17315 40.81 0.973839 49.8714 2.30641C56.4344 3.23921 62.0145 7.91987 66.6119 16.3484C71.4091 25.1767 72.875 34.438 71.0094 44.1325Z" fill="#EF8200"/>
<path d="M4.44727 104.498C6.61269 102.899 8.32838 102.033 9.59432 101.899C10.5938 101.8 10.9935 102.099 10.7936 102.799C10.5604 103.465 9.81087 104.048 8.54492 104.548L5.54664 104.898L4.44727 104.498Z" fill="#CF7100"/>
<path d="M8.64502 112.244C11.1769 108.246 13.6588 104.881 16.0908 102.149L15.741 106.297C11.8099 110.361 9.44456 112.344 8.64502 112.244Z" fill="#CF7100"/>
<path d="M32.7813 71.8667C37.5119 71.0338 41.2431 69.9678 43.9749 68.6685L46.8232 68.6185C46.9898 69.3848 46.4901 70.5341 45.3241 72.0666C42.2925 76.1642 39.0277 78.1964 35.5297 78.1631C32.8646 78.1298 30.8324 77.6301 29.4332 76.6639C28.2672 75.8644 27.2844 74.5485 26.4849 72.7162L32.7813 71.8667Z" fill="#CF7100"/>
<path d="M54.0689 165.263C50.2378 158.867 49.3383 152.621 51.3705 146.524C51.004 150.289 52.5031 153.587 55.8679 156.418C58.9661 158.984 62.8972 160.616 67.6612 161.316C72.4584 162.048 76.6893 161.565 80.3539 159.866C84.185 158.101 86.5837 155.286 87.5498 151.421L86.5004 156.168L84.6015 163.714C84.1351 165.047 83.702 166.762 83.3022 168.861C82.8691 170.993 82.6692 172.376 82.7026 173.009C82.7692 173.908 83.9185 176.973 86.1506 182.204C84.1517 178.672 79.7876 177.057 73.0581 177.356C66.262 177.656 62.3142 179.788 61.2148 183.753C61.2148 177.623 60.965 174.042 60.4653 173.009C58.1333 171.043 56.0012 168.461 54.0689 165.263Z" fill="#CF7100"/>
<path d="M22.1372 161.615C24.2027 160.316 25.352 158.5 25.5852 156.168C25.8184 153.903 25.1188 151.554 23.4864 149.122C26.7179 153.22 31.282 156.468 37.1786 158.867C40.4434 160.166 43.3751 160.999 45.9736 161.366C44.7077 161.865 43.4251 162.965 42.1258 164.664L40.5267 167.012C41.3263 168.078 41.9426 169.378 42.3757 170.91C42.7754 172.343 42.942 173.625 42.8754 174.758C42.8087 175.757 41.5428 176.773 39.0775 177.806C37.5451 178.472 34.3636 179.555 29.533 181.054L23.1366 182.104L19.2888 181.954C22.7202 181.054 23.9528 179.488 22.9867 177.256C22.1206 175.191 19.5387 172.842 15.2412 170.21C13.0091 168.845 11.2601 166.479 9.99416 163.115L8.74487 158.467C10.4772 160.899 12.6926 162.365 15.3911 162.865C17.8563 163.331 20.105 162.915 22.1372 161.615Z" fill="#CF7100"/>
<path d="M37.2787 80.062C40.1105 83.7599 42.7589 88.2906 45.2242 93.6542C51.987 108.179 54.902 122.987 53.9692 138.079L51.3207 146.074C49.9881 152.337 50.4379 157.751 52.6699 162.315C47.3397 162.115 41.7762 160.716 35.9795 158.117C24.4194 152.887 17.5733 144.242 15.4412 132.182C13.7422 122.654 14.1753 111.894 16.7405 99.9006C18.2063 93.2045 20.1385 86.8248 22.5372 80.7616C23.3367 79.7955 24.3195 78.8127 25.4855 77.8133C27.8175 75.881 29.883 74.9482 31.6819 75.0149C32.8812 75.0482 34.7469 76.7305 37.2787 80.062Z" fill="#FFF697"/>
<path d="M36.2292 78.1131L31.7818 77.8633C30.5824 77.5301 29.4831 76.8638 28.4836 75.8644L29.7329 75.3647L32.2815 75.4147C33.4808 75.8811 34.7967 76.7805 36.2292 78.1131Z" fill="#DDD583"/>
<path d="M33.4807 144.625C40.5766 146.091 46.7064 145.624 51.8702 143.226C51.1706 143.726 50.7208 146.058 50.5209 150.222C50.2877 155.286 51.004 159.35 52.6697 162.415C47.406 162.748 41.6094 161.282 35.2796 158.017C25.4186 152.954 18.8724 144.592 15.6409 132.932C19.4054 139.062 25.352 142.959 33.4807 144.625Z" fill="#DDD583"/>
<path d="M9.69434 47.2807L12.043 49.3295C13.9752 50.8287 15.8908 51.9614 17.7897 52.7276L20.2383 53.3272C17.7731 54.0602 15.6576 55.2428 13.8919 56.8752C12.1263 53.9436 10.7271 50.7454 9.69434 47.2807Z" fill="#922F00"/>
<path d="M20.2385 53.3273L36.1794 54.8764C43.0421 55.3095 47.3563 55.4261 49.122 55.2262C47.9226 57.7248 44.4246 60.3566 38.628 63.1217C32.2316 66.2199 26.7847 67.3026 22.2873 66.3698C21.5877 66.2032 20.4883 65.3204 18.9892 63.7213C17.1569 61.8224 15.4579 59.5404 13.8921 56.8752C15.6577 55.2428 17.7732 54.0602 20.2385 53.3273Z" fill="#ED8599"/>
<path d="M14.1917 56.9752C13.9585 56.6087 14.908 55.8758 17.0401 54.7764L20.2882 53.2773L38.7777 54.8264L49.1218 55.2262C47.8891 56.9585 46.0069 58.6409 43.475 60.2733C42.2423 61.1061 41.1097 61.7558 40.0769 62.2222C37.545 59.9901 33.464 58.2744 27.8339 57.0751C22.1039 55.8425 17.5565 55.8092 14.1917 56.9752Z" fill="#CE7486"/>
<path d="M50.4711 24.7936C48.8387 28.2916 47.7893 31.8895 47.3229 35.5874C46.7899 39.6184 47.0231 43.3496 48.0225 46.781C46.1569 46.6811 45.1408 46.4479 44.9743 46.0814C44.1081 43.816 44.208 40.318 45.2741 35.5874C46.4068 30.5236 48.1391 26.9257 50.4711 24.7936Z" fill="white"/>
<path d="M54.7186 23.0945C57.7502 23.3611 59.3159 26.8591 59.4159 33.5885C59.5158 39.1187 59.0827 43.0331 58.1166 45.3318C57.8501 45.9648 56.5508 46.4145 54.2188 46.6811C52.22 46.8809 50.1545 46.9143 48.0224 46.781C47.023 43.3496 46.7898 39.6184 47.3228 35.5874C47.7892 31.8895 48.8386 28.2916 50.471 24.7936C51.8036 23.5276 53.2194 22.9613 54.7186 23.0945Z" fill="#0D131A"/>
<path d="M11.4434 31.2399C12.0763 28.5081 12.8759 25.843 13.842 23.2444C15.7742 18.0141 17.5898 15.7487 19.2889 16.4483C20.8546 17.1146 20.7714 20.9124 19.039 27.8418C17.2734 34.7712 15.7076 38.0193 14.3417 37.5862C13.3756 37.2531 12.6094 36.1038 12.043 34.1382L11.4434 31.2399Z" fill="#0D131A"/>
<path d="M7.64551 45.5817C8.01197 46.4145 9.44448 47.5639 11.9431 49.0297C10.6438 50.229 9.72765 50.7454 9.19462 50.5788C8.69491 50.4122 8.17854 48.7465 7.64551 45.5817Z" fill="white"/>
<path d="M14.0918 57.1751L15.2911 56.8752L16.6903 57.0252C16.8902 57.3583 16.707 58.3577 16.1406 60.0234L14.0918 57.1751Z" fill="white"/>
<path d="M31.4819 65.8201L31.8317 64.2211C32.1316 63.155 32.4647 62.5887 32.8312 62.522C33.4308 62.4554 34.1138 63.0884 34.88 64.4209L31.4819 65.8201Z" fill="white"/>
<path d="M32.6313 54.4766L38.7279 54.9264C36.9289 57.0918 35.6796 58.1745 34.98 58.1745C34.2471 58.1745 33.4642 56.9419 32.6313 54.4766Z" fill="white"/>
<path d="M18.0896 179.405C18.4894 178.839 19.2056 178.256 20.2384 177.656L21.6376 176.907C22.7369 177.107 23.6198 177.939 24.286 179.405L24.9357 181.604C23.8696 182.603 21.8874 183.336 18.9891 183.803L14.4916 183.953C14.2918 183.753 14.475 183.336 15.0413 182.703L15.8908 181.754L10.5939 182.503L7.64556 182.204C7.44567 182.004 7.69553 181.521 8.39513 180.754L9.4945 179.705L5.54676 180.055C2.8483 180.155 1.43244 179.905 1.29918 179.305C1.13261 178.739 2.24864 177.556 4.64727 175.757C7.11253 173.925 8.72827 173.275 9.4945 173.808C10.3274 174.341 10.977 175.557 11.4434 177.456L12.5428 176.357C13.4089 175.624 14.2584 175.291 15.0913 175.358C15.9242 175.424 16.6737 176.124 17.34 177.456L18.0896 179.405Z" fill="white"/>
<path d="M148.165 86.3084L148.715 88.4072C148.815 89.4067 148.698 90.2895 148.365 91.0557C148.132 91.6554 148.099 92.3217 148.265 93.0546C148.432 93.8541 148.798 94.587 149.365 95.2533L149.764 93.6043L153.013 96.8524L152.963 99.6008L153.912 101.3C154.279 101.933 154.495 103.016 154.562 104.548L157.31 106.247L155.411 109.445C155.045 110.045 154.845 111.011 154.812 112.344C154.778 113.01 154.795 113.61 154.862 114.143L159.309 111.444L159.409 112.443V113.993C159.042 115.991 159.109 117.274 159.609 117.84C160.741 119.173 161.424 120.239 161.658 121.039C161.957 122.071 161.774 123.271 161.108 124.637C160.408 126.069 160.042 127.568 160.009 129.134C160.009 130.5 160.225 131.399 160.658 131.832L158.41 131.683C157.543 131.283 156.66 130.467 155.761 129.234C154.961 128.068 153.529 127.218 151.463 126.685L147.566 125.986C146.733 125.819 145.817 125.02 144.817 123.587C143.718 122.021 143.285 120.572 143.518 119.24C143.685 118.207 144.201 116.824 145.067 115.092C145.8 113.526 146.166 112.527 146.166 112.094C146.133 111.661 145.767 110.794 145.067 109.495C144.368 108.263 144.018 107.396 144.018 106.897C144.018 106.43 144.368 105.348 145.067 103.649C145.767 102.016 146.083 101.017 146.017 100.65L145.367 98.7513C145 97.8185 144.817 97.0856 144.817 96.5526C144.817 96.0196 145.084 95.2866 145.617 94.3538L146.466 92.6048C146.533 91.7054 146.383 90.5227 146.017 89.0569C145.484 86.7915 146.067 84.8426 147.766 83.2102L147.816 84.4095C147.849 85.309 147.965 85.942 148.165 86.3084Z" fill="#EFE908"/>
<path d="M163.706 88.1573C164.706 88.9236 165.239 89.9063 165.305 91.1056C165.405 93.1378 165.222 95.3865 164.756 97.8518L166.455 96.4026C167.687 95.4698 168.454 95.1034 168.753 95.3032C169.253 95.6697 169.037 98.6846 168.104 104.348L169.003 103.648C169.636 103.215 170.019 103.099 170.153 103.299C170.352 103.599 170.236 106.18 169.803 111.044L173.85 104.398L173.801 106.397C173.767 107.829 173.784 108.696 173.85 108.995L173.95 111.144L173.501 113.793C172.734 115.925 172.468 117.274 172.701 117.84C172.834 118.207 172.801 118.707 172.601 119.34C172.368 120.072 172.002 120.655 171.502 121.089L169.253 122.987C168.287 123.887 167.737 124.62 167.604 125.186L166.805 126.835L164.806 128.434L160.608 131.782C160.208 131.316 160.008 130.417 160.008 129.084C160.042 127.518 160.408 126.036 161.108 124.636C161.774 123.271 161.957 122.071 161.657 121.039C161.424 120.239 160.741 119.173 159.609 117.84C159.109 117.274 159.042 115.991 159.409 113.993V112.443L159.309 111.444L154.861 114.142C154.795 113.609 154.778 113.01 154.811 112.344C154.845 111.011 155.045 110.045 155.411 109.445L157.31 106.247L154.561 104.548C154.495 103.016 154.278 101.933 153.912 101.3L152.962 99.6008L153.012 96.8524L149.814 93.6542C151.147 91.5554 151.846 90.1728 151.913 89.5066L151.763 86.5582C151.696 84.9592 151.996 83.6766 152.663 82.7104C153.296 81.7776 154.495 80.4118 156.261 78.6128L159.009 75.7644C159.342 75.2647 159.692 74.232 160.058 72.6662C160.458 70.9005 160.608 69.518 160.508 68.5186L161.757 71.267C162.59 73.3991 162.907 75.2314 162.707 76.7638L161.458 82.3107C160.958 84.3428 160.925 85.6588 161.358 86.2584L163.706 88.1573Z" fill="#E50020"/>
<path d="M10.8936 176.007L11.3434 177.606L9.24459 179.705L4.8471 179.955L1.64893 179.705C2.08201 179.172 3.74773 178.389 6.64607 177.356C8.1119 176.857 9.52776 176.407 10.8936 176.007Z" fill="#DBDCDC"/>
<path d="M8.09521 182.703C11.7931 180.038 14.858 178.389 17.29 177.756L17.7397 179.405L15.9407 181.804L8.09521 182.703Z" fill="#DBDCDC"/>
<path d="M14.8416 184.352C15.9076 183.619 17.0903 182.853 18.3895 182.054C20.9547 180.455 22.7704 179.505 23.8364 179.205L24.4361 180.305C24.7692 181.138 24.7692 181.754 24.4361 182.154C23.903 182.853 22.2873 183.403 19.5888 183.803L14.8416 184.352Z" fill="#DBDCDC"/>
<path d="M149.564 93.7042L150.114 92.8547C150.514 93.7208 151.513 94.8369 153.112 96.2028C153.512 96.5359 153.662 97.2188 153.562 98.2516C153.462 99.2843 153.529 99.9006 153.762 100.101C154.295 100.567 154.628 101.083 154.761 101.65L154.861 103.449C154.861 104.248 155.494 104.848 156.76 105.248C158.393 105.747 158.459 106.863 156.96 108.596C156.361 109.229 155.927 110.028 155.661 110.994C155.461 111.794 155.411 112.493 155.511 113.093L158.359 111.394C159.192 110.728 159.659 110.411 159.759 110.445C159.925 110.478 160.042 111.028 160.108 112.094L159.809 115.192C159.675 116.358 159.892 117.224 160.458 117.79C161.558 118.89 162.207 119.956 162.407 120.989C162.707 122.288 162.357 123.804 161.358 125.536C161.058 126.102 160.858 126.835 160.758 127.735C160.625 128.867 160.675 130.017 160.908 131.183C160.975 131.616 160.808 131.932 160.408 132.132C159.975 132.332 159.759 132.299 159.759 132.032L159.259 129.084C159.126 127.951 159.409 126.619 160.108 125.086C160.708 123.754 160.975 122.654 160.908 121.788C160.808 120.755 160.308 119.789 159.409 118.89C158.576 118.057 158.259 117.124 158.459 116.091C158.759 114.559 158.809 113.426 158.609 112.693L156.461 114.093C155.461 114.692 154.828 114.909 154.562 114.742C154.362 114.576 154.262 113.876 154.262 112.643C154.195 110.545 154.712 108.862 155.811 107.596C156.177 107.196 156.294 106.863 156.161 106.597C156.027 106.33 155.528 105.947 154.662 105.447C154.262 105.214 154.012 104.948 153.912 104.648L153.812 103.499C153.812 102.532 153.412 101.616 152.613 100.75C152.246 100.384 152.113 99.7507 152.213 98.8512L152.113 96.9024L150.864 95.4032L149.564 93.7042Z" fill="#EFE908"/>
<path d="M55.3184 24.4437C56.0847 24.577 56.6677 25.2933 57.0674 26.5925C57.4339 27.9251 57.5005 29.5242 57.2673 31.3898C56.9675 33.6218 56.3512 35.3209 55.4184 36.4869C54.6521 37.4197 53.9192 37.8194 53.2196 37.6862C52.4201 37.4863 51.8204 36.6035 51.4207 35.0377C51.0875 33.5719 51.0375 32.0227 51.2707 30.3903C51.6039 28.3915 52.1869 26.8424 53.0197 25.743C53.7527 24.7436 54.5189 24.3105 55.3184 24.4437Z" fill="white"/>
<path d="M19.0891 17.3978C19.3556 17.4311 19.5222 18.114 19.5888 19.4466C19.6221 20.7459 19.5222 21.9785 19.289 23.1445C18.8559 25.1434 18.3395 26.6592 17.7399 27.6919C17.2068 28.5914 16.7071 28.9912 16.2407 28.8912C15.8409 28.7913 15.5911 28.2749 15.4911 27.3421C15.3579 26.1761 15.5578 24.6103 16.0908 22.6448C16.5572 20.9458 17.0902 19.6132 17.6899 18.6471C18.2229 17.7809 18.6893 17.3645 19.0891 17.3978Z" fill="white"/>
<path d="M47.023 36.7867C47.756 35.5207 48.5555 34.8378 49.4217 34.7379C49.1218 37.1365 49.1885 39.0854 49.6216 40.5845C50.088 42.0837 50.9042 42.9165 52.0702 43.0831C52.9696 43.2163 53.8858 42.8166 54.8186 41.8838C55.918 40.8177 56.7008 39.2519 57.1672 37.1865C58.1334 38.4191 58.6497 40.0348 58.7164 42.0337L57.617 45.5817C56.1845 46.3812 54.2023 46.8309 51.6704 46.9309L48.2723 46.781C47.4728 45.1153 47.023 42.9498 46.9231 40.2847L47.023 36.7867Z" fill="#007F78"/>
<path d="M17.7397 28.7413C18.1061 29.4076 18.2894 30.0739 18.2894 30.7402L17.19 34.0883C16.2905 36.287 15.4077 37.403 14.5415 37.4364C13.642 37.4697 12.8925 36.6701 12.2928 35.0377L11.4433 31.7396C11.3433 31.2732 11.4599 30.3238 11.7931 28.8912L12.2928 26.8924L12.8925 26.2927L14.1917 25.5432C13.5921 27.4088 13.3589 29.0578 13.4921 30.4903C13.6254 31.7563 14.0085 32.4892 14.6415 32.6891C15.1745 32.889 15.7408 32.6391 16.3405 31.9395C17.0068 31.1733 17.4732 30.1072 17.7397 28.7413Z" fill="#007F78"/>
<path d="M45.7737 1.00715C57.5336 2.17315 65.5457 9.01924 69.8099 21.5454C71.5756 26.7758 72.3918 32.3892 72.2585 38.3858C72.1586 44.2158 71.1925 49.5294 69.3602 54.3267C67.861 58.2578 66.9449 60.7563 66.6118 61.8224C65.6456 64.7207 65.096 67.1027 64.9627 68.9683C64.7295 72.5663 64.3297 74.3319 63.7634 74.2653C63.2304 74.1987 63.1138 72.383 63.4136 68.8184C63.7134 64.6208 65.0626 59.6403 67.4613 53.8769C69.2269 49.6127 70.1764 44.6988 70.3096 39.1354C70.4429 33.4386 69.6767 28.0417 68.011 22.9446C64.0132 10.585 56.5508 3.85553 45.6238 2.75615C40.7599 2.28975 35.796 2.98935 30.7323 4.85495C25.6352 6.75387 21.6041 9.3857 18.6392 12.7504C17.8729 13.6166 17.3732 14.4162 17.14 15.1491C16.8735 15.9819 16.9235 16.8814 17.2899 17.8475C17.3566 18.0474 17.19 18.2306 16.7902 18.3972L16.0906 18.3472C15.2245 15.882 15.7075 13.6333 17.5398 11.6011C20.738 8.00315 24.9522 5.22141 30.1826 3.25587C35.4462 1.25701 40.6433 0.507439 45.7737 1.00715Z" fill="#0D131A"/>
<path d="M57.1173 44.8821C58.5498 41.2175 59.0162 36.92 58.5165 31.9894C58.0168 26.8923 56.7342 24.2272 54.6687 23.994C52.4033 23.7275 50.2046 25.7263 48.0725 29.9906C45.7738 34.6213 44.9409 39.785 45.5739 45.4817C45.9404 46.0814 47.8393 46.2979 51.2707 46.1314C54.7353 45.9648 56.6842 45.5484 57.1173 44.8821ZM44.2247 45.8815C43.3252 40.5845 44.0248 35.3042 46.3235 30.0405C48.6888 24.6769 51.5205 22.1617 54.8186 22.4949C58.3166 22.828 60.0656 26.4426 60.0656 33.3387C60.0656 39.202 59.3993 43.3163 58.0668 45.6816C57.5004 46.7144 55.1018 47.2974 50.8709 47.4306C46.64 47.5639 44.4246 47.0475 44.2247 45.8815Z" fill="#0D131A"/>
<path d="M18.7892 17.0979C17.7898 17.0979 16.4239 18.9802 14.6916 22.7447C12.9592 26.5425 12.0931 29.5408 12.0931 31.7396V31.7895C12.0931 32.9889 12.4095 34.1549 13.0425 35.2876C13.6089 36.3536 14.0753 36.8367 14.4417 36.7367C15.8076 36.3703 17.1901 33.0055 18.5893 26.6425C19.9885 20.2795 20.0552 17.0979 18.7892 17.0979ZM13.7921 21.7953C15.7909 17.4644 17.5233 15.3989 18.9891 15.5988C21.1879 15.8653 21.5043 19.6132 19.9386 26.8424C18.4061 34.0383 16.6071 37.8194 14.5417 38.1859C13.8087 38.3191 13.0259 37.5862 12.193 35.9871C11.3935 34.4547 10.977 33.0222 10.9437 31.6896C10.9104 29.2243 11.8599 25.9262 13.7921 21.7953Z" fill="#0D131A"/>
<path d="M14.2417 44.7322C13.9419 43.9659 13.9752 43.4496 14.3416 43.1831C14.7081 42.9499 15.0579 43.233 15.391 44.0326L15.6409 45.5317C15.6742 46.1314 15.6076 46.4812 15.441 46.5811C15.1745 46.7477 14.7747 46.1314 14.2417 44.7322Z" fill="#0D131A"/>
<path d="M27.2844 47.3806C28.1172 47.0142 28.5836 47.0808 28.6836 47.5805C28.7835 48.0469 28.4171 48.4967 27.5842 48.9297C26.4182 49.4961 25.7519 49.696 25.5853 49.5294C25.4854 49.3961 25.6187 49.063 25.9851 48.53C26.3849 47.9969 26.818 47.6138 27.2844 47.3806Z" fill="#0D131A"/>
<path d="M11.3435 30.2404C11.51 30.1072 11.6433 30.2904 11.7432 30.7901C11.8432 31.2898 11.8099 31.6063 11.6433 31.7396C7.74553 35.3042 5.59676 38.669 5.19699 41.8338C4.66396 45.7982 6.72945 51.4617 11.3934 58.8241C16.0241 66.1533 20.1385 70.3342 23.7364 71.3669C25.3355 71.8 27.7508 71.8 30.9823 71.3669C34.1804 70.9005 37.4785 70.101 40.8766 68.9683C43.1753 68.2021 44.3746 68.0355 44.4745 68.4686C44.6078 68.8684 43.5084 69.5013 41.1764 70.3675C37.7117 71.6668 34.1638 72.5496 30.5325 73.016C27.301 73.3825 24.9024 73.3491 23.3366 72.9161C19.5388 71.85 15.1746 67.5358 10.2441 59.9735C5.14702 52.2112 2.88165 46.0148 3.44799 41.3841C3.7145 39.5518 4.56402 37.6362 5.99653 35.6374C7.39573 33.6052 9.17805 31.8062 11.3435 30.2404Z" fill="#0D131A"/>
<path d="M51.0707 20.8958C49.9713 21.7286 49.1884 22.3949 48.722 22.8946C48.1557 23.5276 47.656 24.3105 47.2229 25.2433C46.7565 26.3427 46.2901 26.8424 45.8237 26.7424C45.3573 26.6092 45.3406 25.9595 45.7737 24.7935C46.54 22.828 47.9391 21.2955 49.9713 20.1962C50.9707 19.6965 51.5871 19.5465 51.8203 19.7464C52.0202 19.9796 51.7703 20.3627 51.0707 20.8958Z" fill="#0D131A"/>
<path d="M20.7381 14.5494C20.4383 13.8498 20.4049 13.4334 20.6381 13.3001C20.8713 13.1669 21.2045 13.4001 21.6376 13.9997C22.7703 15.4323 23.2367 17.3478 23.0368 19.7465C22.9368 20.8791 22.637 21.4122 22.1373 21.3455C21.6376 21.3122 21.4377 20.7459 21.5376 19.6465C21.6709 17.7476 21.4044 16.0486 20.7381 14.5494Z" fill="#0D131A"/>
<path d="M5.5467 41.584C5.7799 40.318 6.0131 39.6851 6.2463 39.6851C6.51281 39.7184 6.62941 40.3847 6.5961 41.6839C6.5961 42.75 6.89593 43.6328 7.49558 44.3324C8.56164 45.5317 10.3106 47.0475 12.7426 48.8798C15.1412 50.6788 16.8402 51.7615 17.8397 52.1279C19.4388 52.6943 24.3026 53.2939 32.4313 53.9269L47.5727 54.6265C48.4389 54.5932 49.1218 54.4433 49.6215 54.1768L51.2206 52.7776C51.9868 51.978 52.4532 51.6949 52.6198 51.9281C52.8197 52.1279 52.6365 52.6943 52.0701 53.6271C51.6037 54.3933 51.054 54.9597 50.4211 55.3261C49.7548 55.6926 48.9053 55.8925 47.8725 55.9258L33.031 55.2262C24.5025 54.6265 19.2722 53.9769 17.34 53.2773C16.2406 52.9108 14.3417 51.7115 11.6432 49.6793C8.94475 47.6472 7.1791 46.0981 6.34624 45.032C6.04641 44.6322 5.81321 44.0992 5.64664 43.4329C5.48007 42.7333 5.44675 42.117 5.5467 41.584Z" fill="#0D131A"/>
<path d="M10.5438 49.8792L11.3434 49.9292C12.6426 53.5271 14.6082 57.0251 17.24 60.4232C19.6719 63.5547 21.6208 65.3204 23.0867 65.7202C26.0849 66.5197 30.2826 65.8368 35.6795 63.6713C41.2763 61.406 45.6071 58.491 48.672 54.9263L49.6215 54.8764C50.0879 54.9763 50.2545 55.0929 50.1212 55.2262C47.0563 59.1239 42.4922 62.3554 36.429 64.9206C30.5657 67.3859 25.985 68.1688 22.6869 67.2693C20.9545 66.8029 18.7725 64.8706 16.1406 61.4726C13.3755 57.9413 11.2934 54.26 9.8942 50.4289C9.86089 50.229 10.0774 50.0458 10.5438 49.8792Z" fill="#0D131A"/>
<path d="M7.1958 45.8316C7.1958 45.6317 7.429 45.5317 7.8954 45.5317C8.32849 45.5317 8.54503 45.6317 8.54503 45.8316C8.54503 46.2313 8.66163 46.9976 8.89483 48.1303C9.12803 49.3629 9.32792 49.9959 9.49449 50.0292C9.69437 50.0625 10.0109 49.9126 10.4439 49.5794L11.2935 48.6799L12.2429 49.6294L10.5939 50.7787L9.19466 51.2285C8.8282 51.0952 8.39512 50.329 7.8954 48.9298C7.429 47.5972 7.1958 46.5645 7.1958 45.8316Z" fill="#0D131A"/>
<path d="M38.6779 54.7764C39.0443 55.0096 39.1776 55.2095 39.0776 55.3761L37.0288 57.5249C36.0294 58.2911 35.2965 58.6742 34.8301 58.6742C34.4303 58.6742 33.8973 58.2078 33.231 57.275C32.5314 56.3422 32.0816 55.5094 31.8817 54.7764C31.8484 54.5766 32.0483 54.4266 32.4814 54.3267C32.9478 54.2268 33.1977 54.2767 33.231 54.4766L34.0305 56.4255C34.4303 57.1584 34.7135 57.5249 34.88 57.5249C35.1465 57.5582 35.6629 57.225 36.4291 56.5254L37.9783 54.6765L38.6779 54.7764Z" fill="#0D131A"/>
<path d="M13.992 57.275C13.8254 56.9752 13.8421 56.7919 14.042 56.7253L15.5911 56.4255C16.3573 56.3922 16.8404 56.4754 17.0402 56.6753C17.2401 56.8752 17.2568 57.4416 17.0902 58.3744C16.957 59.2738 16.7737 59.9068 16.5405 60.2733C16.374 60.5065 16.0575 60.3232 15.5911 59.7236L16.2407 58.1245L16.3406 57.275C16.1741 57.1084 15.5744 57.225 14.5417 57.6248C14.3418 57.6914 14.1586 57.5748 13.992 57.275Z" fill="#0D131A"/>
<path d="M32.6313 62.0223C32.8978 61.9556 33.2976 62.1722 33.8306 62.6719L35.3298 64.3209C35.463 64.4875 35.3797 64.6707 35.0799 64.8706C34.8134 65.0372 34.6135 65.0372 34.4803 64.8706C33.6807 63.6047 33.131 63.005 32.8312 63.0717C32.6646 63.105 32.4981 63.4548 32.3315 64.1211L32.1316 65.7201C32.1316 65.92 31.9484 66.02 31.5819 66.02C31.2155 66.02 31.0322 65.9034 31.0322 65.6702C31.0322 65.1371 31.1988 64.4375 31.5319 63.5714C31.9317 62.6053 32.2982 62.0889 32.6313 62.0223Z" fill="#0D131A"/>
<path d="M24.8857 72.3164C25.0523 72.2165 25.2522 72.433 25.4854 72.966L25.6353 73.8655C21.6042 76.7639 18.2728 79.8954 15.641 83.2601C13.1091 86.4916 9.89427 91.6387 5.9965 98.7013C4.19753 100.7 2.99821 102.566 2.39856 104.298C1.89884 105.664 1.88218 106.514 2.34858 106.847C2.98156 107.346 4.63061 107.163 7.29576 106.297L7.99536 106.247L8.0953 107.196C8.0953 109.562 8.4451 110.844 9.1447 111.044C9.64442 111.178 10.5272 110.628 11.7932 109.395C13.0924 108.196 14.2251 106.847 15.1912 105.348C15.3911 105.481 15.5244 105.714 15.591 106.047L15.4911 106.947C14.9247 108.079 13.9086 109.329 12.4428 110.694C10.7771 112.227 9.56113 112.86 8.7949 112.593C7.46233 112.227 6.8127 110.595 6.84601 107.696C5.51344 108.229 4.2475 108.512 3.04818 108.546C1.9155 108.579 1.16593 108.396 0.79947 107.996C0.266441 107.43 0.233127 106.347 0.699527 104.748C1.29918 102.682 2.68173 100.4 4.84716 97.9018C8.54504 90.8058 11.9931 85.309 15.1912 81.4112C17.8564 78.1131 21.0879 75.0815 24.8857 72.3164Z" fill="#0D131A"/>
<path d="M6.39617 101.1C5.33011 102.666 4.96365 103.632 5.2968 103.998C5.62994 104.298 6.67934 104.148 8.445 103.549C9.44443 103.115 10.0108 103.049 10.144 103.349C10.244 103.682 9.81088 104.065 8.84477 104.498C6.44614 105.597 4.79708 105.897 3.8976 105.398C2.86485 104.798 3.39788 103.132 5.49668 100.4C6.19628 99.5009 6.67934 99.1511 6.94586 99.351C7.24568 99.5175 7.06246 100.101 6.39617 101.1Z" fill="#0D131A"/>
<path d="M25.0856 72.4164L25.8851 72.5163C26.3182 72.7828 26.4848 72.9994 26.3848 73.166C17.4233 93.5543 13.8753 111.511 15.7409 127.035C18.1728 147.59 30.4825 159.25 52.6698 162.015C52.8697 162.048 53.0362 162.315 53.1695 162.815C53.3361 163.348 53.3028 163.598 53.0696 163.564C29.4164 160.899 16.3239 148.939 13.792 127.685C11.9264 111.827 15.6909 93.4044 25.0856 72.4164Z" fill="#0D131A"/>
<path d="M20.838 83.1102C22.1039 80.3785 23.653 78.2297 25.4853 76.6639C27.2843 75.1315 29.1166 74.3652 30.9822 74.3652C33.4807 74.3652 36.2958 76.6139 39.4273 81.1114C42.3923 85.3423 45.174 90.8558 47.7726 97.6519C53.8025 113.476 56.0012 126.969 54.3688 138.129L53.5193 139.528L52.7697 140.278C54.4687 128.118 52.2034 114.109 45.9736 98.2516C43.475 91.8552 40.8099 86.5583 37.9782 82.3607C35.1131 78.1298 32.7811 76.0143 30.9822 76.0143C29.6829 76.0143 28.1671 76.7139 26.4348 78.1131C24.336 79.8121 22.6203 82.1108 21.2877 85.0092C21.1878 85.209 21.0712 84.9925 20.9379 84.3595C20.7713 83.6932 20.738 83.2768 20.838 83.1102Z" fill="#0D131A"/>
<path d="M63.8134 68.4186C63.7801 68.1854 63.9966 67.3692 64.463 65.97C64.9627 64.6041 65.2292 64.0211 65.2626 64.221C67.2947 78.746 69.227 89.5565 71.0592 96.6525C73.4912 106.28 76.806 114.476 81.0036 121.238C87.833 132.232 90.3815 142.46 88.6492 151.921C88.2827 153.853 87.25 157.518 85.551 162.915C84.1518 167.279 83.4022 170.877 83.3022 173.708C83.2023 176.374 82.8858 177.64 82.3528 177.506C81.8531 177.373 81.6698 175.941 81.8031 173.209C82.003 170.077 82.7526 166.296 84.0518 161.865C85.5843 156.735 86.5004 153.203 86.8002 151.271C88.1328 142.576 85.451 132.599 78.7549 121.338C74.5906 114.342 71.459 106.514 69.3602 97.8518C68.8605 95.8529 67.0116 86.0419 63.8134 68.4186Z" fill="#0D131A"/>
<path d="M59.9156 172.359C60.5152 172.659 60.8484 172.909 60.915 173.109C61.8145 175.408 62.2309 178.772 62.1643 183.203C62.131 187.334 62.3475 189.749 62.8139 190.449C63.6135 191.648 65.1792 192.598 67.5112 193.297C69.8432 193.997 72.2918 194.263 74.857 194.097C81.42 193.697 85.2511 191.015 86.3505 186.051C86.617 184.819 86.0007 182.437 84.5015 178.906C82.9025 175.108 82.0862 173.026 82.0529 172.659C82.0196 172.459 82.1695 172.059 82.5027 171.46C82.8025 170.86 82.9691 170.677 83.0024 170.91C83.1023 172.076 84.0518 174.591 85.8508 178.456C87.4499 181.954 88.1328 184.552 87.8996 186.251C87.1334 191.715 82.9857 194.746 75.4567 195.346C72.4584 195.579 69.5934 195.313 66.8616 194.547C64.1298 193.78 62.2809 192.714 61.3148 191.348C60.5486 190.216 60.2987 187.351 60.5652 182.753C60.8317 177.989 60.3653 174.475 59.166 172.209L59.9156 172.359Z" fill="#0D131A"/>
<path d="M53.9691 136.48C55.2017 134.248 56.0012 133.248 56.3677 133.481C56.7008 133.748 56.3011 135.047 55.1684 137.379C52.0368 143.876 50.9708 150.172 51.9702 156.268C52.9696 162.398 56.0345 167.878 61.1649 172.709C62.9972 174.441 63.7635 175.491 63.4636 175.857C63.1971 176.224 62.1311 175.574 60.2655 173.908C54.602 168.911 51.1707 163.314 49.9713 157.118C48.7054 150.522 50.038 143.642 53.9691 136.48Z" fill="#0D131A"/>
<path d="M18.2394 140.677C18.406 140.577 18.6558 140.794 18.989 141.327C19.2888 141.827 19.3554 142.143 19.1889 142.276C16.7569 144.009 14.5415 146.624 12.5427 150.122C10.4105 153.787 9.44443 156.968 9.64431 159.667C9.81088 161.765 10.7437 163.864 12.4427 165.963C14.0751 168.028 16.0906 169.627 18.4893 170.76C20.5547 171.76 21.4875 172.426 21.2877 172.759C21.1211 173.125 19.9051 172.842 17.6397 171.91C14.9413 170.777 12.6759 169.078 10.8436 166.812C8.97803 164.547 7.96194 162.198 7.79537 159.766C7.52885 156.335 8.64488 152.604 11.1435 148.573C13.2423 145.175 15.6076 142.543 18.2394 140.677Z" fill="#0D131A"/>
<path d="M39.877 167.612C39.7438 167.445 39.8937 167.212 40.3268 166.912C40.7266 166.613 40.9931 166.546 41.1263 166.712C42.259 168.312 43.0586 169.894 43.525 171.46C43.9914 173.092 44.0247 174.425 43.6249 175.457C43.2251 176.59 41.0764 177.923 37.1786 179.455C33.0143 181.121 28.8667 182.154 24.7357 182.553C24.5025 182.587 24.3692 182.354 24.3359 181.854C24.2693 181.354 24.3526 181.088 24.5858 181.054C28.6168 180.654 32.4646 179.705 36.1292 178.206C39.4273 176.84 41.3762 175.591 41.9758 174.458C42.2757 173.858 42.2424 172.926 41.8759 171.66C41.4761 170.294 40.8098 168.945 39.877 167.612Z" fill="#0D131A"/>
<path d="M14.5916 169.161C14.7915 169.094 15.058 169.294 15.3912 169.761C15.7243 170.227 15.7909 170.477 15.591 170.51C14.6916 170.843 13.5589 171.376 12.193 172.109C10.8271 172.876 9.7777 173.542 9.04479 174.108L8.09533 173.958C7.62893 173.725 7.47901 173.542 7.64559 173.409C8.51176 172.709 9.61113 171.926 10.9437 171.06C12.4428 170.127 13.6588 169.494 14.5916 169.161Z" fill="#0D131A"/>
<path d="M40.0271 169.611C39.3275 171.21 38.8111 171.943 38.478 171.81C38.1448 171.676 38.2115 170.777 38.6779 169.111C39.2109 167.312 40.177 165.613 41.5762 164.014C42.9088 162.382 44.1581 161.432 45.3241 161.166C45.524 161.132 45.8904 161.299 46.4234 161.665C46.9565 162.032 47.123 162.232 46.9232 162.265C46.057 162.465 44.9076 163.281 43.4751 164.714C41.9094 166.313 40.76 167.945 40.0271 169.611Z" fill="#0D131A"/>
<path d="M11.0937 174.508C11.5934 175.341 11.9265 176.29 12.0931 177.356C12.1264 177.556 11.9265 177.69 11.4934 177.756C11.0604 177.789 10.8105 177.706 10.7439 177.506L9.9943 175.507C9.56122 174.841 9.21142 174.508 8.9449 174.508C7.94547 174.475 6.59625 175.108 4.89722 176.407C3.2315 177.64 2.46527 178.472 2.59853 178.906C2.73179 179.239 3.5813 179.389 5.14707 179.355L9.34467 178.906C9.54456 178.872 9.69447 179.072 9.79442 179.505C9.89436 179.938 9.84439 180.171 9.6445 180.205L2.94833 180.555C1.44919 180.388 0.6663 180.105 0.599672 179.705C0.466415 178.839 1.56579 177.49 3.89779 175.657C6.19647 173.825 7.92882 172.926 9.09482 172.959C9.82773 172.992 10.494 173.509 11.0937 174.508Z" fill="#0D131A"/>
<path d="M17.1402 179.605C17.1069 178.739 16.8904 177.939 16.4906 177.206C16.0242 176.44 15.5411 176.09 15.0414 176.157C14.1419 176.29 12.8094 177.19 11.0437 178.856C9.31138 180.455 8.51183 181.437 8.64509 181.804C8.74503 182.104 9.74446 182.104 11.6434 181.804L16.0908 180.854C16.2907 180.788 16.3907 180.971 16.3907 181.404C16.3907 181.87 16.2907 182.12 16.0908 182.154C14.4584 182.687 12.5928 183.036 10.494 183.203C8.32861 183.37 7.12929 183.22 6.89609 182.753C6.56295 182.054 7.44578 180.605 9.54458 178.406C11.6434 176.14 13.409 174.908 14.8415 174.708C15.741 174.575 16.5406 175.008 17.2402 176.007C17.9731 177.007 18.3562 178.206 18.3895 179.605C18.3895 179.805 18.1896 179.905 17.7899 179.905C17.3568 179.905 17.1402 179.805 17.1402 179.605Z" fill="#0D131A"/>
<path d="M13.6921 184.652C13.3256 184.053 14.1918 182.553 16.2906 180.155C18.4227 177.723 20.1217 176.457 21.3877 176.357C22.3205 176.257 23.2866 176.957 24.286 178.456C25.2854 179.888 25.6519 181.088 25.3854 182.054C25.1522 182.953 23.1866 183.719 19.4887 184.352L13.6921 184.652ZM15.3911 183.603L19.4887 183.153C22.1539 182.587 23.5698 182.054 23.7363 181.554C23.9362 180.988 23.7696 180.221 23.2366 179.255C22.7036 178.289 22.1372 177.823 21.5376 177.856C20.7047 177.923 19.4221 178.839 17.6898 180.605C16.0241 182.27 15.2578 183.27 15.3911 183.603Z" fill="#0D131A"/>
<path d="M154.761 128.934C154.828 128.734 155.095 128.734 155.561 128.934C156.027 129.134 156.227 129.334 156.161 129.534C152.496 138.229 147.499 145.091 141.169 150.122C135.473 154.619 129.076 157.351 121.98 158.317C115.417 159.217 109.021 158.517 102.791 156.218C96.628 153.953 91.5809 150.488 87.6498 145.824C87.5166 145.658 87.5665 145.191 87.7997 144.425C88.0663 143.659 88.2662 143.359 88.3994 143.526C92.6636 148.589 97.894 152.254 104.09 154.519C110.187 156.785 116.433 157.401 122.83 156.368C129.493 155.269 135.522 152.521 140.919 148.123C146.816 143.326 151.43 136.929 154.761 128.934Z" fill="#0D131A"/>
<path d="M159.159 132.082C159.192 131.882 159.459 131.816 159.958 131.882C160.458 131.949 160.691 132.082 160.658 132.282C159.259 143.842 155.161 153.453 148.365 161.116C142.435 167.779 134.923 172.509 125.828 175.308C117.666 177.773 109.487 178.373 101.292 177.107C93.3298 175.874 87.2333 173.159 83.0024 168.961C82.8692 168.828 82.9358 168.428 83.2023 167.762C83.4688 167.096 83.6687 166.829 83.802 166.962C87.7664 170.927 93.5964 173.575 101.292 174.908C109.254 176.307 117.183 175.907 125.078 173.708C133.94 171.243 141.269 166.812 147.066 160.416C153.729 153.054 157.76 143.609 159.159 132.082Z" fill="#0D131A"/>
<path d="M158.06 141.077L157.91 143.576C154.711 152.271 149.598 159.217 142.568 164.414C136.405 169.011 129.243 171.943 121.081 173.209C113.652 174.375 106.506 174.025 99.643 172.159C92.8802 170.36 87.8164 167.479 84.4516 163.514C84.3184 163.348 84.385 162.998 84.6515 162.465C84.918 161.965 85.1179 161.799 85.2512 161.965C88.5826 165.863 93.6131 168.728 100.343 170.56C107.205 172.393 114.335 172.709 121.73 171.51C129.859 170.21 136.972 167.212 143.068 162.515C149.998 157.151 154.995 150.005 158.06 141.077Z" fill="#0D131A"/>
<path d="M168.304 97.8518V96.3027C168.204 96.1028 167.854 96.2361 167.254 96.7025C165.622 98.0684 164.689 98.6514 164.456 98.4515C164.256 98.2849 164.256 97.2355 164.456 95.3033C164.856 91.1723 163.99 88.6071 161.858 87.6077C160.958 87.2079 160.475 86.5916 160.408 85.7587C160.342 85.1258 160.542 83.7266 161.008 81.5611C161.541 78.9959 161.808 77.0637 161.808 75.7645C161.808 74.3986 161.541 72.6662 161.008 70.5674C160.742 72.3997 160.425 73.7989 160.059 74.765C159.692 75.7311 159.192 76.4807 158.559 77.0137C156.094 79.1459 154.395 80.9615 153.462 82.4606C152.663 83.7599 152.313 85.1091 152.413 86.5083C152.546 87.8409 152.53 88.857 152.363 89.5566L151.463 91.5055L150.614 92.8547C150.347 93.3544 150.164 93.9874 150.064 94.7536C149.898 95.8863 149.714 96.4693 149.515 96.5026C149.348 96.5359 148.948 96.0695 148.315 95.1034C147.649 94.1373 147.566 92.6215 148.065 90.556C148.332 89.5566 148.249 88.4739 147.816 87.3079C147.382 86.1752 147.283 85.259 147.516 84.5594C147.049 84.9925 146.7 85.7754 146.466 86.9081C146.233 88.1407 146.316 89.2068 146.716 90.1063C147.083 90.9058 147.149 91.9052 146.916 93.1045L146.316 94.9035C145.883 95.7364 145.667 96.486 145.667 97.1522L146.067 98.9512C146.466 100.217 146.55 101.183 146.316 101.85C145.35 104.148 144.867 105.747 144.867 106.647C144.867 107.38 145.217 108.279 145.917 109.345C146.616 110.378 146.933 111.327 146.866 112.194L146.017 114.842L145.017 116.791C144.717 117.524 144.551 118.307 144.517 119.14C144.451 120.506 144.834 121.838 145.667 123.137C146.5 124.537 147.516 125.369 148.715 125.636L153.412 126.985C154.712 127.518 155.828 128.318 156.76 129.384C157.76 130.45 158.626 131.033 159.359 131.133C160.159 131.266 161.025 130.85 161.957 129.884C162.857 128.917 163.84 128.168 164.906 127.635C165.705 127.268 166.355 126.436 166.855 125.136C167.354 123.804 167.854 123.004 168.354 122.738C169.653 122.005 170.586 121.322 171.152 120.689C171.952 119.789 172.285 118.74 172.152 117.541C172.052 116.808 172.218 115.675 172.651 114.143C173.084 112.61 173.268 111.477 173.201 110.744V107.946C173.301 106.88 173.451 106.03 173.651 105.398L172.451 107.746L170.902 110.545C170.136 112.044 169.603 112.777 169.303 112.743C169.003 112.743 168.92 111.977 169.053 110.445L169.453 107.346L169.703 104.348C168.704 105.148 168.054 105.481 167.754 105.348C167.488 105.214 167.404 104.631 167.504 103.599L168.304 97.8518ZM162.957 73.7156L163.207 76.9638C163.173 77.8633 162.757 79.8121 161.957 82.8104C161.424 84.7093 161.591 85.8587 162.457 86.2585C164.256 87.058 165.356 88.3406 165.755 90.1063C166.155 91.6387 166.055 93.8208 165.455 96.6525C167.588 94.5204 168.87 93.8874 169.303 94.7536C169.803 95.6531 169.586 98.5681 168.654 103.499C169.686 102.632 170.336 102.449 170.603 102.949C170.969 103.582 170.902 105.414 170.403 108.446L171.952 106.247L172.951 104.298C173.484 102.932 173.851 102.233 174.051 102.199C174.317 102.199 174.467 102.982 174.5 104.548L174.3 107.346C174.234 108.612 174.317 109.645 174.55 110.445C174.85 111.377 174.684 112.66 174.051 114.292C173.384 115.958 173.168 117.157 173.401 117.89C173.834 119.39 173.318 120.705 171.852 121.838C169.82 123.371 168.637 124.503 168.304 125.236L167.404 127.235C166.905 128.068 166.338 128.618 165.705 128.884C164.439 129.417 163.473 130.05 162.807 130.783C161.208 132.415 159.975 133.182 159.109 133.082C158.376 133.015 157.227 132.116 155.661 130.383C153.762 128.251 151.18 126.985 147.916 126.585C146.583 126.419 145.4 125.586 144.368 124.087C143.401 122.688 142.868 121.238 142.768 119.739C142.669 118.707 143.102 117.274 144.068 115.442C145.034 113.643 145.5 112.51 145.467 112.044C145.434 111.444 145.2 110.894 144.767 110.395L143.768 109.145C143.102 107.879 143.485 105.431 144.917 101.8C145.317 100.867 145.3 99.9673 144.867 99.1011C144.368 98.0684 144.118 97.2355 144.118 96.6025C144.151 96.0362 144.434 95.2367 144.967 94.2039L145.667 92.5049C145.8 91.8053 145.767 90.9891 145.567 90.0563C145.2 88.4239 145.217 87.008 145.617 85.8087C145.85 85.1757 146.383 84.2263 147.216 82.9603C147.716 82.1941 148.032 81.8277 148.165 81.861C148.332 81.8943 148.432 82.3773 148.465 83.3101L148.415 84.7093C148.449 85.5422 148.648 86.425 149.015 87.3578C149.415 88.4239 149.381 89.6898 148.915 91.1557C148.615 92.0218 148.665 92.9546 149.065 93.9541L150.664 90.8558C151.097 90.0896 151.297 89.3067 151.264 88.5072L151.064 86.3584C151.064 83.8265 151.763 81.811 153.163 80.3119C153.995 79.3791 155.594 77.9465 157.96 76.0143C158.893 74.8816 159.476 72.9994 159.709 70.3675C159.975 68.0022 160.208 66.8029 160.408 66.7696C160.675 66.703 161.258 67.9023 162.157 70.3675C162.491 71.267 162.757 72.3831 162.957 73.7156Z" fill="#0D131A"/>
<path d="M50.4711 24.6936L51.4205 24.5437C51.8536 24.577 52.0035 24.677 51.8703 24.8435C49.7049 27.2088 48.3723 30.9734 47.8726 36.1371C47.4062 40.901 47.7726 44.399 48.9719 46.6311C49.0719 46.831 48.922 46.9975 48.5222 47.1308L47.7726 47.0309C46.3734 44.3324 45.957 40.5179 46.5233 35.5874C47.0897 30.5902 48.4056 26.959 50.4711 24.6936Z" fill="#0D131A"/>
<path d="M20.888 52.9775C21.1212 52.9775 21.471 53.144 21.9374 53.4772C22.4038 53.8103 22.5371 53.9769 22.3372 53.9769C20.9713 54.0768 19.5055 54.46 17.9397 55.1263C16.5405 55.7592 15.3246 56.4921 14.2918 57.325C14.1586 57.4583 13.9753 57.3583 13.7421 57.0252C13.5089 56.692 13.459 56.4588 13.5922 56.3256C16.0575 54.2934 18.4894 53.1774 20.888 52.9775Z" fill="#0D131A"/>
<path d="M62.5643 191.498C62.7642 190.799 63.1972 190.166 63.8635 189.599C64.6631 188.966 65.446 188.766 66.2122 189C67.2449 189.333 68.0278 190.049 68.5608 191.148C69.0272 192.115 69.1605 192.947 68.9606 193.647C68.6275 194.78 67.778 196.212 66.4121 197.945C65.0795 199.577 64.1967 200.41 63.7636 200.443C63.2306 200.476 62.8141 199.26 62.5143 196.795C62.2145 194.363 62.2311 192.598 62.5643 191.498Z" fill="white"/>
<path d="M72.7085 193.297C72.5752 192.331 72.6585 191.482 72.9583 190.749C73.3248 189.849 73.9744 189.3 74.9072 189.1C76.7062 188.767 77.9721 189.449 78.705 191.149C79.1381 192.181 79.2381 193.98 79.0049 196.545C78.7717 199.077 78.4219 200.443 77.9555 200.643C77.4891 200.843 76.6062 200.193 75.307 198.694C73.8745 197.028 73.0083 195.23 72.7085 193.297Z" fill="white"/>
<path d="M82.3029 192.248C82.5361 190.082 83.2024 188.483 84.3017 187.451C85.3345 186.485 86.2173 186.418 86.9502 187.251C87.6165 188.017 88.2328 189.949 88.7992 193.047C89.3988 196.079 89.5154 197.678 89.149 197.845C88.7159 198.045 87.4499 197.278 85.3511 195.546C83.2523 193.814 82.2363 192.714 82.3029 192.248Z" fill="white"/>
<path d="M55.1185 72.9661L66.4621 90.606C64.9962 95.8363 61.7648 101.067 56.7676 106.297C55.0019 108.129 52.3201 110.478 48.7222 113.343L44.6245 116.941C42.9255 118.34 41.7928 118.94 41.2265 118.74C40.7268 118.607 40.2937 117.591 39.9272 115.692L39.5275 112.893L36.9789 114.492C35.1799 115.458 34.0473 115.708 33.5809 115.242C33.1478 114.809 33.0645 113.776 33.331 112.144L33.8307 109.845C31.3655 109.845 30.1495 109.462 30.1828 108.696C30.2161 108.163 30.8491 107.38 32.0817 106.347C33.6142 105.048 34.6636 103.982 35.2299 103.149C36.5958 96.5193 40.327 89.5066 46.4235 82.1108C49.4551 78.413 52.3535 75.3647 55.1185 72.9661Z" fill="#EF8200"/>
<path d="M41.4763 118.64C43.3752 115.109 44.8078 112.76 45.7739 111.594L55.2684 102.949C60.3655 98.3848 63.9135 94.3871 65.9124 90.9557C65.5126 94.3871 63.3305 98.618 59.3661 103.649C55.7015 108.313 52.4201 111.377 49.5217 112.843C45.2575 116.275 42.5757 118.207 41.4763 118.64Z" fill="#CF7100"/>
<path d="M67.8111 190.049C69.077 191.948 69.0437 194.13 67.7111 196.595C66.5784 198.694 65.4124 199.927 64.2131 200.293L66.7617 194.746C67.5279 192.648 67.8777 191.082 67.8111 190.049Z" fill="#DBDCDC"/>
<path d="M73.6078 189.999L74.8571 194.846C75.3901 196.779 76.0064 198.528 76.706 200.093C76.1064 200.227 75.3235 199.494 74.3574 197.895C73.3579 196.262 72.7916 194.73 72.6583 193.297C72.5584 192.065 72.6917 191.148 73.0581 190.549L73.6078 189.999Z" fill="#DBDCDC"/>
<path d="M83.1025 189.699L85.701 193.147C87.4667 195.579 88.3995 197.195 88.4994 197.995L85.5511 195.846C83.5856 194.213 82.6028 192.981 82.6028 192.148C82.6028 191.315 82.6861 190.665 82.8526 190.199L83.1025 189.699Z" fill="#DBDCDC"/>
<path d="M65.9123 189.799C64.6464 189.699 63.8135 190.182 63.4138 191.248C63.014 192.248 62.9307 193.88 63.1639 196.146C63.3305 198.278 63.5803 199.41 63.9135 199.544C64.2466 199.677 64.9795 198.961 66.1122 197.395C67.2449 195.796 67.9112 194.497 68.1111 193.497C68.2443 192.698 68.0944 191.915 67.6613 191.148C67.2282 190.349 66.6452 189.899 65.9123 189.799ZM66.2122 188.55C67.3115 188.816 68.1777 189.499 68.8107 190.599C69.377 191.565 69.6102 192.581 69.5103 193.647C69.377 194.646 68.5108 196.179 66.9118 198.244C65.3127 200.31 64.2133 201.309 63.6136 201.243C62.8807 201.209 62.331 199.727 61.9646 196.795C61.6314 193.897 61.6814 191.865 62.1145 190.699C62.381 189.999 62.9307 189.416 63.7636 188.95C64.6297 188.483 65.4459 188.35 66.2122 188.55Z" fill="#0D131A"/>
<path d="M77.9054 191.248C77.6722 190.715 77.2891 190.316 76.7561 190.049C76.2564 189.783 75.74 189.699 75.207 189.799C74.7406 189.899 74.3242 190.182 73.9577 190.649C73.5246 191.182 73.3247 191.781 73.358 192.448C73.3914 194.047 74.041 195.763 75.3069 197.595C76.4396 199.227 77.1892 199.977 77.5556 199.844C77.8888 199.744 78.1553 198.611 78.3552 196.445C78.6217 194.113 78.4718 192.381 77.9054 191.248ZM77.3058 188.75C78.072 189.15 78.655 189.766 79.0548 190.599C79.6211 191.831 79.7544 193.914 79.4546 196.845C79.1547 199.71 78.6883 201.226 78.0554 201.393C77.1892 201.626 75.9399 200.56 74.3075 198.194C72.6418 195.796 71.8422 193.847 71.9089 192.348C71.9755 191.448 72.2587 190.632 72.7584 189.899C73.3247 189.066 74.0576 188.567 74.9571 188.4C75.79 188.234 76.5729 188.35 77.3058 188.75Z" fill="#0D131A"/>
<path d="M83.2524 191.998C83.2857 192.764 84.1352 193.814 85.8009 195.146C87.3667 196.445 88.2495 197.028 88.4494 196.895C88.7159 196.662 88.5827 195.213 88.0496 192.548C87.4833 189.716 86.8003 188.05 86.0008 187.551C85.2346 187.484 84.5683 187.984 84.0019 189.05C83.4356 190.016 83.1857 190.999 83.2524 191.998ZM81.8532 192.098C81.7532 190.799 82.1863 189.449 83.1524 188.05C84.1519 186.551 85.2012 185.901 86.3006 186.101C87.4999 186.368 88.4827 188.483 89.2489 192.448C90.0152 196.346 90.0651 198.461 89.3989 198.794C88.9658 199.027 87.6332 198.228 85.4011 196.395C83.1025 194.497 81.9198 193.064 81.8532 192.098Z" fill="#0D131A"/>
<path d="M51.9203 74.815C53.6526 73.4824 54.652 72.9161 54.9185 73.116C55.2184 73.3492 54.5854 74.2153 53.0196 75.7145C49.1552 79.4457 45.7571 83.5766 42.8255 88.1074C39.5273 93.1712 37.262 98.0517 36.0293 102.749C35.7961 103.549 35.2798 104.398 34.4802 105.298L32.2815 107.296C31.4819 107.963 31.2154 108.429 31.4819 108.696C31.7485 108.962 32.598 109.095 34.0305 109.095C34.2304 109.095 34.3137 109.329 34.2803 109.795C34.247 110.261 34.1304 110.495 33.9305 110.495C32.0649 110.495 30.7157 110.228 29.8828 109.695C28.7502 108.929 29.1333 107.763 31.0322 106.197L33.4808 104.098C34.0471 103.532 34.3969 102.949 34.5302 102.349C35.9294 97.1522 38.1615 92.0884 41.2264 87.1579C44.4245 81.9942 47.9892 77.8799 51.9203 74.815Z" fill="#0D131A"/>
<path d="M64.1133 93.7042C65.0461 91.3722 65.6624 90.2895 65.9622 90.456C66.2954 90.6226 66.0622 91.9385 65.2626 94.4038C64.0633 98.2016 62.0478 101.816 59.2161 105.248C56.5842 108.479 53.6526 111.078 50.4211 113.043C49.7881 113.443 48.2557 114.742 45.8237 116.941C43.4584 118.873 41.7927 119.689 40.8266 119.39C40.2935 119.223 39.8271 118.59 39.4274 117.491C39.0276 116.391 38.8444 115.242 38.8777 114.043C37.5784 114.975 36.3125 115.575 35.0799 115.842L32.9311 115.742C32.498 115.375 32.3647 114.542 32.5313 113.243C32.6979 111.977 33.0977 110.728 33.7306 109.495C34.6301 107.763 35.2631 106.963 35.6295 107.097C35.996 107.196 35.7795 108.179 34.9799 110.045C34.0138 112.31 33.7639 113.676 34.2303 114.143L36.0793 113.843C37.0787 113.476 38.0448 112.993 38.9776 112.394C39.444 112.094 39.7439 111.977 39.8771 112.044C40.0437 112.077 40.1436 112.36 40.1769 112.893C40.3768 115.825 40.8099 117.391 41.4762 117.591C42.0425 117.757 43.2585 117.041 45.1241 115.442L49.8214 111.594C52.4533 109.962 55.1184 107.496 57.8169 104.198C60.6153 100.767 62.7141 97.2688 64.1133 93.7042Z" fill="#0D131A"/>
</svg>
