<svg width="135" height="169" viewBox="0 0 135 169" fill="none" xmlns="http://www.w3.org/2000/svg">
<path d="M79.7426 140.667C74.3458 144.165 70.4148 146.547 67.9496 147.813C66.0507 148.812 64.4683 148.479 63.2024 146.813C61.9698 145.147 61.8865 143.998 62.9525 143.365C65.5843 141.766 68.8157 139.451 72.6468 136.419C76.3779 133.454 78.9431 131.222 80.3422 129.723C77.9103 126.758 76.0948 124.776 74.8955 123.777L78.8931 120.779L84.6397 119.13L83.5403 122.577C84.0067 122.311 85.5059 121.728 88.0377 120.829L87.5879 125.326L86.6885 126.225L91.0359 132.522C89.3702 134.121 85.6058 136.836 79.7426 140.667Z" fill="#763A00"/>
<path d="M133.611 45.2232C133.544 55.2173 133.627 62.563 133.861 67.2602C128.131 68.5261 121.168 70.5083 112.973 73.2067C103.212 76.4381 95.7332 79.4863 90.5362 82.3513L95.1835 89.0973L101.23 97.1925C95.4667 101.024 91.2858 104.038 88.6873 106.237L97.8819 116.531L87.588 125.326L88.0377 120.828C85.5059 121.728 84.0068 122.311 83.5404 122.577L84.6397 119.129L78.8931 120.779L83.8402 116.581C80.7087 114.649 76.8443 111.917 72.2471 108.386L82.9407 96.1931L70.3982 81.6017L54.6575 63.9621C85.9056 43.8074 112.307 30.8484 133.861 25.0851C133.727 30.7818 133.644 37.4945 133.611 45.2232Z" fill="#FFE100"/>
<path d="M78.8931 120.629L84.5398 118.43L85.1394 118.48L85.2394 118.93L84.19 121.728L87.7379 120.129C88.3042 119.929 88.5874 120.079 88.5874 120.579C88.5541 121.911 88.3209 123.494 87.8878 125.326L86.8884 126.075L87.3881 121.628C86.5553 121.828 85.3227 122.278 83.6903 122.977C83.0573 123.21 82.8241 123.027 82.9907 122.428L83.8402 119.879C81.1418 120.712 79.093 121.378 77.6938 121.878L78.8931 120.629Z" fill="#763A00"/>
<path d="M80.0924 140.467L67.8496 147.413C70.5147 145.714 74.2791 142.899 79.1429 138.968L89.3869 130.173L91.1358 132.522C88.6373 134.82 84.9562 137.469 80.0924 140.467Z" fill="#542400"/>
<path d="M112.573 73.4066C104.378 76.1716 96.766 79.0033 89.7368 81.9016C93.7011 79.2032 100.43 75.6386 109.925 71.2079C120.352 66.3441 128.231 63.3126 133.561 62.1133L133.761 67.2602C128.464 68.3929 121.401 70.4417 112.573 73.4066Z" fill="#F9BE00"/>
<path d="M98.4815 93.7445L101.33 97.2424L87.7878 105.987C93.0514 99.4911 96.6159 95.4102 98.4815 93.7445Z" fill="#F9BE00"/>
<path d="M97.682 116.631L93.3845 120.079L88.0876 124.426L88.3875 122.428C91.4856 117.764 93.6843 114.765 94.9836 113.433L97.682 116.631Z" fill="#F9BE00"/>
<path d="M88.0877 124.426L86.0889 125.926L88.3875 122.428L88.0877 124.426Z" fill="#542400"/>
<path d="M134.71 24.5854C134.477 27.7835 134.394 34.7961 134.46 45.623L134.66 67.7599L134.311 68.2096C127.148 69.742 119.403 71.9241 111.074 74.7557C103.246 77.4542 96.7827 80.0859 91.6857 82.6511C93.8178 85.8825 97.3157 90.713 102.18 97.1425C102.379 97.3757 102.346 97.5756 102.08 97.7421C96.816 101.207 92.7351 104.072 89.8368 106.337L98.7316 116.481C98.9314 116.681 98.9148 116.881 98.6816 117.081L92.0855 122.527C89.7868 124.426 88.3211 125.709 87.6881 126.375L91.8356 132.522L91.7857 133.071C90.4864 134.37 87.5881 136.469 83.0908 139.368C78.327 142.399 73.4299 145.247 68.3995 147.912L67.5 148.012C67.4001 147.813 67.5833 147.579 68.0497 147.313C80.0759 139.851 87.4049 134.903 90.0367 132.472L85.9891 126.525C85.8558 126.325 85.8725 126.142 86.0391 125.975L90.2366 121.928L96.4829 116.531C92.7518 112.034 89.8202 108.719 87.6881 106.587C87.4549 106.354 87.4715 106.154 87.7381 105.987C91.769 102.756 95.8333 99.7909 99.9308 97.0925C95.7 91.4292 92.2354 86.5654 89.537 82.5012C89.3371 82.2347 89.3871 82.0348 89.6869 81.9015C94.9505 79.2364 101.48 76.5047 109.275 73.7064C117.904 70.5749 125.766 68.2429 132.861 66.7105C132.562 62.1799 132.428 55.234 132.462 45.8728C132.495 36.7116 132.645 30.1988 132.911 26.3344C121.951 29.3326 108.659 34.7794 93.0349 42.6747C78.4436 50.037 66.2175 57.2661 56.3566 64.3619C60.8873 69.2257 70.0652 79.7861 83.8903 96.0431C84.0569 96.243 84.0569 96.4263 83.8903 96.5928L78.4436 102.639L73.4465 108.336C79.3763 112.8 83.0575 115.482 84.49 116.381C84.7898 116.581 84.8065 116.814 84.54 117.081L76.3448 123.877C77.9105 125.442 79.5429 127.375 81.2419 129.673C81.4085 129.873 81.4085 130.056 81.2419 130.223C80.0426 131.655 77.4775 133.837 73.5465 136.769C69.6821 139.634 66.3007 141.883 63.4025 143.515L62.6029 143.615C62.4697 143.448 62.5863 143.232 62.9527 142.965L72.2472 136.019C75.8451 133.188 78.2104 131.122 79.343 129.823C77.4441 127.358 75.7452 125.476 74.246 124.176C74.0128 123.943 74.0295 123.727 74.296 123.527L82.5411 116.781C79.3097 114.649 75.5786 112.017 71.3478 108.886C71.1146 108.686 71.0979 108.486 71.2978 108.286L81.7916 96.243L67.6499 79.8028L53.8581 64.4119C53.6582 64.1787 53.6749 63.9621 53.9081 63.7622C63.9022 56.3666 76.8445 48.7211 92.7351 40.8258C109.059 32.6973 122.884 27.1339 134.211 24.1357C134.61 24.0358 134.777 24.1857 134.71 24.5854Z" fill="#0D131A"/>
<path d="M13.432 12.7924C11.3999 13.9251 9.6176 16.5402 8.08518 20.6378C6.78595 24.1024 6.03639 27.4671 5.83651 30.7318C4.30408 26.1345 3.12145 20.1547 2.28861 12.7924C1.42245 5.26356 1.53905 1.34921 2.6384 1.04938C3.70444 0.749562 5.3368 1.88222 7.5355 4.44737C9.30112 6.51282 11.2666 9.29451 13.432 12.7924Z" fill="#0D131A"/>
<path d="M92.1353 8.09521C93.2346 9.86084 93.6844 13.1256 93.4845 17.8894C93.2846 22.0869 92.7183 25.7348 91.7855 28.8329C89.3203 31.4647 86.3887 34.0632 82.9907 36.6283C79.1596 39.5599 75.8949 41.5088 73.1965 42.4749C76.2947 44.9734 78.7765 47.855 80.6421 51.1198C81.8747 53.2518 82.9574 55.867 83.8902 58.9651C85.4892 63.9955 85.5892 69.359 84.19 75.0556C82.9574 80.0526 81.0085 83.9004 78.3434 86.5988C72.2137 92.3287 64.2851 95.8433 54.5575 97.1425C46.2291 98.2752 38.2172 97.6922 30.5217 95.3936C27.2237 94.2942 24.1921 92.3121 21.4271 89.4471C18.3289 86.2823 16.1636 82.5845 14.931 78.3537C13.7317 74.2894 13.4818 70.1085 14.1814 65.8111C14.7144 62.4131 15.7971 59.165 17.4295 56.0668C15.364 53.7349 13.0487 49.6873 10.4836 43.924C8.35152 39.0269 6.83575 34.896 5.93628 31.5313C6.10285 26.6342 7.06894 22.3701 8.83456 18.7389C10.1671 16.0072 11.6329 14.075 13.232 12.9423C15.8637 16.7068 18.4789 21.9204 21.0773 28.5831C23.809 35.5456 25.3581 41.209 25.7246 45.573C30.4884 41.209 36.5015 38.244 43.7639 36.6783C50.3933 35.2458 56.2065 35.2791 61.2036 36.7782C64.6016 31.3814 69.8151 25.5349 76.8443 19.2386C83.2072 13.5753 88.3042 9.86084 92.1353 8.09521Z" fill="#FFE100"/>
<path d="M34.8692 92.895C41.2988 89.7969 46.9954 87.6981 51.9591 86.5988C55.9567 85.7326 61.2703 85.3162 67.8997 85.3495C74.4292 85.3495 77.9104 85.7659 78.3435 86.5988C80.2091 90.1633 82.0746 95.1937 83.9402 101.69C85.939 108.752 87.4048 115.732 88.3376 122.627C90.7029 140.484 88.7707 151.744 82.541 156.407C77.9771 159.872 69.9984 159.489 58.6052 155.258C53.6081 153.459 49.927 152.277 47.5617 151.71C44.5302 151.011 41.4154 150.727 38.2172 150.861C34.9858 150.994 32.1209 150.628 29.6223 149.761C27.357 148.995 25.7246 147.979 24.7252 146.713C22.4599 143.782 21.6104 138.835 22.1767 131.872C22.6098 126.642 23.6758 121.328 25.3748 115.931L28.2232 107.836L31.0215 100.291C31.388 99.3912 32.1375 97.8921 33.2702 95.7933L34.8692 92.895Z" fill="#FFE100"/>
<path d="M34.8693 92.895C35.9354 92.5286 36.7682 93.528 37.3679 95.8933C38.0008 98.3918 37.8842 100.99 37.0181 103.689C36.0853 106.554 34.303 109.352 31.6712 112.084C29.0728 114.815 26.974 116.098 25.375 115.931C23.6093 115.965 21.877 115.698 20.178 115.132C18.6789 114.599 17.896 114.099 17.8294 113.633C17.8294 112.933 18.1959 112.317 18.9288 111.784L17.1298 108.486C16.5302 107.287 16.2637 106.587 16.3303 106.387C16.4969 106.121 17.1465 106.037 18.2792 106.137C18.2458 104.172 18.9787 103.589 20.4779 104.388C20.5445 102.822 21.1941 102.606 22.4267 103.739C23.4261 102.14 24.7587 100.524 26.4243 98.8915C27.8568 97.459 29.2227 96.293 30.5219 95.3935C31.5879 94.3608 33.0371 93.528 34.8693 92.895Z" fill="#FFE100"/>
<path d="M92.1354 8.09523C95.6 6.29629 99.1479 4.81383 102.779 3.64786C107.276 2.21537 109.892 2.0488 110.624 3.14815C111.557 4.54732 109.458 8.57827 104.328 15.241C99.5976 21.3374 95.3002 26.0346 91.4358 29.3327C92.6351 25.6348 93.318 21.9037 93.4846 18.1393C93.6511 14.175 93.2014 10.8269 92.1354 8.09523Z" fill="#0D131A"/>
<path d="M16.8799 146.413C18.6455 144.948 20.5444 143.898 22.5765 143.265C24.4421 147.696 28.4564 150.211 34.6194 150.811C31.6878 152.277 28.2065 153.326 24.1756 153.959C20.1113 154.559 17.7294 154.392 17.0298 153.459C15.6639 153.792 14.8644 153.609 14.6312 152.91C14.4313 152.343 14.5646 151.71 15.031 151.011C14.0649 149.745 14.6812 148.212 16.8799 146.413Z" fill="#FFE100"/>
<path d="M73.6963 158.706C76.3947 158.806 78.8599 158.34 81.0919 157.307C83.1907 156.341 84.6731 155.092 85.5393 153.559C87.2716 156.424 88.3376 159.139 88.7374 161.704C89.1371 164.336 88.7374 166.002 87.5381 166.701C87.5048 167.667 87.0551 168.15 86.1889 168.15C85.4227 168.117 84.7897 167.801 84.29 167.201C83.8903 168.3 82.2912 167.817 79.4929 165.752C76.6279 163.62 74.6957 161.271 73.6963 158.706Z" fill="#FFE100"/>
<path d="M41.865 78.1538L45.263 75.9551C45.9292 75.4554 46.9287 75.0056 48.2612 74.6059L51.0596 74.1062L55.307 73.6564C55.2071 74.6225 54.8406 75.5886 54.2077 76.5547L48.7109 76.8545C46.8121 77.5541 45.6294 78.6035 45.163 80.0027L41.865 78.1538Z" fill="#B50005"/>
<path d="M45.1133 79.9527C45.7796 78.6535 46.9955 77.6374 48.7611 76.9045C50.6933 76.105 52.5422 76.005 54.3078 76.6047C51.5761 80.2025 48.5113 81.3185 45.1133 79.9527Z" fill="#E50012"/>
<path d="M17.9291 112.933C18.4622 113.333 19.6615 113.55 21.527 113.583L26.1243 113.083L25.4247 115.832C23.5925 115.898 21.7769 115.615 19.9779 114.982C18.0791 114.316 17.3961 113.633 17.9291 112.933Z" fill="#F9BE00"/>
<path d="M48.1613 98.2419C48.128 97.7755 49.2774 97.3591 51.6093 96.9926L55.2072 97.1925C55.2405 97.5923 54.7908 98.0087 53.858 98.4418L51.6593 99.0914L49.5105 98.9914C48.6111 98.8249 48.1613 98.575 48.1613 98.2419Z" fill="#F9BE00"/>
<path d="M22.1767 134.77C23.376 143.665 28.2731 147.763 36.868 147.063C41.1987 146.697 45.3796 146.996 49.4105 147.962C52.8752 148.795 57.056 150.344 61.9531 152.61C67.4832 155.208 72.9466 155.508 78.3434 153.509C85.2393 150.977 89.0038 144.881 89.6367 135.22C89.5701 142.782 88.5707 148.329 86.6385 151.86C83.5403 157.623 77.7937 159.739 69.3987 158.206C66.6004 157.707 61.3368 156.174 53.6081 153.609C47.2785 151.51 43.1309 150.578 41.1654 150.811C34.9691 151.544 30.1719 150.661 26.7739 148.162C23.0095 145.397 21.4771 140.933 22.1767 134.77Z" fill="#F9BE00"/>
<path d="M18.5789 145.364C18.7454 145.131 19.445 144.781 20.6776 144.315L22.9263 143.515C23.5926 145.447 25.2416 147.163 27.8734 148.662C30.2719 150.028 32.504 150.711 34.5694 150.711C32.4706 151.844 30.122 152.693 27.5236 153.259C24.4254 148.629 21.4438 145.997 18.5789 145.364Z" fill="#F9BE00"/>
<path d="M77.4941 164.053L75.4453 161.554C74.779 160.555 74.3127 159.606 74.0461 158.706C78.9099 159.206 82.7077 157.507 85.4394 153.609C86.5388 155.308 87.205 156.541 87.4382 157.307C85.2062 157.44 83.1574 158.123 81.2919 159.356C79.393 160.588 78.1271 162.154 77.4941 164.053Z" fill="#F9BE00"/>
<path d="M26.0745 63.0127C27.6402 62.5796 29.1393 62.8461 30.5718 63.8122C31.971 64.7783 32.9204 66.1775 33.4201 68.0098C33.9531 69.7754 33.8032 71.3744 32.9704 72.8069C32.2042 74.1395 31.0215 75.0556 29.4225 75.5553C27.8234 76.0217 26.241 75.8551 24.6753 75.0556C23.1429 74.2561 22.1601 73.0734 21.727 71.5077C21.194 69.6754 21.3273 67.9431 22.1268 66.3108C22.9263 64.6118 24.2422 63.5124 26.0745 63.0127Z" fill="#0D131A"/>
<path d="M25.7746 63.7123L28.0233 63.8122C28.7228 64.1454 29.2059 64.6617 29.4724 65.3613C29.7389 66.1275 29.7389 66.8604 29.4724 67.56C29.1726 68.2929 28.6229 68.8093 27.8234 69.1091L25.5747 69.0091C24.8751 68.676 24.4087 68.1263 24.1755 67.3601C23.9423 66.5606 23.9923 65.811 24.3254 65.1115C24.6253 64.4119 25.1083 63.9455 25.7746 63.7123Z" fill="white"/>
<path d="M61.8532 51.7194C63.7188 51.1197 65.5344 51.3196 67.3 52.319C69.1323 53.3184 70.2483 54.8342 70.648 56.8663C71.0145 58.5653 70.7646 60.1977 69.8985 61.7634C69.0656 63.3292 67.8663 64.3786 66.3006 64.9116C64.4683 65.5445 62.7194 65.4279 61.0537 64.5618C59.4546 63.7289 58.372 62.4797 57.8056 60.814C57.1393 58.7486 57.2393 56.833 58.1054 55.0674C58.905 53.3684 60.1542 52.2524 61.8532 51.7194Z" fill="#0D131A"/>
<path d="M61.5036 52.469C62.2365 52.1358 62.986 52.1358 63.7522 52.469C64.5184 52.7688 65.0515 53.3018 65.3513 54.068C65.6178 54.7676 65.6178 55.5005 65.3513 56.2667C65.0848 57.0996 64.5684 57.6492 63.8022 57.9157C63.0027 58.2156 62.2531 58.2156 61.5535 57.9157C60.8206 57.6159 60.3043 57.0996 60.0045 56.3667C59.7046 55.6338 59.688 54.8842 59.9545 54.118C60.221 53.3518 60.7374 52.8021 61.5036 52.469Z" fill="white"/>
<path d="M44.8135 70.8581C44.7801 70.7248 45.1299 70.5583 45.8628 70.3584L46.9622 70.1585L46.6624 70.8081L46.0127 71.2579L45.3132 71.2079L44.8135 70.8581Z" fill="#0D131A"/>
<path d="M78.9931 64.1121C80.259 64.6118 81.0919 65.9277 81.4916 68.0598C81.9247 70.1918 81.7581 72.2739 80.9919 74.3061C80.1591 76.6047 78.8599 78.3204 77.0942 79.453C75.3286 80.5857 73.6962 80.7856 72.1971 80.0527C70.698 79.3531 69.7153 78.0039 69.2489 76.0051C68.7492 73.9063 68.999 71.7742 69.9984 69.6088C71.0645 67.3102 72.4803 65.6445 74.2459 64.6118C75.9116 63.679 77.494 63.5125 78.9931 64.1121Z" fill="#E50012"/>
<path d="M26.0244 83.1008C27.4902 84.9664 28.473 86.8153 28.9727 88.6475C29.4724 90.5797 29.2558 91.879 28.323 92.5452C27.4236 93.1782 26.141 92.995 24.4753 91.9956C23.0428 91.1627 21.5104 89.8468 19.878 88.0479C18.4456 86.4155 17.4461 84.7332 16.8798 83.0009C16.3135 81.2353 16.3968 79.986 17.1297 79.2531C18.0291 78.4203 19.395 78.4036 21.2272 79.2031C22.9929 79.9693 24.5919 81.2686 26.0244 83.1008Z" fill="#E50012"/>
<path d="M6.08624 2.19871C10.0839 5.99646 13.9649 11.5765 17.7293 18.9388C22.1934 27.7003 25.025 36.4451 26.2243 45.1733L25.2249 46.0727C23.8591 37.3113 20.8275 28.3999 16.1303 19.3386C12.5657 12.4093 8.98452 6.96256 5.38665 2.99824C4.35393 1.9322 3.60437 1.41584 3.13798 1.44915C2.53834 1.51578 2.22186 2.39859 2.18854 4.09759C2.02198 9.89416 3.20461 17.6895 5.73645 27.4837C8.8013 39.3434 12.7656 48.6879 17.6294 55.5172L17.1297 56.7664C11.8328 49.9371 7.58535 40.626 4.38724 28.833C1.5889 18.4724 0.472893 10.1773 1.03922 3.94768C1.20579 1.74898 1.72215 0.533029 2.58831 0.299834C3.38784 0.099952 4.55381 0.732911 6.08624 2.19871Z" fill="#0D131A"/>
<path d="M6.53595 32.4808L5.48657 29.9323C5.78639 25.9014 6.58592 22.3535 7.88515 19.2886C9.15107 16.2571 10.8168 13.9418 12.8822 12.3427L13.6318 13.3921C11.4664 15.0911 9.76737 17.6729 8.53477 21.1375C7.33548 24.4689 6.66921 28.25 6.53595 32.4808Z" fill="#0D131A"/>
<path d="M94.434 25.435C101.297 18.2725 106.244 12.0429 109.275 6.74601C110.241 5.08033 110.541 3.99764 110.175 3.49793L106.427 3.39799C100.597 4.53065 94.0509 7.49557 86.7885 12.2927C77.1276 18.6556 68.7825 26.8674 61.7533 36.9282L60.604 36.5784C67.9996 25.6848 76.4446 17.1232 85.939 10.8936C93.0348 6.22965 99.7642 3.36468 106.127 2.29864C108.992 1.79894 110.708 1.98216 111.274 2.84832C111.774 3.64784 111.457 5.1303 110.325 7.29569C107.16 13.2255 102.096 19.755 95.1336 26.8841C87.2716 34.9127 80.1424 40.2595 73.7462 42.9246L72.6969 42.1751C78.9931 39.51 86.2388 33.9299 94.434 25.435Z" fill="#0D131A"/>
<path d="M92.4851 28.2333L90.6362 29.7824C92.1353 25.0852 92.9016 20.5545 92.9349 16.1905C92.9349 12.5593 92.5351 10.0607 91.7356 8.69489L92.735 7.9953C93.6011 9.49441 94.1008 11.9097 94.2341 15.241C94.3674 19.3719 93.7844 23.7027 92.4851 28.2333Z" fill="#0D131A"/>
<path d="M80.4422 92.5952C80.209 91.829 80.209 91.3959 80.4422 91.296C80.7087 91.196 80.9752 91.5292 81.2418 92.2954C87.0716 108.452 89.9533 122.911 89.8866 135.67C89.7867 148.562 86.6552 156.208 80.4922 158.606C77.1275 159.905 72.3137 159.855 66.0507 158.456C62.253 157.623 57.2726 156.074 51.1096 153.809C48.5444 152.876 46.5789 152.26 45.2131 151.96L39.0167 151.51L31.1714 151.011C28.1732 150.344 25.7079 148.929 23.7758 146.763C21.3105 144.065 20.6942 138.252 21.9268 129.323C23.1595 120.196 25.9745 110.734 30.3719 100.94C30.6717 100.274 30.9548 99.9908 31.2213 100.091C31.4545 100.191 31.4212 100.574 31.1214 101.24C27.0905 111.101 24.492 120.379 23.326 129.074C22.2267 137.602 22.8097 143.132 25.075 145.664C26.9072 147.729 29.1226 149.062 31.7211 149.661L39.0167 150.211L45.8127 150.661C47.1786 150.927 49.0941 151.544 51.5593 152.51C64.9181 157.573 74.3458 159.056 79.8426 156.957C85.4726 154.825 88.2376 147.446 88.1377 134.82C88.0711 122.827 85.5059 108.752 80.4422 92.5952Z" fill="#0D131A"/>
<path d="M29.7223 95.1437L31.1714 95.5934C27.7068 97.992 24.6586 101.123 22.0269 104.988C21.6604 105.554 21.3772 105.787 21.1774 105.687C20.9775 105.554 21.0608 105.204 21.4272 104.638C23.8258 100.54 26.5908 97.3757 29.7223 95.1437Z" fill="#0D131A"/>
<path d="M37.9173 78.7035C37.6175 78.5036 37.5342 78.3204 37.6675 78.1538L38.367 78.1038C39.5996 78.5702 41.4486 77.9206 43.9138 76.155C45.3462 75.1223 46.5955 74.4393 47.6615 74.1062C48.7276 73.7397 50.2434 73.5232 52.2089 73.4566L55.5569 72.9569C56.4563 72.6237 57.0227 72.0574 57.2559 71.2579C57.4224 70.8581 57.6057 70.6915 57.8055 70.7582C58.0054 70.7915 58.0721 71.0247 58.0054 71.4578C57.6057 73.4899 55.6735 74.5726 52.2089 74.7058L48.0113 75.3055C47.0119 75.6386 45.8626 76.2716 44.5634 77.2044C41.6984 79.2698 39.4831 79.7695 37.9173 78.7035Z" fill="#0D131A"/>
<path d="M42.4148 77.754C45.0799 79.8194 47.5451 80.4524 49.8104 79.6529C51.0097 79.2198 52.0591 78.4536 52.9585 77.3542C53.858 76.2549 54.4743 75.0223 54.8074 73.6564L56.1566 73.4066C55.9235 74.9723 55.2239 76.4214 54.0579 77.754C52.9585 79.0199 51.6593 79.936 50.1602 80.5024L45.8627 80.7522C44.297 80.4191 42.7812 79.6695 41.3154 78.5035L42.4148 77.754Z" fill="#0D131A"/>
<path d="M15.031 147.563C16.5635 145.564 19.0453 143.931 22.4766 142.666L22.9264 143.865C19.9948 145.031 17.8127 146.347 16.3802 147.812C15.1476 149.112 14.7812 150.078 15.2809 150.711L14.5313 151.76C13.4653 150.794 13.6319 149.395 15.031 147.563Z" fill="#0D131A"/>
<path d="M18.9786 147.413C19.445 147.18 19.7282 147.18 19.8281 147.413C19.9614 147.613 19.7948 147.846 19.3284 148.112C18.1957 148.779 17.213 149.578 16.3801 150.511C15.4807 151.477 15.1309 152.21 15.3308 152.71L17.0298 152.86L17.4795 153.959L15.4307 154.159C14.6312 154.059 14.1481 153.776 13.9816 153.309C13.6484 152.41 14.0982 151.311 15.3308 150.011C16.4301 148.845 17.6461 147.979 18.9786 147.413Z" fill="#0D131A"/>
<path d="M33.8699 150.661L35.9187 150.961C32.2209 152.793 28.0733 154.026 23.4761 154.659C18.9454 155.258 16.4969 154.942 16.1304 153.709C15.9305 153.076 16.3469 152.277 17.3797 151.311C18.479 150.244 19.7616 149.528 21.2274 149.162C21.6938 149.062 21.9603 149.112 22.0269 149.312C22.0935 149.545 21.9103 149.745 21.4772 149.911C20.3779 150.344 19.4285 150.894 18.6289 151.56C17.8627 152.227 17.5296 152.76 17.6295 153.159C17.7628 153.726 19.4285 153.859 22.6266 153.559C26.3577 153.193 30.1055 152.227 33.8699 150.661Z" fill="#0D131A"/>
<path d="M72.9966 158.656L74.4457 158.556C75.3452 160.988 77.0109 163.153 79.4428 165.052C81.6082 166.751 83.0073 167.418 83.6403 167.051C83.9401 166.851 83.8901 166.202 83.4904 165.102C83.1239 164.003 82.5409 162.804 81.7414 161.504C81.5082 161.171 81.4916 160.938 81.6914 160.805C81.858 160.705 82.0745 160.805 82.3411 161.105C83.3738 162.337 84.1067 163.736 84.5398 165.302C84.9728 166.935 84.8729 167.917 84.2399 168.25C83.2738 168.75 81.4916 168.034 78.8931 166.102C75.9948 163.936 74.0293 161.454 72.9966 158.656Z" fill="#0D131A"/>
<path d="M85.4394 160.455C85.2395 159.989 85.2562 159.705 85.4893 159.606C85.6892 159.506 85.9058 159.672 86.139 160.105C87.3049 162.304 87.9212 164.253 87.9879 165.952C88.0212 167.418 87.6714 168.3 86.9385 168.6L85.5893 168.65C84.9896 168.517 84.4566 168.2 83.9902 167.701L84.4899 166.601C85.3228 167.434 85.9891 167.734 86.4888 167.501C86.8885 167.301 87.0218 166.601 86.8885 165.402C86.722 164.07 86.2389 162.421 85.4394 160.455Z" fill="#0D131A"/>
<path d="M85.0396 154.059L85.939 152.959C87.7713 155.991 88.8873 158.956 89.287 161.854C89.6868 165.019 89.0372 166.968 87.3382 167.701L87.4881 166.302C88.3209 165.502 88.4875 163.87 87.9878 161.404C87.4881 159.006 86.5054 156.557 85.0396 154.059Z" fill="#0D131A"/>
<path d="M54.4077 76.055L53.958 76.9545C52.4922 76.4881 50.8765 76.588 49.1109 77.2543C47.3452 77.9206 46.1793 78.87 45.6129 80.1026L44.6135 79.8028C45.3131 78.3037 46.629 77.171 48.5612 76.4048C50.4934 75.6386 52.4422 75.522 54.4077 76.055Z" fill="#0D131A"/>
<path d="M18.5289 53.3684C18.8954 52.8354 19.1952 52.6355 19.4284 52.7688C19.6616 52.9354 19.6116 53.2852 19.2785 53.8182C17.0132 57.6826 15.5807 61.6802 14.981 65.8111C14.3814 69.9753 14.6479 74.1062 15.7805 78.2037C17.0132 82.6678 19.2285 86.4322 22.4266 89.4971C25.5914 92.4953 29.5058 94.644 34.1697 95.9433C35.0691 96.2098 35.4856 96.4596 35.4189 96.6928L33.9698 96.8427C29.1726 95.9099 24.9585 93.7945 21.3273 90.4965C17.6961 87.1984 15.2475 83.2508 13.9816 78.6535C12.8156 74.456 12.6324 70.1252 13.4319 65.6612C14.2315 61.1638 15.9305 57.0663 18.5289 53.3684Z" fill="#0D131A"/>
<path d="M51.2594 35.2292C55.7568 35.0959 59.7877 35.6956 63.3523 37.0281C63.9519 37.2613 64.2184 37.4945 64.1518 37.7277L63.1024 37.8276C55.3737 35.6956 47.1785 36.1286 38.517 39.1269C33.0202 40.9924 28.3896 43.6908 24.6252 47.2221C24.1588 47.6552 23.8423 47.7884 23.6757 47.6218C23.4759 47.422 23.5925 47.0888 24.0255 46.6224C27.5568 42.6248 32.2207 39.6266 38.0172 37.6278C42.448 36.1286 46.862 35.3291 51.2594 35.2292Z" fill="#0D131A"/>
<path d="M84.0901 56.5165C85.7225 61.1471 86.1889 66.2108 85.4893 71.7075C84.6898 77.9372 82.4911 82.9342 78.8932 86.6987C78.4601 87.1651 78.1603 87.315 77.9938 87.1484C77.7939 86.9818 77.8772 86.6487 78.2436 86.149C81.3751 82.0514 83.274 77.121 83.9402 71.3578C84.5399 66.1608 84.0568 61.3803 82.4911 57.0162C80.1925 50.4535 76.3947 45.3065 71.0978 41.5754C70.5315 41.1756 70.3316 40.8758 70.4982 40.6759C70.6314 40.476 70.9979 40.5427 71.5975 40.8758C74.3959 42.5082 76.8944 44.6902 79.0931 47.4219C81.2585 50.1536 82.9242 53.1852 84.0901 56.5165Z" fill="#0D131A"/>
<path d="M22.5764 103.289L21.9768 104.038C21.577 103.739 21.2939 103.622 21.1273 103.689L20.9274 104.288L20.6276 104.938L19.878 104.738L19.1285 104.588C18.8953 104.688 18.762 105.021 18.7287 105.588L18.5288 106.537H17.6294L16.8798 106.687C16.7465 106.887 17.1296 107.77 18.0291 109.335L19.4283 111.784L18.8786 112.484C18.4788 112.883 18.2956 113.216 18.3289 113.483C18.3956 113.883 19.345 114.299 21.1773 114.732L25.4747 115.182L25.2249 116.381C23.7924 116.514 22.11 116.248 20.1778 115.582C18.2457 114.949 17.2129 114.316 17.0797 113.683C16.9797 113.083 17.3795 112.434 18.279 111.734C16.3801 108.569 15.5473 106.704 15.7804 106.137C15.8804 105.904 16.1802 105.754 16.6799 105.688L17.9292 105.787C17.8625 105.354 17.8959 104.921 18.0291 104.488C18.1291 104.055 18.2956 103.772 18.5288 103.639L19.2784 103.539C19.6115 103.605 19.8947 103.722 20.1279 103.889C20.1945 103.122 20.4277 102.689 20.8275 102.589L21.677 102.739L22.5764 103.289Z" fill="#0D131A"/>
<path d="M94.9338 98.7915C91.4358 103.222 87.155 106.32 82.0913 108.086C78.5934 109.285 74.6791 107.836 70.3483 103.739C65.9842 99.6077 64.8516 96.0765 66.9503 93.1449C69.0824 90.18 71.9807 87.2484 75.6452 84.3501C79.9093 80.9521 83.9236 78.7367 87.688 77.704C89.0539 75.5386 89.9367 74.406 90.3365 74.306L91.7856 74.6059C92.4852 74.939 93.1015 75.522 93.6345 76.3548C95.4001 76.588 96.8826 77.4042 98.0819 78.8034C99.3478 80.2359 100.031 82.0015 100.131 84.1002C100.331 89.2305 98.5983 94.1276 94.9338 98.7915Z" fill="#FFE100"/>
<path d="M99.5809 81.5018C101.446 86.5321 100.147 92.0455 95.6832 98.042C91.4857 103.739 86.9384 106.92 82.0413 107.586C86.5719 105.488 90.7028 101.64 94.4339 96.0432C98.1317 90.4798 99.8474 85.6327 99.5809 81.5018Z" fill="#F9BE00"/>
<path d="M92.1352 74.306C92.8681 74.6392 93.4845 75.2055 93.9842 76.005C98.1817 76.5047 100.48 79.4197 100.88 84.7499C101.213 89.2139 99.7308 93.7279 96.4327 98.2918C92.8348 103.189 88.1876 106.537 82.491 108.336L81.4416 108.236C81.3416 107.969 81.5915 107.72 82.1911 107.486C87.3547 105.521 91.6355 102.256 95.0335 97.6922C98.3316 93.2615 99.8473 88.9973 99.5808 84.8998C99.2477 80.4357 97.3821 77.804 93.9842 77.0044C93.5511 76.9711 93.2679 76.8046 93.1347 76.5047C92.9015 76.0717 92.485 75.7219 91.8854 75.4554L90.3363 75.2055C90.0365 75.3054 89.6367 75.7718 89.137 76.6047C88.6373 77.5041 88.2376 78.0039 87.9377 78.1038C84.04 79.6362 80.6087 81.4518 77.6438 83.5506C74.1792 86.0158 70.8478 89.1639 67.6497 92.995C67.25 93.4614 66.9335 93.6113 66.7003 93.4447C66.5004 93.2781 66.5837 92.9284 66.9502 92.3953C70.4481 87.8647 74.1292 84.3001 77.9936 81.7017C80.7586 79.8361 83.8402 78.3536 87.2381 77.2543L88.4874 75.6552C89.0871 74.6891 89.6367 74.1561 90.1364 74.0562C90.7694 73.8896 91.4357 73.9729 92.1352 74.306Z" fill="#0D131A"/>
<path d="M90.9859 77.2543L91.8854 77.1044C92.052 77.2043 91.9687 77.4375 91.6356 77.804C91.2691 78.237 91.0859 78.5202 91.0859 78.6534C91.0859 78.8866 91.1858 79.1532 91.3857 79.453L91.6855 80.0526L91.2858 80.6023C91.0193 80.9021 90.886 81.2353 90.886 81.6017C90.886 82.0348 91.0193 82.4512 91.2858 82.851L91.6855 83.6005L91.4357 84.2002C91.2358 84.5333 91.1525 84.8331 91.1858 85.0996C91.2191 85.3661 91.419 85.6993 91.7855 86.099L92.3851 86.8486L92.1353 87.5982C92.002 87.9979 91.9687 88.3644 92.0353 88.6975L92.8348 89.3971L94.184 89.8468C94.6171 89.8801 94.8337 90.0134 94.8337 90.2466L94.284 90.6464L92.4351 90.3465C91.7022 90.0467 91.2524 89.6469 91.0859 89.1472C90.9859 88.8807 90.9693 88.5309 91.0359 88.0979C91.1025 87.6315 91.2524 87.265 91.4856 86.9985L90.6361 86.2989C90.3696 85.9658 90.2197 85.6327 90.1864 85.2995C90.0532 84.6999 90.2864 84.1335 90.886 83.6005C90.253 83.0675 89.8866 82.4512 89.7866 81.7516C89.72 81.0187 90.0532 80.4024 90.7861 79.9027C90.353 79.5696 90.1364 79.1198 90.1364 78.5535C90.1031 78.3203 90.1864 78.0705 90.3863 77.804L90.9859 77.2543Z" fill="#0D131A"/>
<path d="M18.5289 53.3684C18.8954 52.8354 19.1952 52.6355 19.4284 52.7688C19.6616 52.9354 19.6116 53.2852 19.2785 53.8182C17.0132 57.6826 15.5807 61.6802 14.981 65.8111C14.3814 69.9753 14.6479 74.1062 15.7805 78.2037C17.0132 82.6678 19.2285 86.4322 22.4266 89.4971C25.5914 92.4953 29.5058 94.644 34.1697 95.9433C35.0691 96.2098 35.4856 96.4596 35.4189 96.6928L33.9698 96.8427C29.1726 95.9099 24.9585 93.7945 21.3273 90.4965C17.6961 87.1984 15.2475 83.2508 13.9816 78.6535C12.8156 74.456 12.6324 70.1252 13.4319 65.6612C14.2315 61.1638 15.9305 57.0663 18.5289 53.3684Z" fill="#0D131A"/>
</svg>
