<svg width="190" height="183" viewBox="0 0 190 183" fill="none" xmlns="http://www.w3.org/2000/svg">
<path d="M87.0437 94.3931C85.248 93.3955 82.1054 89.2885 77.6161 82.0723C73.7586 75.8537 71.198 71.2978 69.9343 68.4047C68.7704 65.8108 67.5067 62.2526 66.1433 57.7299C64.5138 52.5422 63.9817 49.7322 64.547 49.2999C65.4117 48.6681 68.0055 48.2856 72.3286 48.1526L73.8251 43.1146C74.989 39.7226 75.97 38.0266 76.7681 38.0266C77.5662 38.0266 81.8394 41.1692 89.5877 47.4543L100.961 56.882L103.355 61.7205C105.716 65.6445 108.759 69.2527 112.483 72.5449L111.885 79.4286C110.854 84.5165 108.692 88.3408 105.4 90.9014C101.609 93.861 98.2007 95.5736 95.1745 96.0392C92.5141 96.4383 89.8039 95.8896 87.0437 94.3931Z" fill="#92A8F7"/>
<path d="M165.259 11.8885C173.14 17.5086 177.081 23.8436 177.081 30.8935C177.081 32.2237 176.715 33.3211 175.983 34.1857L174.337 31.941C171.909 36.7962 170.696 41.0694 170.696 44.7607C170.696 50.1812 171.544 52.8914 173.24 52.8914C174.005 52.8914 174.703 52.5256 175.335 51.794L176.083 50.6467L177.48 52.3926C178.377 53.9223 178.826 55.5518 178.826 57.281C178.826 59.0435 178.244 60.5732 177.081 61.8702L175.335 63.3167C174.271 68.2384 170.712 72.7943 164.66 76.9844C158.009 81.5735 150.61 83.8681 142.463 83.8681C130.092 83.8681 119.317 79.4286 110.139 70.5496C101.227 61.9699 96.7708 52.2928 96.7708 41.5184C96.7708 30.1121 101.227 20.7509 110.139 13.4349C118.32 6.75072 127.814 3.40863 138.622 3.40863C148.465 3.40863 157.344 6.23527 165.259 11.8885Z" fill="#92A8F7"/>
<path d="M164.012 78.9796C165.608 79.678 167.187 80.4428 168.75 81.2742C171.278 82.6376 174.753 84.8158 179.176 87.8087H182.368C184.53 87.9085 185.644 88.1911 185.71 88.6567C185.877 89.3551 185.61 91.051 184.912 93.7447L186.758 94.5428C188.021 95.1414 188.703 95.6734 188.803 96.139C188.969 96.8373 187.706 98.5333 185.012 101.227C185.877 102.491 186.076 103.638 185.61 104.669C185.178 105.6 183.066 106.731 179.275 108.061C174.986 109.524 170.879 110.256 166.955 110.256C163.363 110.256 159.938 109.757 156.679 108.759L152.838 107.263C153.337 103.073 153.503 98.9157 153.337 94.7922C153.237 92.2316 152.738 89.4714 151.84 86.5118L150.494 82.8205L156.879 80.8253C158.009 80.4262 159.755 79.545 162.116 78.1815L164.012 78.9796Z" fill="#92A8F7"/>
<path d="M75.1219 120.93C76.9177 120.93 78.9961 121.978 81.3572 124.073C84.1173 126.5 86.3121 129.676 87.9416 133.6C91.8324 143.045 93.096 149.263 91.7326 152.256C91.2338 153.42 89.9202 155.432 87.7919 158.292C84.9986 162.05 83.103 164.71 82.1054 166.273L75.7205 175.501C73.2929 178.827 71.863 180.572 71.4307 180.739C70.8986 180.971 68.5708 178.993 64.4472 174.803C57.5635 177.563 53.9554 178.86 53.6229 178.693C53.3236 178.56 52.9744 176.199 52.5754 171.61C47.1881 168.75 44.4612 166.888 44.3947 166.023C44.3615 165.491 45.542 164.145 47.9363 161.983L51.5278 158.89C51.7606 156.164 52.2096 153.104 52.8746 149.712C54.2381 142.895 56.0837 137.774 58.4115 134.349C64.4306 125.403 70.0007 120.93 75.1219 120.93Z" fill="#92A8F7"/>
<path d="M131.987 144.076C134.747 142.28 137.724 139.37 140.916 135.346L144.907 129.809L150.094 134.648C153.52 138.705 155.232 142.828 155.232 147.019C155.232 149.978 154.999 152.389 154.534 154.251L153.786 156.147L157.876 158.192C160.536 159.655 161.783 160.686 161.617 161.285C161.484 161.95 160.187 163.114 157.726 164.777C157.527 164.91 157.676 165.176 158.175 165.575C158.674 166.007 158.79 166.306 158.524 166.472C155.099 168.534 150.477 170.596 144.657 172.658C139.137 174.653 135.695 175.568 134.332 175.401C133.467 175.302 131.705 173.572 129.044 170.214C126.683 167.221 125.253 165.176 124.754 164.078C124.455 163.446 122.294 161.418 118.27 157.993L112.284 153.054C120.963 149.895 127.531 146.902 131.987 144.076Z" fill="#92A8F7"/>
<path d="M2.39429 94.8421C2.39429 85.7969 5.37057 78.3312 11.3231 72.4452C16.9764 66.8251 23.7603 64.0151 31.6749 64.0151C38.7914 64.0151 44.4779 66.5259 48.7345 71.5473C53.1574 76.735 55.3688 83.918 55.3688 93.0963L54.4211 102.723C53.7892 108.144 53.4733 112.75 53.4733 116.541C53.4733 120.698 54.4044 124.771 56.2667 128.762C57.1646 130.724 58.0791 132.287 59.0102 133.451L56.8154 138.04L54.4211 144.225C52.0932 144.192 49.2666 143.776 45.9412 142.978C39.2902 141.315 33.4707 138.505 28.4825 134.548C21.1997 128.729 15.1973 122.477 10.4751 115.793C5.08791 108.144 2.39429 101.16 2.39429 94.8421Z" fill="#92A8F7"/>
<path d="M112.484 72.5449L117.572 75.8371C121.762 78.3312 125.869 80.3431 129.892 81.8728C133.916 83.4025 138.555 84.0177 143.809 83.7185L150.494 82.8206L152.09 87.9085C153.121 91.9988 153.636 95.8896 153.636 99.5809C153.636 114.479 148.465 127.365 138.123 138.239C127.614 149.28 114.961 154.8 100.163 154.8C97.6686 154.8 95.4738 154.517 93.5783 153.952L91.4833 153.054C91.8491 151.558 91.9322 149.529 91.7327 146.969C91.3004 141.847 89.621 136.61 86.6946 131.256C83.8015 125.902 80.792 122.56 77.666 121.23C76.7016 120.797 75.7871 120.598 74.9225 120.631L73.875 120.781L76.818 118.137C79.1126 115.676 81.1411 112.766 82.9036 109.408C84.6994 106.049 85.9298 102.607 86.5949 99.0821L87.0438 94.8421L88.4405 95.4906C89.6377 95.9229 90.9013 96.1889 92.2315 96.2887C96.5214 96.5547 100.745 94.9751 104.902 91.5499C108.426 88.6568 110.738 84.6163 111.835 79.4286L112.484 72.5449Z" fill="#F2E100"/>
<path d="M82.8538 90.5023C83.6851 91.6663 85.165 93.0962 87.2933 94.7922L86.545 99.4312C85.7469 103.089 84.583 106.332 83.0533 109.158C81.5568 112.018 79.5283 114.828 76.9677 117.588L73.5757 120.88L72.0294 121.429L68.837 122.776C67.9391 123.241 66.8251 124.156 65.4949 125.519L63.749 127.465C64.0483 125.569 64.4474 123.524 64.9462 121.329C65.9106 116.973 66.8417 114.08 67.7396 112.65C68.3382 111.719 69.7515 110.039 71.9795 107.612C74.1078 105.251 75.704 103.156 76.7682 101.327C77.9654 99.2649 78.7635 96.1057 79.1625 91.8492L79.4618 86.0629L82.8538 90.5023Z" fill="#EEEEEF"/>
<path d="M79.1127 91.6996C78.8134 96.2887 78.0319 99.6142 76.7682 101.676C75.7041 103.472 73.9582 105.667 71.5306 108.26C69.1695 110.754 67.723 112.484 67.1909 113.448C65.9937 115.576 64.7966 120.049 63.5994 126.866L59.0103 133.451C58.0791 132.553 57.1646 131.123 56.2668 129.161C54.4045 125.204 53.4734 120.515 53.4734 115.094C53.4734 102.391 56.167 90.5856 61.5543 79.6781C64.2479 74.2243 66.9415 70.0509 69.6351 67.1577L74.1744 75.9369L79.1626 85.4145L79.1127 91.6996Z" fill="#CF7100"/>
<path d="M90.7849 48.5518L96.2719 44.7607L99.2648 56.2336L90.7849 48.5518Z" fill="#EEEEEF"/>
<path d="M122.111 43.1645C121.778 42.5659 121.712 41.0029 121.911 38.4756C122.177 35.6822 122.709 32.9387 123.508 30.2451C125.835 22.6963 129.427 18.9219 134.282 18.9219C136.244 18.9219 137.691 20.2853 138.622 23.0122C139.752 26.2379 139.503 30.3282 137.873 35.2831C137.009 37.877 135.911 40.2547 134.581 42.4162C133.284 44.5113 132.187 45.7417 131.289 46.1075C130.491 46.4068 128.795 46.0909 126.201 45.1597C123.707 44.2619 122.344 43.5968 122.111 43.1645Z" fill="#C6000B"/>
<path d="M174.337 31.941C174.836 31.941 175.451 32.656 176.183 34.086C177.18 36.0147 177.679 38.3758 177.679 41.1692C177.679 44.3284 177.13 47.155 176.033 49.6491C175.002 51.9769 173.938 53.1408 172.841 53.1408C171.244 53.1408 170.446 50.8961 170.446 46.4068C170.446 42.8153 171.095 39.3236 172.392 35.9316L174.337 31.941Z" fill="#C6000B"/>
<path d="M131.638 46.2571C133.401 44.5944 134.814 42.7987 135.878 40.8699C136.942 38.9079 137.89 36.8793 138.721 34.7843L138.123 40.2214C137.557 43.9127 136.892 45.9578 136.128 46.3569L133.185 46.6562L131.638 46.2571Z" fill="white"/>
<path d="M132.237 24.0098C133.068 24.1761 133.7 25.0407 134.132 26.6037C134.565 28.2664 134.581 30.1952 134.182 32.39C133.816 34.352 133.135 35.9815 132.137 37.2784C131.106 38.6418 130.042 39.2072 128.944 38.9744C127.88 38.7416 127.165 37.7938 126.8 36.1311C126.434 34.6014 126.467 32.8555 126.899 30.8935C127.398 28.6322 128.213 26.8365 129.344 25.5063C130.374 24.3424 131.339 23.8435 132.237 24.0098Z" fill="#0D131A"/>
<path d="M171.793 47.4045C171.294 47.2382 171.012 46.5565 170.945 45.3593C170.878 44.3284 170.978 43.1811 171.244 41.9175C171.51 40.6538 171.926 39.5065 172.491 38.4756C173.156 37.3117 173.772 36.8628 174.337 37.1288C174.936 37.3948 175.251 38.1763 175.285 39.4733C175.351 40.5374 175.218 41.8011 174.886 43.2643C174.62 44.4282 174.121 45.4591 173.389 46.357C172.724 47.1551 172.192 47.5042 171.793 47.4045Z" fill="#0D131A"/>
<path d="M133.633 19.4207C134.265 19.7865 134.797 20.568 135.23 21.7652C135.695 23.2284 135.712 24.6583 135.28 26.055C134.814 27.5847 133.966 28.7154 132.736 29.447C131.638 30.1453 130.607 30.3282 129.643 29.9957C128.446 29.6299 127.648 28.7985 127.249 27.5016C126.85 26.1714 126.966 24.6583 127.598 22.9623C128.13 21.5657 129.127 20.5015 130.591 19.7699C131.921 19.1048 132.935 18.9884 133.633 19.4207Z" fill="white"/>
<path d="M174.237 33.6869C174.537 33.7867 174.769 34.1857 174.936 34.8841C175.102 35.6157 175.102 36.3639 174.936 37.1288C174.437 39.4233 173.805 40.5041 173.04 40.3711C172.575 40.2713 172.275 39.8723 172.142 39.1739C172.009 38.4756 172.059 37.6442 172.292 36.6798C172.891 34.485 173.539 33.4874 174.237 33.6869Z" fill="white"/>
<path d="M112.484 72.5449L118.669 76.1364C123.857 78.7635 129.011 80.7422 134.132 82.0724C137.358 82.8705 141.066 83.1698 145.256 82.9702L150.544 82.4215L151.292 84.2672C150.494 84.9655 149.33 85.6805 147.8 86.4121C144.741 87.8088 141.365 88.5071 137.674 88.5071C133.617 88.5071 128.629 86.4453 122.709 82.3218C117.389 78.5973 113.98 75.3383 112.484 72.5449Z" fill="#CBBD00"/>
<path d="M129.743 145.472C120.698 151.691 111.004 154.8 100.662 154.8L94.177 153.952L91.4834 153.054L92.0321 150.66C92.2981 148.764 92.2649 147.085 91.9323 145.622L91.0345 140.783L90.6853 138.539C97.4027 140.966 105.816 142.08 115.926 141.881C127.033 141.681 135.13 139.769 140.218 136.144C137.757 139.27 134.265 142.38 129.743 145.472Z" fill="#CBBD00"/>
<path d="M82.355 59.1267C82.0225 60.1909 81.6234 60.8559 81.1578 61.122C80.7255 61.388 80.4096 61.0887 80.2101 60.2241C79.9108 58.6944 79.7944 56.7324 79.8609 54.338L80.0604 51.1955C80.0604 50.0648 80.2267 49.2501 80.5593 48.7513C80.9251 48.1194 81.3906 48.5684 81.9559 50.0981C83.1199 53.224 83.2529 56.2336 82.355 59.1267Z" fill="#72B0A6"/>
<path d="M86.6946 94.5428C84.5995 92.9466 81.6233 89.1057 77.7657 83.0201C74.3405 77.5664 71.8963 73.1269 70.4331 69.7017C69.2692 67.0413 68.1053 63.8987 66.9414 60.274C65.9437 57.2146 65.262 54.8701 64.8962 53.2407C64.4639 51.4449 64.547 50.3475 65.1456 49.9485C65.844 49.4496 67.0744 50.547 68.8369 53.2407L87.3929 75.6875C97.4691 87.8254 101.942 94.2103 100.811 94.8421C98.9821 95.873 96.8538 96.455 94.4263 96.588C91.3336 96.7875 88.7564 96.1058 86.6946 94.5428Z" fill="#72B0A6"/>
<path d="M166.156 110.206C162.465 110.206 159.14 109.724 156.18 108.759L152.838 107.263L153.636 99.5809C155.864 100.911 159.988 102.191 166.007 103.422C173.422 104.952 179.957 105.367 185.61 104.669C184.978 105.6 183.698 106.531 181.769 107.462C177.879 109.291 172.674 110.206 166.156 110.206Z" fill="#72B0A6"/>
<path d="M130.391 145.323C128.728 146.52 128.213 148.249 128.845 150.51C129.41 152.672 130.89 154.833 133.284 156.995C139.137 162.282 146.071 164.427 154.085 163.43L152.589 162.781C151.458 162.349 150.959 162.116 151.092 162.083L156.479 161.584L161.917 160.437C161.218 161.833 159.855 163.247 157.826 164.677C157.693 164.743 157.776 165.026 158.076 165.525C158.375 165.99 158.441 166.273 158.275 166.373C156.878 167.271 153.985 168.8 149.596 170.962C145.239 173.057 141.465 174.42 138.273 175.052L133.733 175.252C132.968 175.019 130.142 171.244 125.253 163.928L112.035 153.553L115.925 152.156L122.61 149.463C125.17 148.299 127.764 146.919 130.391 145.323Z" fill="#72B0A6"/>
<path d="M44.7938 166.373C44.6608 165.741 46.1572 166.107 49.2832 167.47C52.2761 168.767 53.573 170.031 53.1739 171.261L48.5848 169.715L44.7938 166.373Z" fill="#72B0A6"/>
<path d="M64.0982 174.603L57.6136 177.596L54.8701 178.195L53.1741 178.394L53.623 176.798C53.8225 177.097 55.186 176.565 57.7133 175.202C60.6397 173.672 62.4022 172.841 63.0008 172.708C63.9319 172.475 64.4973 172.674 64.6968 173.306C64.8631 173.872 64.6635 174.304 64.0982 174.603Z" fill="#72B0A6"/>
<path d="M68.9866 179.192C69.3191 179.359 70.35 178.411 72.0792 176.349C73.8085 174.287 75.1054 172.442 75.97 170.812L84.0509 155.199C88.4737 146.154 90.5189 140.8 90.1864 139.137L91.5831 144.175C92.3812 147.933 92.3479 150.893 91.4833 153.054C90.7184 154.983 89.5878 156.812 88.0913 158.541C85.8633 161.069 84.1839 163.197 83.0533 164.926C76.0033 175.701 72.2123 181.088 71.6802 181.088L70.0341 180.14L68.9866 179.192Z" fill="#72B0A6"/>
<path d="M57.2144 136.843L54.421 144.225C52.193 144.325 49.3663 143.942 45.9411 143.078C39.0906 141.349 32.6891 138.09 26.7366 133.301C20.518 128.313 15.2804 122.743 11.0238 116.591L6.53442 108.859C12.9526 112.384 16.6272 114.196 17.5583 114.296C18.5227 114.429 21.7151 113.731 27.1356 112.201C30.4611 119.051 35.4825 125.004 42.2 130.059C48.219 134.581 53.2238 136.843 57.2144 136.843Z" fill="#72B0A6"/>
<path d="M3.49161 85.0154C4.22321 82.6543 5.23747 80.393 6.5344 78.2315L8.23038 75.6875C7.16624 81.5403 7.54866 86.8112 9.37767 91.5C10.9739 95.5904 13.468 98.8161 16.8599 101.177C19.9859 103.372 23.2448 104.419 26.6368 104.32C30.0953 104.187 32.7723 102.873 34.6678 100.379L34.0193 102.823C33.454 104.652 32.7723 106.165 31.9741 107.362C30.91 108.992 29.1974 110.505 26.8363 111.902C24.1427 113.498 21.5821 114.296 19.1545 114.296C16.5939 114.296 14.0666 113.531 11.5725 112.001C9.14488 110.538 7.29925 108.726 6.03558 106.564C2.01178 99.7472 1.16379 92.5642 3.49161 85.0154Z" fill="#72B0A6"/>
<path d="M59.958 83.5189C61.122 80.7256 62.369 78.2481 63.6992 76.0865L65.3453 73.6423C62.9842 79.9274 62.1196 88.0748 62.7514 98.0844C63.35 107.429 64.6968 113.215 66.7919 115.443L63.5994 126.866L59.0103 133.451C58.0127 132.786 57.0316 131.489 56.0673 129.56C54.1385 125.702 53.3238 120.565 53.623 114.146C54.1551 102.607 56.2668 92.3979 59.958 83.5189Z" fill="#A95B00"/>
<path d="M78.963 115.244L74.3738 120.781L72.179 121.429C70.5496 121.994 69.2693 122.576 68.3381 123.175L63.5994 126.866C64.2312 123.574 64.7134 121.296 65.0459 120.032L66.0935 116.99L66.7918 115.443C67.0911 116.374 68.3215 116.94 70.4831 117.139C73.1102 117.372 75.9368 116.74 78.963 115.244Z" fill="#C8C9CA"/>
<path d="M172.891 18.2236C175.418 21.5158 177.047 24.7415 177.779 27.9007C178.511 31.0266 178.195 33.3544 176.831 34.8841C176.698 35.0504 176.515 34.7677 176.282 34.0361C176.05 33.2713 175.983 32.7891 176.083 32.5895C176.881 31.2926 176.731 29.2807 175.634 26.5538C174.503 23.7605 172.674 20.9172 170.147 18.024C163.762 10.7413 156.23 6.45145 147.551 5.15452C135.213 3.29227 124.372 5.35405 115.028 11.3399C105.683 17.3257 100.146 25.7724 98.4169 36.6799C96.7542 47.2548 99.6307 56.8986 107.046 65.6113C114.429 74.2575 124.256 79.5949 136.527 81.6234C145.14 83.0534 153.287 81.7731 160.969 77.7825C168.218 73.9915 172.708 69.1031 174.437 63.1172L175.335 63.1671C175.834 63.3999 176.05 63.6327 175.983 63.8655C174.187 70.1838 169.482 75.3383 161.867 79.3289C153.852 83.4857 145.306 84.8159 136.227 83.3194C123.458 81.1911 113.132 75.5711 105.251 66.4593C97.2696 57.2478 94.1603 47.155 95.9228 36.181C97.7851 24.4422 103.488 15.5466 113.032 9.49424C122.61 3.40866 134.215 1.39676 147.85 3.45854C158.258 5.0215 166.605 9.94318 172.891 18.2236Z" fill="#0D131A"/>
<path d="M175.534 50.7465C175.435 50.6468 175.551 50.4472 175.883 50.148C176.216 49.8819 176.465 49.8154 176.632 49.9484C178.66 51.8772 179.608 54.3879 179.475 57.4806C179.309 60.54 178.178 62.8346 176.083 64.3643L174.986 64.2645C174.587 63.8655 174.104 63.4997 173.539 63.1671C172.741 62.7016 172.026 62.4688 171.394 62.4688L166.007 64.7135C162.515 66.1767 159.788 66.875 157.826 66.8085C156.995 66.7752 154.933 65.7776 151.641 63.8156C147.95 61.6208 145.672 60.3737 144.807 60.0744C143.41 59.6089 140.667 58.9937 136.577 58.2288L127.398 56.8321C125.07 56.5993 122.826 55.6516 120.664 53.9889C118.602 52.4259 117.04 50.5803 115.975 48.452C115.477 47.4211 115.41 46.8225 115.776 46.6562C116.108 46.4899 116.524 46.9223 117.023 47.9531C117.921 49.7822 119.367 51.3784 121.363 52.7418C123.391 54.1052 125.47 54.9034 127.598 55.1361L136.926 56.5328C141.149 57.3309 143.976 57.996 145.406 58.5281C146.27 58.8607 148.498 60.0744 152.09 62.1695C155.316 64.065 157.278 65.046 157.976 65.1125C159.772 65.2455 162.399 64.5804 165.857 63.1172L171.294 60.7728C172.724 60.7063 174.171 61.3049 175.634 62.5685C176.831 61.5044 177.496 59.7419 177.629 57.2811C177.762 54.5874 177.064 52.4093 175.534 50.7465Z" fill="#0D131A"/>
<path d="M152.788 54.9865C153.187 54.7869 153.786 55.3024 154.584 56.5328C155.415 57.7632 155.565 58.4948 155.033 58.7276C154.501 58.9604 153.902 58.4449 153.237 57.1813C152.572 55.8843 152.422 55.1527 152.788 54.9865Z" fill="#0D131A"/>
<path d="M166.106 58.2289C166.306 58.6279 165.924 59.1932 164.959 59.9248C164.028 60.6232 163.463 60.8393 163.263 60.5733C163.064 60.3073 163.446 59.7419 164.41 58.8773C165.342 58.0127 165.907 57.7965 166.106 58.2289Z" fill="#0D131A"/>
<path d="M172.841 26.9031L173.988 26.7534C174.121 26.9529 173.888 27.2522 173.289 27.6513L172.092 28.8983L170.895 30.7938C170.596 31.4257 170.263 31.6418 169.897 31.4423C169.532 31.2428 169.482 30.8271 169.748 30.1953C170.513 28.5658 171.544 27.4684 172.841 26.9031Z" fill="#0D131A"/>
<path d="M137.674 16.0288C137.042 15.6962 136.776 15.3803 136.876 15.081C137.009 14.815 137.391 14.815 138.023 15.081C139.22 15.6131 140.218 16.3779 141.016 17.3756C141.881 18.473 142.38 19.6868 142.513 21.0169C142.579 22.0811 142.429 22.6298 142.064 22.663C141.665 22.663 141.382 22.1642 141.216 21.1666C140.75 18.8388 139.569 17.1262 137.674 16.0288Z" fill="#0D131A"/>
<path d="M138.871 42.3165C138.006 45.3094 137.225 46.9555 136.527 47.2548C135.163 47.8534 132.386 47.6206 128.196 46.5564C123.84 45.459 121.495 44.2619 121.163 42.9649C120.864 41.7678 120.864 39.839 121.163 37.1786C121.462 34.1857 122.061 31.3425 122.959 28.6488C125.42 21.2996 129.061 17.7912 133.883 18.1238C138.838 18.4563 141.033 23.2616 140.467 32.5396C140.268 35.9316 139.736 39.1905 138.871 42.3165ZM133.783 19.8197C131.854 19.6867 130.092 20.5846 128.496 22.5134C126.899 24.4754 125.553 27.4018 124.455 31.2926C123.89 33.2878 123.441 35.6323 123.108 38.3259C122.809 40.6537 122.709 42.0671 122.809 42.5659L123.058 42.8652L124.006 43.5136C125.503 44.2785 127.731 44.9103 130.69 45.4091L135.778 45.7583C136.211 45.2928 136.726 43.8129 137.325 41.3188C138.023 38.5254 138.455 35.7986 138.622 33.1382L138.721 30.0954C138.721 26.1714 138.173 23.378 137.075 21.7153C136.277 20.5513 135.18 19.9195 133.783 19.8197Z" fill="#0D131A"/>
<path d="M138.223 24.7082C138.189 24.4754 138.422 24.3257 138.921 24.2592C139.42 24.1927 139.686 24.2759 139.719 24.5086C140.218 27.7676 139.885 31.4422 138.721 35.5325C137.391 40.2547 135.329 43.7797 132.536 46.1075L131.738 46.0077C131.339 45.8747 131.223 45.7417 131.389 45.6087C134.049 43.2808 136.011 39.839 137.275 35.2831C138.406 31.2926 138.721 27.7676 138.223 24.7082Z" fill="#0D131A"/>
<path d="M176.033 35.8817C175.601 34.4518 175.069 33.4043 174.437 32.7392C173.506 34.5349 172.757 36.763 172.192 39.4233C171.693 41.9174 171.444 44.3118 171.444 46.6063C171.444 48.6348 171.66 50.2477 172.092 51.4449C172.325 52.0102 172.541 52.2929 172.741 52.2929C173.173 52.3261 173.589 52.1765 173.988 51.8439C174.719 51.2453 175.335 50.1147 175.833 48.4519C176.299 46.7892 176.598 44.7939 176.731 42.4661L176.781 41.2191C176.781 39.2903 176.532 37.5112 176.033 35.8817ZM174.985 30.1453C175.384 29.713 175.567 29.6964 175.534 30.0954L174.985 31.6916C176.116 32.5563 177.014 34.1026 177.679 36.3307C178.311 38.4257 178.56 40.5041 178.427 42.5659C178.194 46.6562 177.446 49.7156 176.183 51.7442C175.152 53.3736 173.955 54.1219 172.591 53.9888C171.726 53.9223 171.045 53.2739 170.546 52.0434C169.582 49.6824 169.532 46.1408 170.396 41.4186C171.327 36.3972 172.857 32.6394 174.985 30.1453Z" fill="#0D131A"/>
<path d="M90.6852 49.3997L89.488 48.1527C91.3503 45.8581 93.6615 44.4614 96.4216 43.9626C96.7542 43.8961 96.9371 44.1788 96.9703 44.8106C97.0036 45.4425 96.8706 45.7916 96.5713 45.8581C94.1769 46.5232 92.2149 47.7038 90.6852 49.3997Z" fill="#0D131A"/>
<path d="M69.1861 65.9604L70.4332 68.4047C66.9415 73.0936 63.9153 78.1815 61.3547 83.6685C57.6634 91.4501 55.452 100.163 54.7204 109.807C53.889 120.614 55.5185 128.313 59.6088 132.902C59.7751 133.068 59.6587 133.334 59.2596 133.7C58.8606 134.066 58.5779 134.166 58.4117 133.999C54.0553 129.144 52.1099 121.08 52.5755 109.807C52.9745 99.4644 55.0363 90.3859 58.7608 82.5711C61.6207 76.552 65.0958 71.0151 69.1861 65.9604Z" fill="#0D131A"/>
<path d="M77.8656 93.9442C78.4642 89.9869 78.514 86.6448 78.0152 83.9179C77.9487 83.7184 78.2646 83.9013 78.963 84.4666C79.6281 85.0319 79.9772 85.431 80.0105 85.6638C80.5758 88.69 80.5259 91.9655 79.8609 95.4905C79.229 98.8492 78.248 101.476 76.9178 103.372L71.7301 109.308C69.8679 111.237 68.6707 112.75 68.1386 113.847C67.3073 115.643 66.5091 117.821 65.7443 120.382C65.0127 122.942 64.5637 124.954 64.3975 126.417L63.4996 127.814L62.6516 128.562C62.9176 126.334 63.4331 123.707 64.1979 120.681C65.0293 117.522 65.8607 115.028 66.692 113.199C67.2906 111.902 68.6374 110.106 70.7325 107.811L75.3216 102.274C76.419 100.545 77.267 97.7684 77.8656 93.9442Z" fill="#0D131A"/>
<path d="M58.7109 85.5142C58.7442 85.2814 59.0269 85.2315 59.5589 85.3645C60.091 85.4643 60.3404 85.614 60.3072 85.8135C59.5756 89.538 59.7751 94.1105 60.9057 99.531C62.1694 105.417 64.2478 110.621 67.141 115.144C67.274 115.344 67.1077 115.593 66.6422 115.892L65.7942 115.992C62.3357 110.638 60.0411 105.151 58.9105 99.531C57.8796 94.6093 57.8131 89.9371 58.7109 85.5142Z" fill="#0D131A"/>
<path d="M86.0462 94.5428C86.0462 94.3433 86.3622 94.3932 86.994 94.6925L87.9417 95.291C87.7422 104.902 83.3692 113.431 74.8228 120.88C74.6565 121.013 74.2242 121.013 73.5259 120.88C72.8608 120.747 72.6114 120.614 72.7777 120.481C75.8703 118.12 78.7635 114.545 81.4571 109.757C84.5165 104.303 86.0462 99.2317 86.0462 94.5428Z" fill="#0D131A"/>
<path d="M149.596 83.1697C149.496 82.9369 149.696 82.7208 150.194 82.5213C150.693 82.2885 150.976 82.2885 151.042 82.5213C153.403 87.8753 154.584 92.9798 154.584 97.835C154.584 120.914 145.622 137.607 127.698 147.916C121.013 151.774 113.947 154.185 106.498 155.149C99.8469 155.981 94.7756 155.532 91.2839 153.802C91.0844 153.703 91.101 153.42 91.3338 152.954C91.5666 152.456 91.7827 152.256 91.9822 152.356C95.4407 154.085 100.396 154.451 106.847 153.453C113.93 152.389 120.664 149.912 127.049 146.021C134.598 141.432 140.534 135.446 144.857 128.063C149.978 119.417 152.539 109.341 152.539 97.835C152.539 92.6473 151.558 87.7589 149.596 83.1697Z" fill="#0D131A"/>
<path d="M109.341 86.412C109.275 86.2458 109.408 85.8966 109.74 85.3645C110.106 84.8657 110.322 84.7161 110.389 84.9156C111.752 88.1745 114.213 91.1009 117.771 93.6948C121.363 96.2554 125.636 98.1675 130.591 99.4312C135.08 100.595 139.353 101.027 143.41 100.728C147.467 100.396 150.56 99.3813 152.688 97.6853C152.855 97.5523 153.104 97.702 153.437 98.1343C153.769 98.5666 153.852 98.8493 153.686 98.9823C151.292 100.878 147.966 102.058 143.71 102.524C139.32 103.023 134.781 102.674 130.092 101.476C125.204 100.213 120.897 98.2008 117.173 95.4407C113.581 92.8135 110.971 89.804 109.341 86.412Z" fill="#0D131A"/>
<path d="M140.218 101.726C139.653 108.244 136.892 117.056 131.937 128.163C126.85 139.569 122.327 146.669 118.37 149.463L117.621 149.014C117.322 148.581 117.256 148.299 117.422 148.166C120.648 145.871 124.904 138.805 130.192 126.966C135.346 115.393 138.156 106.93 138.622 101.576C138.622 101.343 138.888 101.26 139.42 101.327C139.985 101.36 140.251 101.493 140.218 101.726Z" fill="#0D131A"/>
<path d="M103.106 91.8492L103.704 92.0488L103.954 92.5975L104.802 105.667L105.4 117.489L105.201 118.037L99.5641 123.524C95.2742 127.382 91.2671 130.242 87.5425 132.104L86.944 132.154L86.4451 131.755L86.3953 131.406C86.3953 131.073 86.5449 130.824 86.8442 130.657C91.9654 128.097 97.6187 123.607 103.804 117.189L103.156 105.467L102.357 92.6972V92.6474C102.357 92.1153 102.607 91.8492 103.106 91.8492Z" fill="#0D131A"/>
<path d="M129.194 130.109L137.025 130.458C140.218 130.358 142.762 130.059 144.657 129.56C144.89 129.527 144.923 129.759 144.757 130.258L144.208 131.056C142.346 131.688 139.919 132.12 136.926 132.353C133.833 132.619 131.04 132.586 128.545 132.254C123.591 131.622 118.952 130.075 114.628 127.614C110.405 125.187 107.096 122.227 104.702 118.736C104.569 118.536 104.586 118.154 104.752 117.588C104.885 117.023 105.018 116.823 105.151 116.99C107.279 120.149 110.655 122.942 115.277 125.37C119.567 127.598 124.206 129.177 129.194 130.109Z" fill="#0D131A"/>
<path d="M91.9822 147.867C91.7494 147.833 91.6829 147.601 91.7827 147.168C91.8492 146.736 91.9988 146.536 92.2316 146.57L104.902 147.767C110.954 148.133 115.26 148.216 117.821 148.016L118.37 148.166L118.669 148.665L118.918 151.159C118.985 151.392 118.785 151.558 118.32 151.658L117.572 151.508L117.222 149.662L104.054 149.263L91.9822 147.867Z" fill="#0D131A"/>
<path d="M78.5141 122.576C77.1174 121.612 75.4547 121.346 73.5259 121.778C71.6637 122.144 69.7183 123.158 67.6898 124.821C64.7966 127.182 61.9866 130.674 59.2597 135.296C57.1979 138.755 55.4022 143.71 53.8725 150.161C53.1409 153.387 52.5922 156.297 52.2264 158.89L51.9271 159.389L47.3878 163.38C46.0909 164.71 45.4424 165.575 45.4424 165.974C45.509 166.373 46.3071 167.038 47.8368 167.969C49.3332 168.933 51.0625 169.848 53.0245 170.712C53.357 170.812 53.5233 171.045 53.5233 171.411C53.5233 174.703 53.7395 176.748 54.1718 177.546C55.502 177.28 58.8607 176.05 64.2479 173.855L65.1957 174.054L68.5876 177.746C69.818 178.91 70.6328 179.542 71.0318 179.641C71.6637 179.309 73.1934 177.463 75.621 174.104L80.8087 166.423C81.9393 164.594 84.3669 161.251 88.0914 156.396L90.0368 153.852C90.8682 152.788 91.2839 151.109 91.2839 148.814L91.0345 145.472C90.3361 141.083 88.7732 136.643 86.3456 132.154C83.8847 127.698 81.2743 124.505 78.5141 122.576ZM52.3261 148.116C53.6231 141.798 55.2692 136.959 57.2644 133.6C60.9225 127.448 64.9795 123.325 69.4356 121.23C73.3597 119.334 76.6851 119.334 79.412 121.23C84.9323 125.087 88.9561 131.023 91.4834 139.037C93.8777 146.686 93.8112 152.123 91.2839 155.349C87.1603 160.503 84.1341 164.477 82.2054 167.271L76.8181 175.85C74.2575 179.907 72.5449 182.019 71.6803 182.185C70.3834 182.485 67.9392 180.273 64.3477 175.551C62.0531 177.014 59.7585 178.211 57.464 179.142C55.2359 180.04 53.806 180.373 53.1741 180.14C52.6421 179.941 52.2929 179.259 52.1266 178.095C52.0269 177.197 51.9603 175.152 51.9271 171.959L46.2904 169.565C43.8961 168.401 42.6491 167.387 42.5493 166.522C42.4828 165.791 43.098 164.727 44.3949 163.33C45.8581 161.734 47.9532 160.071 50.68 158.342L52.3261 148.116Z" fill="#0D131A"/>
<path d="M153.137 142.529C151.408 137.541 148.365 133.534 144.009 130.508C143.876 130.408 144.092 130.059 144.657 129.46C145.189 128.828 145.555 128.579 145.755 128.712C150.61 132.104 153.836 136.726 155.432 142.579C156.862 147.8 156.696 152.223 154.933 155.848C160.287 158.142 162.964 159.938 162.964 161.235C162.964 162.033 161.384 163.48 158.225 165.575L156.679 164.278C159.373 162.648 160.719 161.601 160.719 161.135C160.719 160.769 159.955 160.171 158.425 159.339C157.028 158.541 155.382 157.76 153.487 156.995L152.938 156.496L153.137 155.748C154.833 151.791 154.833 147.384 153.137 142.529Z" fill="#0D131A"/>
<path d="M162.465 78.0319C162.964 77.5331 163.28 77.3169 163.413 77.3834C165.708 78.2148 168.833 79.9108 172.791 82.4714C177.081 85.1983 180.007 87.5261 181.57 89.4548C181.936 89.9204 181.986 90.3028 181.72 90.6021C181.42 90.8682 181.088 90.7684 180.722 90.3028C179.226 88.4406 176.1 86.1294 171.344 83.3693C167.021 80.8752 163.895 79.3787 161.966 78.8799C161.767 78.8134 161.933 78.5307 162.465 78.0319Z" fill="#0D131A"/>
<path d="M179.126 87.709C178.727 87.3432 178.627 87.1437 178.826 87.1104L183.316 86.9109C185.112 87.0439 186.209 87.3765 186.608 87.9085C186.841 88.2411 186.857 88.9727 186.658 90.1033L185.76 93.2459C188.387 94.044 189.784 94.9751 189.95 96.0393C189.983 96.4051 189.667 97.0535 189.002 97.9847C188.204 99.1153 187.09 100.279 185.66 101.476C186.325 102.308 186.658 103.206 186.658 104.17C186.658 105.134 185.644 106.215 183.615 107.412C181.487 108.643 178.86 109.607 175.734 110.305C167.586 112.134 159.888 111.403 152.638 108.111C152.406 108.011 152.372 107.645 152.539 107.013C152.672 106.348 152.838 106.066 153.038 106.165C154.9 106.997 157.194 107.695 159.921 108.26L170.247 109.258C173.639 109.258 177.014 108.526 180.373 107.063C183.299 105.766 184.762 104.769 184.762 104.07C184.762 103.505 184.496 102.723 183.964 101.726C183.765 101.393 183.798 101.077 184.064 100.778C186.359 98.4835 187.589 96.9704 187.755 96.2388C187.456 95.74 186.392 95.158 184.563 94.4929L184.014 94.1438V93.5452C184.613 91.4501 184.912 89.9204 184.912 88.956V88.8563L182.917 88.4572L179.924 88.3076L179.126 87.709Z" fill="#0D131A"/>
<path d="M27.3851 86.5618C26.321 86.2625 25.3233 86.2625 24.3922 86.5618C23.4611 86.8943 22.7295 87.4763 22.1974 88.3076C21.7984 88.9727 21.4492 89.2221 21.1499 89.0559C20.8506 88.8896 20.8672 88.4739 21.1998 87.8088C21.8981 86.4121 22.8292 85.4976 23.9932 85.0653C25.0241 84.6995 26.3044 84.6829 27.8341 85.0154C30.4279 85.5808 32.5562 87.0939 34.2189 89.5547C35.8817 91.949 36.713 94.6593 36.713 97.6854C36.713 102.341 34.9007 106.448 31.2759 110.006C27.6844 113.498 23.5941 115.244 19.005 115.244C14.2163 115.244 10.0096 113.132 6.38486 108.909C2.66035 104.619 0.798096 99.5643 0.798096 93.7448C0.798096 84.5998 4.0903 77.0011 10.6747 70.9488C16.7603 65.362 23.7604 62.5686 31.675 62.5686C39.7891 62.5686 45.9412 65.4285 50.1313 71.1483C54.3546 76.8681 56.3499 85.1152 56.1171 95.8897C56.0838 96.8208 55.7845 97.6189 55.2192 98.284C54.6539 98.9159 54.3878 98.8992 54.4211 98.2341C55.0529 87.2934 53.1574 78.8467 48.7346 72.8941C44.6442 67.4071 38.9577 64.6636 31.675 64.6636C25.0241 64.6636 18.9218 67.1411 13.3683 72.096C7.0167 77.7493 3.84089 84.9656 3.84089 93.7448C3.84089 99.1985 5.30409 103.804 8.23049 107.562C11.1569 111.32 14.7484 113.199 19.005 113.199C23.0953 113.199 26.6036 111.686 29.53 108.659C32.4232 105.633 33.8698 101.975 33.8698 97.6854C33.8698 94.5262 33.1714 91.9158 31.7747 89.854C30.5776 88.158 29.1144 87.0606 27.3851 86.5618Z" fill="#0D131A"/>
<path d="M1.94528 100.429C1.87877 100.229 2.14481 100.179 2.74339 100.279C3.34197 100.379 3.65789 100.495 3.69114 100.628C7.61518 112.101 14.6153 122.028 24.6914 130.408C34.8008 138.855 44.827 143.078 54.7702 143.078C55.0029 143.078 55.0362 143.427 54.8699 144.125C54.7037 144.824 54.5041 145.173 54.2713 145.173C44.2285 145.173 34.0359 140.817 23.6938 132.104C13.1521 123.225 5.90257 112.667 1.94528 100.429Z" fill="#0D131A"/>
<path d="M110.987 154.052C110.821 153.952 111.12 153.719 111.885 153.354C112.617 152.988 113.049 152.838 113.182 152.905C118.004 155.365 122.942 159.772 127.997 166.123L132.536 172.109C133.833 173.772 134.714 174.587 135.18 174.553C138.372 174.354 142.978 173.024 148.997 170.563C154.75 168.202 157.643 166.622 157.677 165.824C157.71 165.491 157.244 165.059 156.28 164.527C155.316 163.995 154.168 163.546 152.838 163.18C151.541 162.781 150.959 162.415 151.092 162.083L153.237 161.933C155.133 162.299 156.762 162.931 158.126 163.829C159.389 164.693 159.921 165.408 159.722 165.974C159.023 168.069 155.365 170.413 148.748 173.007C142.23 175.534 137.474 176.599 134.482 176.199C133.75 176.1 130.957 173.223 126.101 167.57C120.648 161.152 115.61 156.646 110.987 154.052Z" fill="#0D131A"/>
<path d="M100.262 54.9865C100.495 55.1195 100.695 55.6516 100.861 56.5827C101.061 57.4806 101.061 57.863 100.861 57.73C98.9322 56.5328 94.3597 52.9746 87.1435 47.0552C80.6921 41.7678 77.2835 39.1573 76.9177 39.2238C76.4522 39.2903 75.7871 40.5872 74.9224 43.1146C74.1243 45.5422 73.6255 47.6206 73.426 49.3498C73.293 50.68 73.0269 51.3285 72.6279 51.2952C72.2288 51.2952 72.0293 50.6301 72.0293 49.2999C72.0626 46.7061 72.5115 44.079 73.3761 41.4186C74.3072 38.6585 75.3049 37.162 76.369 36.9292C77.3667 36.7297 81.008 39.2404 87.2931 44.4614C94.9417 50.8463 99.2648 54.3546 100.262 54.9865Z" fill="#0D131A"/>
<path d="M112.534 72.495L113.382 72.9938C113.581 75.1221 113.315 77.6994 112.583 80.7255C111.819 83.918 110.804 86.3954 109.541 88.1579C106.514 92.348 102.757 95.1247 98.2673 96.4882C93.8445 97.8516 90.0202 97.4858 86.7945 95.3908C82.6377 92.6972 77.3835 84.9156 71.0318 72.0461C64.7467 59.3761 62.1196 51.6111 63.1505 48.7513C63.4831 47.8201 64.8465 47.288 67.2408 47.155L72.6779 47.5042C72.8775 47.5375 72.9606 47.8201 72.9274 48.3522C72.9274 48.8843 72.811 49.1337 72.5782 49.1004C71.1815 49.0007 69.7183 49.0007 68.1886 49.1004C66.5924 49.2334 65.6779 49.4163 65.4451 49.6491C64.5805 52.11 67.008 59.3595 72.7278 71.3976C78.6471 83.8348 83.6353 91.367 87.6924 93.9941C90.519 95.8564 93.8777 96.0891 97.7685 94.6924C101.659 93.2957 105.001 90.652 107.795 86.7612C109.092 84.9655 110.156 82.5878 110.987 79.6281C111.785 76.6685 112.035 74.3074 111.735 72.5449L112.534 72.495Z" fill="#0D131A"/>
<path d="M84.6994 48.1027C86.3288 49.1669 87.4429 50.1479 88.0415 51.0458C88.6733 52.0434 88.7564 52.6919 88.2909 52.9912C87.8253 53.2572 87.2766 52.908 86.6448 51.9436C86.2457 51.3118 85.3811 50.6301 84.0509 49.8985C82.7872 49.2001 81.9559 48.9009 81.5568 49.0006C81.2243 49.3332 80.9749 50.3641 80.8086 52.0933C80.6423 54.0553 80.6756 56.3332 80.9084 58.9271C81.0414 60.224 80.8252 60.8891 80.2599 60.9224C79.7278 60.9556 79.4119 60.3238 79.3121 59.0269C78.6803 51.6111 79.1126 47.554 80.6091 46.8557C81.4737 46.4566 82.8371 46.8723 84.6994 48.1027Z" fill="#0D131A"/>
</svg>
