<svg width="80" height="46" viewBox="0 0 80 46" fill="none" xmlns="http://www.w3.org/2000/svg">
<path d="M11.5421 5.70789L5.85052 11.3995L11.5421 17.0911L17.2337 11.3995L11.5421 5.70789Z" fill="#1F1A19"/>
<path d="M17.2337 22.7827L22.9253 17.0911L17.2337 11.3995L11.5421 17.0911L17.2337 22.7827Z" fill="#1F1A19"/>
<path d="M22.9253 28.4743L28.6169 22.7827L22.9253 17.0911L17.2337 22.7827L22.9253 28.4743Z" fill="#1F1A19"/>
<path d="M28.6169 34.1659L34.3085 28.4743L28.6169 22.7827L22.9253 28.4743L28.6169 34.1659Z" fill="#1F1A19"/>
<path d="M34.3085 39.8575L40.0001 34.1659L34.3085 28.4743L28.6169 34.1659L34.3085 39.8575Z" fill="#1F1A19"/>
<path d="M34.3085 17.0911L40.0001 11.3995L34.3085 5.70789L28.6169 11.3995L34.3085 17.0911Z" fill="#1F1A19"/>
<path d="M40.0001 22.7827L45.6917 17.0911L40.0001 11.3995L34.3085 17.0911L40.0001 22.7827Z" fill="#1F1A19"/>
<path d="M45.6917 28.4743L51.3832 22.7827L45.6917 17.0911L40.0001 22.7827L45.6917 28.4743Z" fill="#1F1A19"/>
<path d="M51.3833 34.1659L57.0748 28.4743L51.3832 22.7827L45.6917 28.4743L51.3833 34.1659Z" fill="#1F1A19"/>
<path d="M51.3832 11.3995L57.0748 5.70789L51.3832 0.0162964L45.6917 5.70789L51.3832 11.3995Z" fill="#FD290D"/>
<path d="M57.0748 17.0911L62.7664 11.3995L57.0748 5.70789L51.3832 11.3995L57.0748 17.0911Z" fill="#FD290D"/>
<path d="M62.7664 22.7827L68.458 17.0911L62.7664 11.3995L57.0748 17.0911L62.7664 22.7827Z" fill="#FD290D"/>
<path d="M74.1496 11.3995L68.458 5.70789L62.7664 11.3995L68.458 17.0911L74.1496 11.3995Z" fill="#FD290D"/>
<path d="M79.8412 5.70789L74.1496 0.0162964L68.458 5.70789L74.1496 11.3995L79.8412 5.70789Z" fill="#FD290D"/>
<path d="M34.3085 5.70789L28.6169 0.0162964L22.9253 5.70789L28.6169 11.3995L34.3085 5.70789Z" fill="#1F1A19"/>
<path d="M5.85052 11.3995L11.5421 5.70789L5.85053 0.0163087L0.158936 5.70789L5.85052 11.3995Z" fill="#1F1A19"/>
<path d="M40.0001 34.1659L34.3085 39.8575L40.0001 45.549L45.6917 39.8575L40.0001 34.1659Z" fill="#1F1A19"/>
</svg>
